%TF.GenerationSoftware,KiCad,Pcbnew,9.0.5*%
%TF.CreationDate,2025-11-11T20:33:39+08:00*%
%TF.ProjectId,ms,6d732e6b-6963-4616-945f-706362585858,rev?*%
%TF.SameCoordinates,Original*%
%TF.FileFunction,Copper,L2,Bot*%
%TF.FilePolarity,Positive*%
%FSLAX46Y46*%
G04 Gerber Fmt 4.6, Leading zero omitted, Abs format (unit mm)*
G04 Created by KiCad (PCBNEW 9.0.5) date 2025-11-11 20:33:39*
%MOMM*%
%LPD*%
G01*
G04 APERTURE LIST*
G04 Aperture macros list*
%AMRoundRect*
0 Rectangle with rounded corners*
0 $1 Rounding radius*
0 $2 $3 $4 $5 $6 $7 $8 $9 X,Y pos of 4 corners*
0 Add a 4 corners polygon primitive as box body*
4,1,4,$2,$3,$4,$5,$6,$7,$8,$9,$2,$3,0*
0 Add four circle primitives for the rounded corners*
1,1,$1+$1,$2,$3*
1,1,$1+$1,$4,$5*
1,1,$1+$1,$6,$7*
1,1,$1+$1,$8,$9*
0 Add four rect primitives between the rounded corners*
20,1,$1+$1,$2,$3,$4,$5,0*
20,1,$1+$1,$4,$5,$6,$7,0*
20,1,$1+$1,$6,$7,$8,$9,0*
20,1,$1+$1,$8,$9,$2,$3,0*%
%AMRotRect*
0 Rectangle, with rotation*
0 The origin of the aperture is its center*
0 $1 length*
0 $2 width*
0 $3 Rotation angle, in degrees counterclockwise*
0 Add horizontal line*
21,1,$1,$2,0,0,$3*%
G04 Aperture macros list end*
%TA.AperFunction,ComponentPad*%
%ADD10R,1.800000X1.800000*%
%TD*%
%TA.AperFunction,ComponentPad*%
%ADD11C,1.800000*%
%TD*%
%TA.AperFunction,ComponentPad*%
%ADD12RoundRect,0.250000X-0.600000X-0.750000X0.600000X-0.750000X0.600000X0.750000X-0.600000X0.750000X0*%
%TD*%
%TA.AperFunction,ComponentPad*%
%ADD13O,1.700000X2.000000*%
%TD*%
%TA.AperFunction,ComponentPad*%
%ADD14C,6.400000*%
%TD*%
%TA.AperFunction,ComponentPad*%
%ADD15RotRect,1.800000X1.800000X315.000000*%
%TD*%
%TA.AperFunction,ComponentPad*%
%ADD16R,1.700000X1.700000*%
%TD*%
%TA.AperFunction,ComponentPad*%
%ADD17C,1.700000*%
%TD*%
%TA.AperFunction,ComponentPad*%
%ADD18RotRect,1.800000X1.800000X45.000000*%
%TD*%
%TA.AperFunction,ComponentPad*%
%ADD19RotRect,1.800000X1.800000X225.000000*%
%TD*%
%TA.AperFunction,ComponentPad*%
%ADD20RotRect,1.800000X1.800000X135.000000*%
%TD*%
%TA.AperFunction,HeatsinkPad*%
%ADD21O,1.700000X1.100000*%
%TD*%
%TA.AperFunction,SMDPad,CuDef*%
%ADD22R,0.350000X2.000000*%
%TD*%
%TA.AperFunction,ViaPad*%
%ADD23C,0.600000*%
%TD*%
%TA.AperFunction,Conductor*%
%ADD24C,0.200000*%
%TD*%
%TA.AperFunction,Conductor*%
%ADD25C,0.400000*%
%TD*%
G04 APERTURE END LIST*
D10*
%TO.P,D30,1,K*%
%TO.N,/ARR_BL*%
X146615000Y-117550000D03*
D11*
%TO.P,D30,2,A*%
%TO.N,GND*%
X149155000Y-117550000D03*
%TD*%
D12*
%TO.P,J2,1,Pin_1*%
%TO.N,VCC*%
X160925000Y-130850000D03*
D13*
%TO.P,J2,2,Pin_2*%
%TO.N,GND*%
X163425000Y-130850000D03*
%TD*%
D10*
%TO.P,D17,1,K*%
%TO.N,/ARR_BL*%
X144075000Y-117550000D03*
D11*
%TO.P,D17,2,A*%
%TO.N,GND*%
X141535000Y-117550000D03*
%TD*%
D14*
%TO.P,H4,1,1*%
%TO.N,GND*%
X131425000Y-123850000D03*
%TD*%
D10*
%TO.P,D11,1,K*%
%TO.N,/ARR_TL*%
X144075000Y-92150000D03*
D11*
%TO.P,D11,2,A*%
%TO.N,GND*%
X141535000Y-92150000D03*
%TD*%
D10*
%TO.P,D12,1,K*%
%TO.N,/ARR_TL*%
X146615000Y-92150000D03*
D11*
%TO.P,D12,2,A*%
%TO.N,GND*%
X149155000Y-92150000D03*
%TD*%
D10*
%TO.P,D13,1,K*%
%TO.N,/ARR_TL*%
X136455000Y-97230000D03*
D11*
%TO.P,D13,2,A*%
%TO.N,GND*%
X138995000Y-97230000D03*
%TD*%
D10*
%TO.P,D23,1,K*%
%TO.N,/ARR_BL*%
X136455000Y-112470000D03*
D11*
%TO.P,D23,2,A*%
%TO.N,GND*%
X138995000Y-112470000D03*
%TD*%
D10*
%TO.P,D3,1,K*%
%TO.N,/ARR_TR*%
X156775000Y-97230000D03*
D11*
%TO.P,D3,2,A*%
%TO.N,GND*%
X159315000Y-97230000D03*
%TD*%
D10*
%TO.P,D28,1,K*%
%TO.N,/ARR_BR*%
X154235000Y-112470000D03*
D11*
%TO.P,D28,2,A*%
%TO.N,GND*%
X151695000Y-112470000D03*
%TD*%
D10*
%TO.P,D31,1,K*%
%TO.N,/ARR_BR*%
X156775000Y-117550000D03*
D11*
%TO.P,D31,2,A*%
%TO.N,GND*%
X159315000Y-117550000D03*
%TD*%
D10*
%TO.P,D20,1,K*%
%TO.N,/ARR_BR*%
X154235000Y-107390000D03*
D11*
%TO.P,D20,2,A*%
%TO.N,GND*%
X151695000Y-107390000D03*
%TD*%
D10*
%TO.P,D24,1,K*%
%TO.N,/ARR_BL*%
X146615000Y-107390000D03*
D11*
%TO.P,D24,2,A*%
%TO.N,GND*%
X149155000Y-107390000D03*
%TD*%
D10*
%TO.P,D1,1,K*%
%TO.N,/ARR_TL*%
X146615000Y-97230000D03*
D11*
%TO.P,D1,2,A*%
%TO.N,GND*%
X149155000Y-97230000D03*
%TD*%
D10*
%TO.P,D21,1,K*%
%TO.N,/ARR_BR*%
X156775000Y-112470000D03*
D11*
%TO.P,D21,2,A*%
%TO.N,GND*%
X159315000Y-112470000D03*
%TD*%
D10*
%TO.P,D8,1,K*%
%TO.N,/ARR_TR*%
X156775000Y-92150000D03*
D11*
%TO.P,D8,2,A*%
%TO.N,GND*%
X159315000Y-92150000D03*
%TD*%
D10*
%TO.P,D15,1,K*%
%TO.N,/ARR_TR*%
X154235000Y-102310000D03*
D11*
%TO.P,D15,2,A*%
%TO.N,GND*%
X151695000Y-102310000D03*
%TD*%
D15*
%TO.P,D33,1,K*%
%TO.N,GND*%
X122523439Y-76948439D03*
D11*
%TO.P,D33,2,A*%
%TO.N,Net-(D33-A)*%
X124319490Y-78744490D03*
%TD*%
D10*
%TO.P,D10,1,K*%
%TO.N,/ARR_TR*%
X164395000Y-97230000D03*
D11*
%TO.P,D10,2,A*%
%TO.N,GND*%
X161855000Y-97230000D03*
%TD*%
D10*
%TO.P,D18,1,K*%
%TO.N,/ARR_BL*%
X146615000Y-112470000D03*
D11*
%TO.P,D18,2,A*%
%TO.N,GND*%
X149155000Y-112470000D03*
%TD*%
D16*
%TO.P,J1,1,Pin_1*%
%TO.N,VCC*%
X155315000Y-132850000D03*
D17*
%TO.P,J1,2,Pin_2*%
%TO.N,+3V3*%
X152775000Y-132850000D03*
%TO.P,J1,3,Pin_3*%
%TO.N,GND*%
X150235000Y-132850000D03*
%TO.P,J1,4,Pin_4*%
%TO.N,/SWDIO*%
X147695000Y-132850000D03*
%TO.P,J1,5,Pin_5*%
%TO.N,/SWCLK*%
X145155000Y-132850000D03*
%TO.P,J1,6,Pin_6*%
%TO.N,/U1TXD*%
X142615000Y-132850000D03*
%TO.P,J1,7,Pin_7*%
%TO.N,/U1RXD*%
X140075000Y-132850000D03*
%TO.P,J1,8,Pin_8*%
%TO.N,/~{RESET}*%
X137535000Y-132850000D03*
%TD*%
D10*
%TO.P,D4,1,K*%
%TO.N,/ARR_TR*%
X154235000Y-92150000D03*
D11*
%TO.P,D4,2,A*%
%TO.N,GND*%
X151695000Y-92150000D03*
%TD*%
D18*
%TO.P,D36,1,K*%
%TO.N,GND*%
X122523439Y-132751561D03*
D11*
%TO.P,D36,2,A*%
%TO.N,Net-(D36-A)*%
X124319490Y-130955510D03*
%TD*%
D19*
%TO.P,D34,1,K*%
%TO.N,GND*%
X178326561Y-76948439D03*
D11*
%TO.P,D34,2,A*%
%TO.N,Net-(D34-A)*%
X176530510Y-78744490D03*
%TD*%
D10*
%TO.P,D26,1,K*%
%TO.N,/ARR_BR*%
X154235000Y-117550000D03*
D11*
%TO.P,D26,2,A*%
%TO.N,GND*%
X151695000Y-117550000D03*
%TD*%
D10*
%TO.P,D25,1,K*%
%TO.N,/ARR_BL*%
X144075000Y-107390000D03*
D11*
%TO.P,D25,2,A*%
%TO.N,GND*%
X141535000Y-107390000D03*
%TD*%
D10*
%TO.P,D19,1,K*%
%TO.N,/ARR_BL*%
X136455000Y-107390000D03*
D11*
%TO.P,D19,2,A*%
%TO.N,GND*%
X138995000Y-107390000D03*
%TD*%
D10*
%TO.P,D2,1,K*%
%TO.N,/ARR_TL*%
X144075000Y-97230000D03*
D11*
%TO.P,D2,2,A*%
%TO.N,GND*%
X141535000Y-97230000D03*
%TD*%
D10*
%TO.P,D22,1,K*%
%TO.N,/ARR_BR*%
X164395000Y-112470000D03*
D11*
%TO.P,D22,2,A*%
%TO.N,GND*%
X161855000Y-112470000D03*
%TD*%
D10*
%TO.P,D9,1,K*%
%TO.N,/ARR_TR*%
X154235000Y-97230000D03*
D11*
%TO.P,D9,2,A*%
%TO.N,GND*%
X151695000Y-97230000D03*
%TD*%
D14*
%TO.P,H3,1,1*%
%TO.N,GND*%
X169425000Y-85850000D03*
%TD*%
D10*
%TO.P,D27,1,K*%
%TO.N,/ARR_BR*%
X156775000Y-107390000D03*
D11*
%TO.P,D27,2,A*%
%TO.N,GND*%
X159315000Y-107390000D03*
%TD*%
D10*
%TO.P,D5,1,K*%
%TO.N,/ARR_TL*%
X146615000Y-102310000D03*
D11*
%TO.P,D5,2,A*%
%TO.N,GND*%
X149155000Y-102310000D03*
%TD*%
D14*
%TO.P,H1,1,1*%
%TO.N,GND*%
X169425000Y-123850000D03*
%TD*%
D10*
%TO.P,D6,1,K*%
%TO.N,/ARR_TL*%
X144075000Y-102310000D03*
D11*
%TO.P,D6,2,A*%
%TO.N,GND*%
X141535000Y-102310000D03*
%TD*%
D10*
%TO.P,D29,1,K*%
%TO.N,/ARR_BL*%
X144075000Y-112470000D03*
D11*
%TO.P,D29,2,A*%
%TO.N,GND*%
X141535000Y-112470000D03*
%TD*%
D10*
%TO.P,D16,1,K*%
%TO.N,/ARR_TR*%
X164395000Y-102310000D03*
D11*
%TO.P,D16,2,A*%
%TO.N,GND*%
X161855000Y-102310000D03*
%TD*%
D14*
%TO.P,H2,1,1*%
%TO.N,GND*%
X131425000Y-85850000D03*
%TD*%
D20*
%TO.P,D35,1,K*%
%TO.N,GND*%
X178326561Y-132751561D03*
D11*
%TO.P,D35,2,A*%
%TO.N,Net-(D35-A)*%
X176530510Y-130955510D03*
%TD*%
D10*
%TO.P,D14,1,K*%
%TO.N,/ARR_TR*%
X156775000Y-102310000D03*
D11*
%TO.P,D14,2,A*%
%TO.N,GND*%
X159315000Y-102310000D03*
%TD*%
D21*
%TO.P,J3,S1,SHIELD*%
%TO.N,GND*%
X126900000Y-88630000D03*
X123100000Y-88630000D03*
X126900000Y-97270000D03*
X123100000Y-97270000D03*
%TD*%
D10*
%TO.P,D7,1,K*%
%TO.N,/ARR_TL*%
X136455000Y-102310000D03*
D11*
%TO.P,D7,2,A*%
%TO.N,GND*%
X138995000Y-102310000D03*
%TD*%
D10*
%TO.P,D32,1,K*%
%TO.N,/ARR_BR*%
X164395000Y-107390000D03*
D11*
%TO.P,D32,2,A*%
%TO.N,GND*%
X161855000Y-107390000D03*
%TD*%
D22*
%TO.P,DS1,1,C2N*%
%TO.N,Net-(DS1-C2N)*%
X178455000Y-99750000D03*
%TO.P,DS1,2,C2P*%
%TO.N,Net-(DS1-C2P)*%
X177835000Y-99750000D03*
%TO.P,DS1,3,C1P*%
%TO.N,Net-(DS1-C1P)*%
X177215000Y-99750000D03*
%TO.P,DS1,4,C1N*%
%TO.N,Net-(DS1-C1N)*%
X176595000Y-99750000D03*
%TO.P,DS1,5,VBAT*%
%TO.N,+3V3*%
X175975000Y-99750000D03*
%TO.P,DS1,6,VBREF*%
%TO.N,unconnected-(DS1-VBREF-Pad6)*%
X175355000Y-99750000D03*
%TO.P,DS1,7,VSS*%
%TO.N,GND*%
X174735000Y-99750000D03*
%TO.P,DS1,8,VDD*%
%TO.N,+3V3*%
X174115000Y-99750000D03*
%TO.P,DS1,9,~{RES}*%
%TO.N,/~{RES}*%
X173495000Y-99750000D03*
%TO.P,DS1,10,SCL*%
%TO.N,/SCL*%
X172875000Y-99750000D03*
%TO.P,DS1,11,SDA*%
%TO.N,/SDA*%
X172255000Y-99750000D03*
%TO.P,DS1,12,IREF*%
%TO.N,Net-(DS1-IREF)*%
X171635000Y-99750000D03*
%TO.P,DS1,13,VCOMH*%
%TO.N,Net-(DS1-VCOMH)*%
X171015000Y-99750000D03*
%TO.P,DS1,14,VCC*%
%TO.N,Net-(DS1-VCC)*%
X170395000Y-99750000D03*
%TD*%
D23*
%TO.N,GND*%
X125225000Y-116750000D03*
X138125000Y-129250000D03*
X138725000Y-127850000D03*
X148925000Y-131550000D03*
X148925000Y-130550000D03*
X157625000Y-128850000D03*
X160925000Y-128650000D03*
X158725000Y-128050000D03*
X169125000Y-99750000D03*
X169025000Y-98450000D03*
X170925000Y-97150000D03*
X133725000Y-97450000D03*
X134425000Y-93950000D03*
X131225000Y-96850000D03*
X130425000Y-94450000D03*
X130725000Y-93050000D03*
X130825000Y-91650000D03*
%TO.N,Net-(U2-PA0)*%
X128325000Y-105950000D03*
X132025000Y-95050000D03*
%TO.N,VCC*%
X140425000Y-86050000D03*
X151125000Y-82650000D03*
X138125000Y-90350000D03*
X135625000Y-94150000D03*
%TO.N,GND*%
X169425000Y-114150000D03*
X123125000Y-99250000D03*
X161725000Y-132750000D03*
X169225000Y-80850000D03*
X151925000Y-76150000D03*
X162425000Y-82650000D03*
X152725000Y-103650000D03*
X148025000Y-106150000D03*
X173525000Y-89750000D03*
X164425000Y-76850000D03*
X123625000Y-90750000D03*
X127625000Y-76250000D03*
X142625000Y-114750000D03*
X152025000Y-99650000D03*
X159125000Y-114750000D03*
X139325000Y-115050000D03*
X135225000Y-120850000D03*
X122125000Y-79650000D03*
X135525000Y-78450000D03*
X156025000Y-109650000D03*
X162525000Y-114750000D03*
X163425000Y-94750000D03*
X136925000Y-127550000D03*
X167425000Y-98150000D03*
X148425000Y-114650000D03*
X172025000Y-108750000D03*
X173025000Y-112650000D03*
X142725000Y-109750000D03*
X137025000Y-130350000D03*
X139725000Y-109950000D03*
X177825000Y-120450000D03*
X164125000Y-116750000D03*
X148925000Y-99650000D03*
X126525000Y-120050000D03*
X126325000Y-98850000D03*
X143525000Y-120050000D03*
X162825000Y-118850000D03*
X125425000Y-133850000D03*
X144625000Y-114850000D03*
X178725000Y-111050000D03*
X149025000Y-79650000D03*
X141425000Y-99750000D03*
X131725000Y-76150000D03*
X129925000Y-118650000D03*
X148425000Y-109850000D03*
X151925000Y-94450000D03*
X168025000Y-133650000D03*
X163425000Y-84450000D03*
X127925000Y-80150000D03*
X123625000Y-86950000D03*
X147725000Y-78650000D03*
X121725000Y-130050000D03*
X136725000Y-99450000D03*
X167025000Y-95450000D03*
X166825000Y-82250000D03*
X134525000Y-83150000D03*
X144625000Y-99750000D03*
X132225000Y-118250000D03*
X129825000Y-115650000D03*
X157325000Y-94750000D03*
X178525000Y-113950000D03*
X126825000Y-77050000D03*
X175725000Y-133650000D03*
X168625000Y-107750000D03*
X178725000Y-82250000D03*
X166025000Y-130050000D03*
X154025000Y-78350000D03*
X160925000Y-88150000D03*
X157625000Y-89850000D03*
X165825000Y-117950000D03*
X177825000Y-125850000D03*
X127125000Y-85650000D03*
X155625000Y-76750000D03*
X173825000Y-87050000D03*
X130425000Y-133950000D03*
X134225000Y-106550000D03*
X179325000Y-88450000D03*
X159625000Y-76850000D03*
X158725000Y-100150000D03*
X146125000Y-89450000D03*
X174725000Y-96650000D03*
X172425000Y-81850000D03*
X141025000Y-87150000D03*
X174625000Y-129150000D03*
X162125000Y-100050000D03*
X135225000Y-84450000D03*
X123425000Y-82550000D03*
X161525000Y-78550000D03*
X123725000Y-94750000D03*
X156025000Y-114850000D03*
X129025000Y-97550000D03*
X144125000Y-94550000D03*
X123025000Y-116650000D03*
X134525000Y-127650000D03*
X156225000Y-99650000D03*
X160325000Y-89050000D03*
X166225000Y-100150000D03*
X159925000Y-81050000D03*
X178325000Y-116750000D03*
X163925000Y-79850000D03*
X141525000Y-78850000D03*
X130125000Y-98950000D03*
X159725000Y-109750000D03*
X178025000Y-108250000D03*
X173025000Y-115850000D03*
X158625000Y-131750000D03*
X136325000Y-109850000D03*
X121525000Y-127850000D03*
X164725000Y-92650000D03*
X177625000Y-83850000D03*
X125325000Y-76150000D03*
X169125000Y-116750000D03*
X125025000Y-127850000D03*
X131125000Y-107150000D03*
X152525000Y-109950000D03*
X164225000Y-121150000D03*
X175425000Y-76050000D03*
X178825000Y-85750000D03*
X173025000Y-132350000D03*
X173125000Y-118650000D03*
X146125000Y-120050000D03*
X146125000Y-77050000D03*
X167525000Y-118750000D03*
X137625000Y-89150000D03*
X176725000Y-87050000D03*
X164625000Y-110050000D03*
X126425000Y-101650000D03*
X135425000Y-76650000D03*
X173525000Y-79850000D03*
X160625000Y-94750000D03*
X162725000Y-91150000D03*
X130825000Y-90250000D03*
X148025000Y-103750000D03*
X157625000Y-78450000D03*
X127425000Y-129750000D03*
X121625000Y-81850000D03*
X136825000Y-123150000D03*
X179125000Y-79450000D03*
X142425000Y-89650000D03*
X133525000Y-75950000D03*
X121625000Y-123050000D03*
X148425000Y-94650000D03*
X174725000Y-83850000D03*
X169425000Y-111550000D03*
X177025000Y-89350000D03*
X140525000Y-94550000D03*
X136825000Y-94550000D03*
X123325000Y-92250000D03*
X152625000Y-106150000D03*
X122825000Y-101550000D03*
X121625000Y-83450000D03*
X153625000Y-89550000D03*
X151925000Y-114750000D03*
%TO.N,/O4*%
X150425000Y-83550000D03*
X150425000Y-124550000D03*
%TO.N,/~{RESET}*%
X127025000Y-110250000D03*
X133525000Y-132850000D03*
X127325000Y-105950000D03*
%TO.N,/BUTTON*%
X123525000Y-120050000D03*
X121925000Y-111450000D03*
%TO.N,+3V3*%
X125025000Y-110150000D03*
X123025000Y-103550000D03*
X175925000Y-100950000D03*
X175825000Y-104750000D03*
X126525000Y-111650000D03*
X174125000Y-101050000D03*
X123025000Y-105750000D03*
%TO.N,Net-(DS1-C2P)*%
X178125000Y-102450000D03*
%TO.N,Net-(DS1-C2N)*%
X178725000Y-100950000D03*
%TO.N,Net-(DS1-C1N)*%
X176525000Y-102450000D03*
%TO.N,Net-(DS1-C1P)*%
X177225000Y-100950000D03*
%TO.N,Net-(DS1-VCC)*%
X170225000Y-101050000D03*
%TO.N,Net-(DS1-VCOMH)*%
X171025000Y-101050000D03*
%TO.N,/~{RES}*%
X125125000Y-105350000D03*
X173525000Y-98250000D03*
%TO.N,/SDA*%
X171925000Y-102450000D03*
X150625000Y-105350000D03*
X148625000Y-105350000D03*
X128125000Y-107250000D03*
X171825000Y-105350000D03*
%TO.N,/SCL*%
X148625000Y-104450000D03*
X127325000Y-106750000D03*
X150125000Y-104450000D03*
%TO.N,Net-(DS1-IREF)*%
X172067362Y-101238584D03*
%TO.N,/U1RXD*%
X129125000Y-110650000D03*
%TO.N,/SWCLK*%
X125325000Y-108950000D03*
%TO.N,/U1TXD*%
X128625000Y-109950000D03*
%TO.N,/SWDIO*%
X129125000Y-108050000D03*
%TO.N,/ADC_IN0*%
X133125000Y-90250000D03*
%TO.N,/OUT*%
X138325000Y-86050000D03*
X129125000Y-104050000D03*
%TD*%
D24*
%TO.N,/OUT*%
X138325000Y-86050000D02*
X133425000Y-90950000D01*
X133425000Y-90950000D02*
X133425000Y-95550000D01*
X133425000Y-95550000D02*
X132825000Y-96150000D01*
X132825000Y-96150000D02*
X132825000Y-100350000D01*
X132825000Y-100350000D02*
X129125000Y-104050000D01*
%TO.N,Net-(U2-PA0)*%
X128325000Y-103150000D02*
X128325000Y-105950000D01*
X129825000Y-101650000D02*
X128325000Y-103150000D01*
X132025000Y-95050000D02*
X132025000Y-99450000D01*
X132025000Y-99450000D02*
X129825000Y-101650000D01*
D25*
%TO.N,VCC*%
X145325000Y-82650000D02*
X144025000Y-83950000D01*
X151125000Y-82650000D02*
X145325000Y-82650000D01*
X141925000Y-86050000D02*
X140425000Y-86050000D01*
X144025000Y-83950000D02*
X141925000Y-86050000D01*
X135625000Y-94150000D02*
X135625000Y-92850000D01*
X135625000Y-92850000D02*
X138125000Y-90350000D01*
D24*
%TO.N,GND*%
X174735000Y-99750000D02*
X174735000Y-96660000D01*
X174735000Y-96660000D02*
X174725000Y-96650000D01*
D25*
%TO.N,/O4*%
X149425000Y-104250000D02*
X149425000Y-105550000D01*
X150425000Y-103250000D02*
X150425000Y-83550000D01*
X149425000Y-105550000D02*
X150425000Y-106550000D01*
X150425000Y-103250000D02*
X149425000Y-104250000D01*
X150425000Y-124550000D02*
X150425000Y-106550000D01*
D24*
%TO.N,/~{RESET}*%
X133525000Y-132850000D02*
X137535000Y-132850000D01*
X126525000Y-106750000D02*
X125825000Y-106750000D01*
X127325000Y-105950000D02*
X126525000Y-106750000D01*
X125825000Y-106750000D02*
X124425000Y-108150000D01*
X124425000Y-108950000D02*
X125025000Y-109550000D01*
X126325000Y-109550000D02*
X127025000Y-110250000D01*
X124425000Y-108150000D02*
X124425000Y-108950000D01*
X125025000Y-109550000D02*
X126325000Y-109550000D01*
%TO.N,/BUTTON*%
X121925000Y-118450000D02*
X123525000Y-120050000D01*
X121925000Y-111450000D02*
X121925000Y-118450000D01*
D25*
%TO.N,+3V3*%
X175825000Y-101050000D02*
X175925000Y-100950000D01*
D24*
X175975000Y-100900000D02*
X175925000Y-100950000D01*
X174115000Y-101040000D02*
X174125000Y-101050000D01*
X123025000Y-105750000D02*
X123025000Y-103550000D01*
X125025000Y-110150000D02*
X126525000Y-111650000D01*
X174115000Y-99750000D02*
X174115000Y-101040000D01*
X175975000Y-99750000D02*
X175975000Y-100900000D01*
D25*
X175825000Y-104750000D02*
X175825000Y-101050000D01*
D24*
%TO.N,Net-(DS1-C2P)*%
X177835000Y-99750000D02*
X177835000Y-102160000D01*
X177835000Y-102160000D02*
X178125000Y-102450000D01*
%TO.N,Net-(DS1-C2N)*%
X178455000Y-99750000D02*
X178455000Y-100680000D01*
X178455000Y-100680000D02*
X178725000Y-100950000D01*
%TO.N,Net-(DS1-C1N)*%
X176595000Y-102380000D02*
X176525000Y-102450000D01*
X176595000Y-99750000D02*
X176595000Y-102380000D01*
%TO.N,Net-(DS1-VCC)*%
X170395000Y-100880000D02*
X170225000Y-101050000D01*
X170395000Y-99750000D02*
X170395000Y-100880000D01*
%TO.N,Net-(DS1-VCOMH)*%
X171015000Y-99750000D02*
X171015000Y-101040000D01*
X171015000Y-101040000D02*
X171025000Y-101050000D01*
%TO.N,/~{RES}*%
X125125000Y-85750000D02*
X129925000Y-80950000D01*
X156225000Y-80950000D02*
X173525000Y-98250000D01*
X129925000Y-80950000D02*
X156225000Y-80950000D01*
X125125000Y-105350000D02*
X125125000Y-85750000D01*
X173495000Y-99750000D02*
X173495000Y-98280000D01*
X173495000Y-98280000D02*
X173525000Y-98250000D01*
%TO.N,/SDA*%
X172568362Y-101806638D02*
X172568362Y-101031063D01*
X131325000Y-105350000D02*
X148625000Y-105350000D01*
X172255000Y-100717701D02*
X172255000Y-99750000D01*
X129925000Y-106750000D02*
X131325000Y-105350000D01*
X150625000Y-105350000D02*
X171825000Y-105350000D01*
X129425000Y-107250000D02*
X129925000Y-106750000D01*
X171925000Y-102450000D02*
X172568362Y-101806638D01*
X128125000Y-107250000D02*
X129425000Y-107250000D01*
X172568362Y-101031063D02*
X172255000Y-100717701D01*
%TO.N,/SCL*%
X128925000Y-106650000D02*
X131125000Y-104450000D01*
X127425000Y-106650000D02*
X128925000Y-106650000D01*
X173125000Y-102050000D02*
X172875000Y-101800000D01*
X173125000Y-103150000D02*
X173125000Y-102050000D01*
X172875000Y-101800000D02*
X172875000Y-99750000D01*
X150125000Y-104450000D02*
X171825000Y-104450000D01*
X131125000Y-104450000D02*
X148625000Y-104450000D01*
X127325000Y-106750000D02*
X127425000Y-106650000D01*
X171825000Y-104450000D02*
X173125000Y-103150000D01*
%TO.N,Net-(DS1-IREF)*%
X171635000Y-99750000D02*
X171635000Y-100806222D01*
X171635000Y-100806222D02*
X172067362Y-101238584D01*
%TO.N,/U1RXD*%
X129125000Y-110650000D02*
X129125000Y-112250000D01*
X140075000Y-123200000D02*
X140075000Y-132850000D01*
X129125000Y-112250000D02*
X140075000Y-123200000D01*
%TO.N,/SWCLK*%
X131525000Y-112250000D02*
X145155000Y-125880000D01*
X131525000Y-111050000D02*
X131525000Y-112250000D01*
X145155000Y-125880000D02*
X145155000Y-132850000D01*
X125325000Y-108950000D02*
X129425000Y-108950000D01*
X129425000Y-108950000D02*
X131525000Y-111050000D01*
%TO.N,/U1TXD*%
X128625000Y-109950000D02*
X129625000Y-109950000D01*
X142615000Y-124540000D02*
X142615000Y-132850000D01*
X129625000Y-109950000D02*
X130225000Y-110550000D01*
X130225000Y-112150000D02*
X142615000Y-124540000D01*
X130225000Y-110550000D02*
X130225000Y-112150000D01*
%TO.N,/SWDIO*%
X147695000Y-126620000D02*
X147695000Y-132850000D01*
X129125000Y-108050000D02*
X147695000Y-126620000D01*
%TD*%
%TA.AperFunction,Conductor*%
%TO.N,GND*%
G36*
X177428735Y-75350726D02*
G01*
X177445926Y-75351765D01*
X177639950Y-75363502D01*
X177705677Y-75387197D01*
X177748161Y-75442667D01*
X177753911Y-75512300D01*
X177721101Y-75573987D01*
X177720143Y-75574956D01*
X177513388Y-75781711D01*
X177513388Y-75781712D01*
X178237976Y-76506300D01*
X178152867Y-76529106D01*
X178050255Y-76588349D01*
X177966471Y-76672133D01*
X177907228Y-76774745D01*
X177884422Y-76859854D01*
X177159834Y-76135266D01*
X177159833Y-76135266D01*
X176666398Y-76628701D01*
X176628814Y-76675341D01*
X176569088Y-76806120D01*
X176569087Y-76806125D01*
X176548627Y-76948439D01*
X176569087Y-77090752D01*
X176569088Y-77090757D01*
X176604583Y-77168478D01*
X176614527Y-77237637D01*
X176585502Y-77301193D01*
X176526724Y-77338967D01*
X176491789Y-77343990D01*
X176420288Y-77343990D01*
X176347711Y-77355485D01*
X176202557Y-77378475D01*
X175992906Y-77446593D01*
X175992903Y-77446594D01*
X175796484Y-77546677D01*
X175618151Y-77676242D01*
X175618146Y-77676246D01*
X175462266Y-77832126D01*
X175462262Y-77832131D01*
X175332697Y-78010464D01*
X175232614Y-78206883D01*
X175232613Y-78206886D01*
X175164495Y-78416537D01*
X175130010Y-78634268D01*
X175130010Y-78854711D01*
X175164495Y-79072442D01*
X175232613Y-79282093D01*
X175232614Y-79282096D01*
X175332697Y-79478515D01*
X175462262Y-79656848D01*
X175462266Y-79656853D01*
X175618146Y-79812733D01*
X175618151Y-79812737D01*
X175773702Y-79925750D01*
X175796488Y-79942305D01*
X175924885Y-80007727D01*
X175992903Y-80042385D01*
X175992906Y-80042386D01*
X176097731Y-80076445D01*
X176202559Y-80110505D01*
X176420288Y-80144990D01*
X176420289Y-80144990D01*
X176640731Y-80144990D01*
X176640732Y-80144990D01*
X176858461Y-80110505D01*
X177068116Y-80042385D01*
X177264532Y-79942305D01*
X177442875Y-79812732D01*
X177598752Y-79656855D01*
X177728325Y-79478512D01*
X177828405Y-79282096D01*
X177896525Y-79072441D01*
X177931010Y-78854712D01*
X177931010Y-78783210D01*
X177950695Y-78716171D01*
X178003499Y-78670416D01*
X178072657Y-78660472D01*
X178106523Y-78670416D01*
X178184246Y-78705912D01*
X178326561Y-78726372D01*
X178468874Y-78705912D01*
X178468879Y-78705911D01*
X178599658Y-78646185D01*
X178646293Y-78608605D01*
X179139733Y-78115165D01*
X179139733Y-78115164D01*
X178415145Y-77390577D01*
X178500255Y-77367772D01*
X178602867Y-77308529D01*
X178686651Y-77224745D01*
X178745894Y-77122133D01*
X178768699Y-77037023D01*
X179493286Y-77761610D01*
X179700042Y-77554855D01*
X179716274Y-77545991D01*
X179729495Y-77533058D01*
X179746302Y-77529594D01*
X179761365Y-77521370D01*
X179779813Y-77522689D01*
X179797927Y-77518957D01*
X179813937Y-77525129D01*
X179831056Y-77526354D01*
X179845862Y-77537438D01*
X179863119Y-77544091D01*
X179873251Y-77557940D01*
X179886990Y-77568225D01*
X179893453Y-77585553D01*
X179904374Y-77600481D01*
X179910982Y-77632551D01*
X179911407Y-77633690D01*
X179911497Y-77635049D01*
X179924274Y-77846263D01*
X179924500Y-77853750D01*
X179924500Y-90549495D01*
X179904815Y-90616534D01*
X179852011Y-90662289D01*
X179782853Y-90672233D01*
X179738501Y-90656883D01*
X179698188Y-90633608D01*
X179613323Y-90610869D01*
X179570892Y-90599500D01*
X169410892Y-90599500D01*
X169279108Y-90599500D01*
X169151812Y-90633608D01*
X169037686Y-90699500D01*
X169037683Y-90699502D01*
X168944502Y-90792683D01*
X168944500Y-90792686D01*
X168878608Y-90906812D01*
X168844500Y-91034108D01*
X168844500Y-92420902D01*
X168824815Y-92487941D01*
X168772011Y-92533696D01*
X168702853Y-92543640D01*
X168639297Y-92514615D01*
X168632819Y-92508583D01*
X156712590Y-80588355D01*
X156712588Y-80588352D01*
X156593717Y-80469481D01*
X156593716Y-80469480D01*
X156506904Y-80419360D01*
X156506904Y-80419359D01*
X156506900Y-80419358D01*
X156456785Y-80390423D01*
X156304057Y-80349499D01*
X156145943Y-80349499D01*
X156138347Y-80349499D01*
X156138331Y-80349500D01*
X130004057Y-80349500D01*
X129845943Y-80349500D01*
X129693215Y-80390423D01*
X129693214Y-80390423D01*
X129693212Y-80390424D01*
X129693209Y-80390425D01*
X129643096Y-80419359D01*
X129643095Y-80419360D01*
X129599689Y-80444420D01*
X129556285Y-80469479D01*
X129556282Y-80469481D01*
X124644479Y-85381284D01*
X124625436Y-85414268D01*
X124617387Y-85428211D01*
X124565423Y-85518215D01*
X124524499Y-85670943D01*
X124524499Y-85670945D01*
X124524499Y-85839046D01*
X124524500Y-85839059D01*
X124524500Y-88014208D01*
X124504815Y-88081247D01*
X124452011Y-88127002D01*
X124382853Y-88136946D01*
X124319297Y-88107921D01*
X124297398Y-88083099D01*
X124215589Y-87960664D01*
X124215586Y-87960660D01*
X124069339Y-87814413D01*
X124069335Y-87814410D01*
X123897368Y-87699505D01*
X123897358Y-87699500D01*
X123706274Y-87620350D01*
X123706266Y-87620348D01*
X123503420Y-87580000D01*
X123350000Y-87580000D01*
X123350000Y-88330000D01*
X122850000Y-88330000D01*
X122850000Y-87580000D01*
X122696579Y-87580000D01*
X122493733Y-87620348D01*
X122493725Y-87620350D01*
X122302641Y-87699500D01*
X122302631Y-87699505D01*
X122130664Y-87814410D01*
X122130660Y-87814413D01*
X121984413Y-87960660D01*
X121984410Y-87960664D01*
X121869505Y-88132631D01*
X121869500Y-88132641D01*
X121790351Y-88323723D01*
X121790350Y-88323725D01*
X121779157Y-88380000D01*
X122633012Y-88380000D01*
X122615795Y-88389940D01*
X122559940Y-88445795D01*
X122520444Y-88514204D01*
X122500000Y-88590504D01*
X122500000Y-88669496D01*
X122520444Y-88745796D01*
X122559940Y-88814205D01*
X122615795Y-88870060D01*
X122633012Y-88880000D01*
X121779157Y-88880000D01*
X121790350Y-88936274D01*
X121790351Y-88936276D01*
X121869500Y-89127358D01*
X121869505Y-89127368D01*
X121984410Y-89299335D01*
X121984413Y-89299339D01*
X122130660Y-89445586D01*
X122130664Y-89445589D01*
X122302631Y-89560494D01*
X122302641Y-89560499D01*
X122493725Y-89639649D01*
X122493733Y-89639651D01*
X122696579Y-89679999D01*
X122696583Y-89680000D01*
X122850000Y-89680000D01*
X122850000Y-88930000D01*
X123350000Y-88930000D01*
X123350000Y-89680000D01*
X123503417Y-89680000D01*
X123503420Y-89679999D01*
X123706266Y-89639651D01*
X123706274Y-89639649D01*
X123897358Y-89560499D01*
X123897368Y-89560494D01*
X124069335Y-89445589D01*
X124069339Y-89445586D01*
X124215586Y-89299339D01*
X124215592Y-89299331D01*
X124297398Y-89176901D01*
X124351010Y-89132095D01*
X124420335Y-89123388D01*
X124483362Y-89153542D01*
X124520082Y-89212985D01*
X124524500Y-89245791D01*
X124524500Y-96654208D01*
X124504815Y-96721247D01*
X124452011Y-96767002D01*
X124382853Y-96776946D01*
X124319297Y-96747921D01*
X124297398Y-96723099D01*
X124215589Y-96600664D01*
X124215586Y-96600660D01*
X124069339Y-96454413D01*
X124069335Y-96454410D01*
X123897368Y-96339505D01*
X123897358Y-96339500D01*
X123706274Y-96260350D01*
X123706266Y-96260348D01*
X123503420Y-96220000D01*
X123350000Y-96220000D01*
X123350000Y-96970000D01*
X122850000Y-96970000D01*
X122850000Y-96220000D01*
X122696579Y-96220000D01*
X122493733Y-96260348D01*
X122493725Y-96260350D01*
X122302641Y-96339500D01*
X122302631Y-96339505D01*
X122130664Y-96454410D01*
X122130660Y-96454413D01*
X121984413Y-96600660D01*
X121984410Y-96600664D01*
X121869505Y-96772631D01*
X121869500Y-96772641D01*
X121790351Y-96963723D01*
X121790350Y-96963725D01*
X121779157Y-97020000D01*
X122633012Y-97020000D01*
X122615795Y-97029940D01*
X122559940Y-97085795D01*
X122520444Y-97154204D01*
X122500000Y-97230504D01*
X122500000Y-97309496D01*
X122520444Y-97385796D01*
X122559940Y-97454205D01*
X122615795Y-97510060D01*
X122633012Y-97520000D01*
X121779157Y-97520000D01*
X121790350Y-97576274D01*
X121790351Y-97576276D01*
X121869500Y-97767358D01*
X121869505Y-97767368D01*
X121984410Y-97939335D01*
X121984413Y-97939339D01*
X122130660Y-98085586D01*
X122130664Y-98085589D01*
X122302631Y-98200494D01*
X122302641Y-98200499D01*
X122493725Y-98279649D01*
X122493733Y-98279651D01*
X122696579Y-98319999D01*
X122696583Y-98320000D01*
X122850000Y-98320000D01*
X122850000Y-97570000D01*
X123350000Y-97570000D01*
X123350000Y-98320000D01*
X123503417Y-98320000D01*
X123503420Y-98319999D01*
X123706266Y-98279651D01*
X123706274Y-98279649D01*
X123897358Y-98200499D01*
X123897368Y-98200494D01*
X124069335Y-98085589D01*
X124069339Y-98085586D01*
X124215586Y-97939339D01*
X124215592Y-97939331D01*
X124297398Y-97816901D01*
X124351010Y-97772095D01*
X124420335Y-97763388D01*
X124483362Y-97793542D01*
X124520082Y-97852985D01*
X124524500Y-97885791D01*
X124524500Y-104770234D01*
X124504815Y-104837273D01*
X124503602Y-104839125D01*
X124415609Y-104970814D01*
X124415602Y-104970827D01*
X124355264Y-105116498D01*
X124355261Y-105116510D01*
X124324500Y-105271153D01*
X124324500Y-105428846D01*
X124355261Y-105583489D01*
X124355264Y-105583501D01*
X124415602Y-105729172D01*
X124415609Y-105729185D01*
X124503210Y-105860288D01*
X124503213Y-105860292D01*
X124614707Y-105971786D01*
X124614711Y-105971789D01*
X124745814Y-106059390D01*
X124745827Y-106059397D01*
X124824894Y-106092147D01*
X124891503Y-106119737D01*
X125041126Y-106149499D01*
X125046153Y-106150499D01*
X125046156Y-106150500D01*
X125046158Y-106150500D01*
X125203843Y-106150500D01*
X125217136Y-106147855D01*
X125266571Y-106138022D01*
X125300328Y-106141042D01*
X125334094Y-106143457D01*
X125335013Y-106144145D01*
X125336161Y-106144248D01*
X125362929Y-106165042D01*
X125390028Y-106185327D01*
X125390430Y-106186404D01*
X125391339Y-106187111D01*
X125402608Y-106219056D01*
X125414446Y-106250791D01*
X125414201Y-106251915D01*
X125414584Y-106253000D01*
X125406796Y-106285958D01*
X125399595Y-106319064D01*
X125398687Y-106320276D01*
X125398517Y-106320997D01*
X125378445Y-106347319D01*
X125344480Y-106381284D01*
X123944481Y-107781282D01*
X123944480Y-107781284D01*
X123904518Y-107850501D01*
X123865423Y-107918215D01*
X123824499Y-108070943D01*
X123824499Y-108070945D01*
X123824499Y-108239046D01*
X123824500Y-108239059D01*
X123824500Y-108863330D01*
X123824499Y-108863348D01*
X123824499Y-109029054D01*
X123824498Y-109029054D01*
X123865423Y-109181785D01*
X123894358Y-109231900D01*
X123894359Y-109231904D01*
X123894360Y-109231904D01*
X123944479Y-109318714D01*
X123944481Y-109318717D01*
X124063349Y-109437585D01*
X124063355Y-109437590D01*
X124280737Y-109654972D01*
X124314222Y-109716295D01*
X124309238Y-109785987D01*
X124307618Y-109790105D01*
X124255263Y-109916503D01*
X124255262Y-109916506D01*
X124255262Y-109916507D01*
X124255261Y-109916510D01*
X124224500Y-110071153D01*
X124224500Y-110228846D01*
X124255261Y-110383489D01*
X124255264Y-110383501D01*
X124315602Y-110529172D01*
X124315609Y-110529185D01*
X124403210Y-110660288D01*
X124403213Y-110660292D01*
X124514707Y-110771786D01*
X124514711Y-110771789D01*
X124645814Y-110859390D01*
X124645827Y-110859397D01*
X124791498Y-110919735D01*
X124791503Y-110919737D01*
X124856147Y-110932595D01*
X124946849Y-110950638D01*
X125008760Y-110983023D01*
X125010339Y-110984574D01*
X125690425Y-111664660D01*
X125723910Y-111725983D01*
X125724361Y-111728149D01*
X125755261Y-111883491D01*
X125755264Y-111883501D01*
X125815602Y-112029172D01*
X125815609Y-112029185D01*
X125903210Y-112160288D01*
X125903213Y-112160292D01*
X126014707Y-112271786D01*
X126014711Y-112271789D01*
X126145814Y-112359390D01*
X126145827Y-112359397D01*
X126291498Y-112419735D01*
X126291503Y-112419737D01*
X126446153Y-112450499D01*
X126446156Y-112450500D01*
X126446158Y-112450500D01*
X126603844Y-112450500D01*
X126603845Y-112450499D01*
X126758497Y-112419737D01*
X126904179Y-112359394D01*
X127035289Y-112271789D01*
X127146789Y-112160289D01*
X127234394Y-112029179D01*
X127294737Y-111883497D01*
X127325500Y-111728842D01*
X127325500Y-111571158D01*
X127325500Y-111571155D01*
X127325499Y-111571153D01*
X127294737Y-111416503D01*
X127275955Y-111371158D01*
X127234397Y-111270827D01*
X127234390Y-111270814D01*
X127191850Y-111207149D01*
X127170972Y-111140472D01*
X127189456Y-111073092D01*
X127241435Y-111026401D01*
X127256994Y-111020359D01*
X127258494Y-111019737D01*
X127258497Y-111019737D01*
X127404179Y-110959394D01*
X127535289Y-110871789D01*
X127646789Y-110760289D01*
X127734394Y-110629179D01*
X127791884Y-110490383D01*
X127835722Y-110435985D01*
X127902016Y-110413919D01*
X127969715Y-110431198D01*
X127998753Y-110456131D01*
X127998903Y-110455982D01*
X128000872Y-110457951D01*
X128002295Y-110459173D01*
X128003215Y-110460294D01*
X128114710Y-110571789D01*
X128245815Y-110659390D01*
X128245821Y-110659394D01*
X128245827Y-110659396D01*
X128245830Y-110659398D01*
X128255276Y-110663311D01*
X128309679Y-110707152D01*
X128329439Y-110753679D01*
X128355261Y-110883491D01*
X128355264Y-110883501D01*
X128415602Y-111029172D01*
X128415609Y-111029185D01*
X128503602Y-111160874D01*
X128524480Y-111227551D01*
X128524500Y-111229765D01*
X128524500Y-112163330D01*
X128524499Y-112163348D01*
X128524499Y-112329054D01*
X128524498Y-112329054D01*
X128565423Y-112481785D01*
X128594358Y-112531900D01*
X128594359Y-112531904D01*
X128594360Y-112531904D01*
X128644479Y-112618714D01*
X128644481Y-112618717D01*
X128763349Y-112737585D01*
X128763355Y-112737590D01*
X139438181Y-123412416D01*
X139471666Y-123473739D01*
X139474500Y-123500097D01*
X139474500Y-131564281D01*
X139454815Y-131631320D01*
X139406795Y-131674765D01*
X139367185Y-131694947D01*
X139367184Y-131694948D01*
X139195213Y-131819890D01*
X139044890Y-131970213D01*
X138919949Y-132142182D01*
X138915484Y-132150946D01*
X138867509Y-132201742D01*
X138799688Y-132218536D01*
X138733553Y-132195998D01*
X138694516Y-132150946D01*
X138690050Y-132142182D01*
X138565109Y-131970213D01*
X138414786Y-131819890D01*
X138242820Y-131694951D01*
X138053414Y-131598444D01*
X138053413Y-131598443D01*
X138053412Y-131598443D01*
X137851243Y-131532754D01*
X137851241Y-131532753D01*
X137851240Y-131532753D01*
X137689957Y-131507208D01*
X137641287Y-131499500D01*
X137428713Y-131499500D01*
X137380042Y-131507208D01*
X137218760Y-131532753D01*
X137016585Y-131598444D01*
X136827179Y-131694951D01*
X136655213Y-131819890D01*
X136504890Y-131970213D01*
X136379948Y-132142184D01*
X136379947Y-132142185D01*
X136359765Y-132181795D01*
X136311791Y-132232591D01*
X136249281Y-132249500D01*
X134104766Y-132249500D01*
X134037727Y-132229815D01*
X134035875Y-132228602D01*
X133904185Y-132140609D01*
X133904172Y-132140602D01*
X133758501Y-132080264D01*
X133758489Y-132080261D01*
X133603845Y-132049500D01*
X133603842Y-132049500D01*
X133446158Y-132049500D01*
X133446155Y-132049500D01*
X133291510Y-132080261D01*
X133291498Y-132080264D01*
X133145827Y-132140602D01*
X133145814Y-132140609D01*
X133014711Y-132228210D01*
X133014707Y-132228213D01*
X132903213Y-132339707D01*
X132903210Y-132339711D01*
X132815609Y-132470814D01*
X132815602Y-132470827D01*
X132755264Y-132616498D01*
X132755261Y-132616510D01*
X132724500Y-132771153D01*
X132724500Y-132928846D01*
X132755261Y-133083489D01*
X132755264Y-133083501D01*
X132815602Y-133229172D01*
X132815609Y-133229185D01*
X132903210Y-133360288D01*
X132903213Y-133360292D01*
X133014707Y-133471786D01*
X133014711Y-133471789D01*
X133145814Y-133559390D01*
X133145827Y-133559397D01*
X133272138Y-133611716D01*
X133291503Y-133619737D01*
X133446153Y-133650499D01*
X133446156Y-133650500D01*
X133446158Y-133650500D01*
X133603844Y-133650500D01*
X133603845Y-133650499D01*
X133758497Y-133619737D01*
X133871166Y-133573067D01*
X133904172Y-133559397D01*
X133904172Y-133559396D01*
X133904179Y-133559394D01*
X133965823Y-133518205D01*
X134035875Y-133471398D01*
X134102553Y-133450520D01*
X134104766Y-133450500D01*
X136249281Y-133450500D01*
X136316320Y-133470185D01*
X136359765Y-133518205D01*
X136379947Y-133557814D01*
X136379948Y-133557815D01*
X136504890Y-133729786D01*
X136655213Y-133880109D01*
X136827179Y-134005048D01*
X136827181Y-134005049D01*
X136827184Y-134005051D01*
X137016588Y-134101557D01*
X137035092Y-134107569D01*
X137092768Y-134147006D01*
X137119966Y-134211365D01*
X137108051Y-134280211D01*
X137060807Y-134331687D01*
X136996774Y-134349500D01*
X123428751Y-134349500D01*
X123421264Y-134349274D01*
X123210049Y-134336497D01*
X123144320Y-134312800D01*
X123101837Y-134257330D01*
X123096088Y-134187697D01*
X123128897Y-134126010D01*
X123129855Y-134125042D01*
X123336610Y-133918286D01*
X122612023Y-133193699D01*
X122697133Y-133170894D01*
X122799745Y-133111651D01*
X122883529Y-133027867D01*
X122942772Y-132925255D01*
X122965577Y-132840145D01*
X123690164Y-133564733D01*
X123690165Y-133564733D01*
X124183605Y-133071293D01*
X124221185Y-133024658D01*
X124280911Y-132893879D01*
X124280912Y-132893874D01*
X124301372Y-132751561D01*
X124280912Y-132609247D01*
X124280911Y-132609242D01*
X124245417Y-132531522D01*
X124235473Y-132462363D01*
X124264498Y-132398807D01*
X124323276Y-132361033D01*
X124358211Y-132356010D01*
X124429711Y-132356010D01*
X124429712Y-132356010D01*
X124647441Y-132321525D01*
X124857096Y-132253405D01*
X125053512Y-132153325D01*
X125231855Y-132023752D01*
X125387732Y-131867875D01*
X125517305Y-131689532D01*
X125617385Y-131493116D01*
X125685505Y-131283461D01*
X125719990Y-131065732D01*
X125719990Y-130845288D01*
X125685505Y-130627559D01*
X125651445Y-130522731D01*
X125617386Y-130417906D01*
X125617385Y-130417903D01*
X125582727Y-130349885D01*
X125517305Y-130221488D01*
X125392706Y-130049991D01*
X125387737Y-130043151D01*
X125387733Y-130043146D01*
X125231853Y-129887266D01*
X125231848Y-129887262D01*
X125053515Y-129757697D01*
X125053514Y-129757696D01*
X125053512Y-129757695D01*
X124990586Y-129725632D01*
X124857096Y-129657614D01*
X124857093Y-129657613D01*
X124647442Y-129589495D01*
X124538576Y-129572252D01*
X124429712Y-129555010D01*
X124209268Y-129555010D01*
X124136691Y-129566505D01*
X123991537Y-129589495D01*
X123781886Y-129657613D01*
X123781883Y-129657614D01*
X123585464Y-129757697D01*
X123407131Y-129887262D01*
X123407126Y-129887266D01*
X123251246Y-130043146D01*
X123251242Y-130043151D01*
X123121677Y-130221484D01*
X123021594Y-130417903D01*
X123021593Y-130417906D01*
X122953475Y-130627557D01*
X122918990Y-130845288D01*
X122918990Y-130916789D01*
X122899305Y-130983828D01*
X122846501Y-131029583D01*
X122777343Y-131039527D01*
X122743478Y-131029583D01*
X122665757Y-130994088D01*
X122665752Y-130994087D01*
X122523439Y-130973627D01*
X122381125Y-130994087D01*
X122381120Y-130994088D01*
X122250341Y-131053814D01*
X122203701Y-131091398D01*
X121710266Y-131584833D01*
X121710266Y-131584834D01*
X122434854Y-132309422D01*
X122349745Y-132332228D01*
X122247133Y-132391471D01*
X122163349Y-132475255D01*
X122104106Y-132577867D01*
X122081300Y-132662976D01*
X121356712Y-131938388D01*
X121149956Y-132145143D01*
X121133724Y-132154006D01*
X121120502Y-132166941D01*
X121103693Y-132170404D01*
X121088633Y-132178628D01*
X121070184Y-132177308D01*
X121052070Y-132181041D01*
X121036059Y-132174868D01*
X121018941Y-132173644D01*
X121004135Y-132162560D01*
X120986878Y-132155907D01*
X120976744Y-132142055D01*
X120963008Y-132131772D01*
X120956544Y-132114444D01*
X120945624Y-132099516D01*
X120939016Y-132067447D01*
X120938591Y-132066308D01*
X120938510Y-132065098D01*
X120925726Y-131853735D01*
X120925500Y-131846249D01*
X120925500Y-111752190D01*
X120945185Y-111685151D01*
X120997989Y-111639396D01*
X121067147Y-111629452D01*
X121130703Y-111658477D01*
X121164061Y-111704738D01*
X121215602Y-111829172D01*
X121215609Y-111829185D01*
X121303602Y-111960874D01*
X121324480Y-112027551D01*
X121324500Y-112029765D01*
X121324500Y-118363330D01*
X121324499Y-118363348D01*
X121324499Y-118529054D01*
X121324498Y-118529054D01*
X121324499Y-118529057D01*
X121365423Y-118681785D01*
X121365424Y-118681787D01*
X121365423Y-118681787D01*
X121371512Y-118692332D01*
X121371513Y-118692333D01*
X121444477Y-118818712D01*
X121444481Y-118818717D01*
X121563349Y-118937585D01*
X121563355Y-118937590D01*
X122690425Y-120064660D01*
X122723910Y-120125983D01*
X122724361Y-120128149D01*
X122755261Y-120283491D01*
X122755264Y-120283501D01*
X122815602Y-120429172D01*
X122815609Y-120429185D01*
X122903210Y-120560288D01*
X122903213Y-120560292D01*
X123014707Y-120671786D01*
X123014711Y-120671789D01*
X123145814Y-120759390D01*
X123145827Y-120759397D01*
X123291498Y-120819735D01*
X123291503Y-120819737D01*
X123446153Y-120850499D01*
X123446156Y-120850500D01*
X123446158Y-120850500D01*
X123603844Y-120850500D01*
X123603845Y-120850499D01*
X123758497Y-120819737D01*
X123904179Y-120759394D01*
X124035289Y-120671789D01*
X124146789Y-120560289D01*
X124234394Y-120429179D01*
X124294737Y-120283497D01*
X124325500Y-120128842D01*
X124325500Y-119971158D01*
X124325500Y-119971155D01*
X124325499Y-119971153D01*
X124294738Y-119816510D01*
X124294737Y-119816503D01*
X124294735Y-119816498D01*
X124234397Y-119670827D01*
X124234390Y-119670814D01*
X124146789Y-119539711D01*
X124146786Y-119539707D01*
X124035292Y-119428213D01*
X124035288Y-119428210D01*
X123904185Y-119340609D01*
X123904172Y-119340602D01*
X123758501Y-119280264D01*
X123758491Y-119280261D01*
X123603151Y-119249362D01*
X123541241Y-119216977D01*
X123539662Y-119215426D01*
X122561819Y-118237583D01*
X122528334Y-118176260D01*
X122525500Y-118149902D01*
X122525500Y-112029765D01*
X122545185Y-111962726D01*
X122546398Y-111960874D01*
X122634390Y-111829185D01*
X122634390Y-111829184D01*
X122634394Y-111829179D01*
X122694737Y-111683497D01*
X122725500Y-111528842D01*
X122725500Y-111371158D01*
X122725500Y-111371155D01*
X122725499Y-111371153D01*
X122716848Y-111327664D01*
X122694737Y-111216503D01*
X122693059Y-111212452D01*
X122634397Y-111070827D01*
X122634390Y-111070814D01*
X122546789Y-110939711D01*
X122546786Y-110939707D01*
X122435292Y-110828213D01*
X122435288Y-110828210D01*
X122304185Y-110740609D01*
X122304172Y-110740602D01*
X122158501Y-110680264D01*
X122158489Y-110680261D01*
X122003845Y-110649500D01*
X122003842Y-110649500D01*
X121846158Y-110649500D01*
X121846155Y-110649500D01*
X121691510Y-110680261D01*
X121691498Y-110680264D01*
X121545827Y-110740602D01*
X121545814Y-110740609D01*
X121414711Y-110828210D01*
X121414707Y-110828213D01*
X121303213Y-110939707D01*
X121303210Y-110939711D01*
X121215609Y-111070814D01*
X121215602Y-111070827D01*
X121164061Y-111195261D01*
X121120220Y-111249665D01*
X121053926Y-111271730D01*
X120986227Y-111254451D01*
X120938616Y-111203314D01*
X120925500Y-111147809D01*
X120925500Y-103471153D01*
X122224500Y-103471153D01*
X122224500Y-103628846D01*
X122255261Y-103783489D01*
X122255264Y-103783501D01*
X122315602Y-103929172D01*
X122315609Y-103929185D01*
X122403602Y-104060874D01*
X122424480Y-104127551D01*
X122424500Y-104129765D01*
X122424500Y-105170234D01*
X122404815Y-105237273D01*
X122403602Y-105239125D01*
X122315609Y-105370814D01*
X122315602Y-105370827D01*
X122255264Y-105516498D01*
X122255261Y-105516510D01*
X122224500Y-105671153D01*
X122224500Y-105828846D01*
X122255261Y-105983489D01*
X122255264Y-105983501D01*
X122315602Y-106129172D01*
X122315609Y-106129185D01*
X122403210Y-106260288D01*
X122403213Y-106260292D01*
X122514707Y-106371786D01*
X122514711Y-106371789D01*
X122645814Y-106459390D01*
X122645827Y-106459397D01*
X122791498Y-106519735D01*
X122791503Y-106519737D01*
X122946153Y-106550499D01*
X122946156Y-106550500D01*
X122946158Y-106550500D01*
X123103844Y-106550500D01*
X123103845Y-106550499D01*
X123258497Y-106519737D01*
X123404179Y-106459394D01*
X123535289Y-106371789D01*
X123646789Y-106260289D01*
X123734394Y-106129179D01*
X123794737Y-105983497D01*
X123825500Y-105828842D01*
X123825500Y-105671158D01*
X123825500Y-105671155D01*
X123825499Y-105671153D01*
X123805543Y-105570827D01*
X123794737Y-105516503D01*
X123762929Y-105439711D01*
X123734397Y-105370827D01*
X123734390Y-105370814D01*
X123646398Y-105239125D01*
X123625520Y-105172447D01*
X123625500Y-105170234D01*
X123625500Y-104129765D01*
X123645185Y-104062726D01*
X123646398Y-104060874D01*
X123734390Y-103929185D01*
X123734390Y-103929184D01*
X123734394Y-103929179D01*
X123794737Y-103783497D01*
X123825500Y-103628842D01*
X123825500Y-103471158D01*
X123825500Y-103471155D01*
X123825499Y-103471153D01*
X123821754Y-103452328D01*
X123794737Y-103316503D01*
X123770452Y-103257873D01*
X123734397Y-103170827D01*
X123734390Y-103170814D01*
X123646789Y-103039711D01*
X123646786Y-103039707D01*
X123535292Y-102928213D01*
X123535288Y-102928210D01*
X123404185Y-102840609D01*
X123404172Y-102840602D01*
X123258501Y-102780264D01*
X123258489Y-102780261D01*
X123103845Y-102749500D01*
X123103842Y-102749500D01*
X122946158Y-102749500D01*
X122946155Y-102749500D01*
X122791510Y-102780261D01*
X122791498Y-102780264D01*
X122645827Y-102840602D01*
X122645814Y-102840609D01*
X122514711Y-102928210D01*
X122514707Y-102928213D01*
X122403213Y-103039707D01*
X122403210Y-103039711D01*
X122315609Y-103170814D01*
X122315602Y-103170827D01*
X122255264Y-103316498D01*
X122255261Y-103316510D01*
X122224500Y-103471153D01*
X120925500Y-103471153D01*
X120925500Y-77853750D01*
X120925726Y-77846264D01*
X120926581Y-77832125D01*
X120938502Y-77635046D01*
X120962197Y-77569321D01*
X121017667Y-77526837D01*
X121087300Y-77521087D01*
X121148987Y-77553896D01*
X121149956Y-77554855D01*
X121356712Y-77761611D01*
X122081300Y-77037023D01*
X122104106Y-77122133D01*
X122163349Y-77224745D01*
X122247133Y-77308529D01*
X122349745Y-77367772D01*
X122434854Y-77390577D01*
X121710266Y-78115165D01*
X122203706Y-78608605D01*
X122250341Y-78646185D01*
X122381120Y-78705911D01*
X122381125Y-78705912D01*
X122523439Y-78726372D01*
X122665752Y-78705912D01*
X122665753Y-78705912D01*
X122743477Y-78670416D01*
X122812636Y-78660472D01*
X122876192Y-78689496D01*
X122913967Y-78748274D01*
X122918990Y-78783210D01*
X122918990Y-78854711D01*
X122953475Y-79072442D01*
X123021593Y-79282093D01*
X123021594Y-79282096D01*
X123121677Y-79478515D01*
X123251242Y-79656848D01*
X123251246Y-79656853D01*
X123407126Y-79812733D01*
X123407131Y-79812737D01*
X123562682Y-79925750D01*
X123585468Y-79942305D01*
X123713865Y-80007727D01*
X123781883Y-80042385D01*
X123781886Y-80042386D01*
X123886711Y-80076445D01*
X123991539Y-80110505D01*
X124209268Y-80144990D01*
X124209269Y-80144990D01*
X124429711Y-80144990D01*
X124429712Y-80144990D01*
X124647441Y-80110505D01*
X124857096Y-80042385D01*
X125053512Y-79942305D01*
X125231855Y-79812732D01*
X125387732Y-79656855D01*
X125517305Y-79478512D01*
X125617385Y-79282096D01*
X125685505Y-79072441D01*
X125719990Y-78854712D01*
X125719990Y-78634268D01*
X125685505Y-78416539D01*
X125617385Y-78206884D01*
X125617385Y-78206883D01*
X125570651Y-78115164D01*
X125517305Y-78010468D01*
X125500750Y-77987682D01*
X125387737Y-77832131D01*
X125387733Y-77832126D01*
X125231853Y-77676246D01*
X125231848Y-77676242D01*
X125053515Y-77546677D01*
X125053514Y-77546676D01*
X125053512Y-77546675D01*
X124990586Y-77514612D01*
X124857096Y-77446594D01*
X124857093Y-77446593D01*
X124647442Y-77378475D01*
X124538576Y-77361232D01*
X124429712Y-77343990D01*
X124358211Y-77343990D01*
X124291172Y-77324305D01*
X124245417Y-77271501D01*
X124235473Y-77202343D01*
X124245417Y-77168478D01*
X124280911Y-77090757D01*
X124280912Y-77090752D01*
X124301372Y-76948439D01*
X124280912Y-76806125D01*
X124280911Y-76806120D01*
X124221185Y-76675341D01*
X124183605Y-76628706D01*
X123690165Y-76135266D01*
X123690164Y-76135266D01*
X122965577Y-76859854D01*
X122942772Y-76774745D01*
X122883529Y-76672133D01*
X122799745Y-76588349D01*
X122697133Y-76529106D01*
X122612023Y-76506300D01*
X123336611Y-75781713D01*
X123336611Y-75781711D01*
X123129856Y-75574956D01*
X123120992Y-75558724D01*
X123108058Y-75545502D01*
X123104594Y-75528693D01*
X123096371Y-75513633D01*
X123097690Y-75495184D01*
X123093958Y-75477070D01*
X123100130Y-75461059D01*
X123101355Y-75443941D01*
X123112440Y-75429133D01*
X123119093Y-75411878D01*
X123132942Y-75401745D01*
X123143227Y-75388008D01*
X123160555Y-75381544D01*
X123175483Y-75370624D01*
X123207551Y-75364016D01*
X123208691Y-75363591D01*
X123209889Y-75363511D01*
X123405121Y-75351702D01*
X123421265Y-75350726D01*
X123428751Y-75350500D01*
X123490892Y-75350500D01*
X177359108Y-75350500D01*
X177421249Y-75350500D01*
X177428735Y-75350726D01*
G37*
%TD.AperFunction*%
%TA.AperFunction,Conductor*%
G36*
X149769075Y-133042993D02*
G01*
X149834901Y-133157007D01*
X149927993Y-133250099D01*
X150042007Y-133315925D01*
X150105590Y-133332962D01*
X149473282Y-133965269D01*
X149473282Y-133965270D01*
X149527449Y-134004624D01*
X149716782Y-134101095D01*
X149736706Y-134107569D01*
X149794381Y-134147006D01*
X149821580Y-134211365D01*
X149809665Y-134280211D01*
X149762421Y-134331687D01*
X149698388Y-134349500D01*
X148233226Y-134349500D01*
X148166187Y-134329815D01*
X148120432Y-134277011D01*
X148110488Y-134207853D01*
X148139513Y-134144297D01*
X148194906Y-134107569D01*
X148213412Y-134101557D01*
X148402816Y-134005051D01*
X148489138Y-133942335D01*
X148574786Y-133880109D01*
X148574788Y-133880106D01*
X148574792Y-133880104D01*
X148725104Y-133729792D01*
X148725106Y-133729788D01*
X148725109Y-133729786D01*
X148805063Y-133619737D01*
X148850051Y-133557816D01*
X148854793Y-133548508D01*
X148902763Y-133497711D01*
X148970583Y-133480911D01*
X149036719Y-133503445D01*
X149075763Y-133548500D01*
X149080373Y-133557547D01*
X149119728Y-133611716D01*
X149752037Y-132979408D01*
X149769075Y-133042993D01*
G37*
%TD.AperFunction*%
%TA.AperFunction,Conductor*%
G36*
X151350270Y-133611717D02*
G01*
X151350270Y-133611716D01*
X151389622Y-133557555D01*
X151394232Y-133548507D01*
X151442205Y-133497709D01*
X151510025Y-133480912D01*
X151576161Y-133503447D01*
X151615204Y-133548504D01*
X151619949Y-133557817D01*
X151744890Y-133729786D01*
X151895213Y-133880109D01*
X152067179Y-134005048D01*
X152067181Y-134005049D01*
X152067184Y-134005051D01*
X152256588Y-134101557D01*
X152275092Y-134107569D01*
X152332768Y-134147006D01*
X152359966Y-134211365D01*
X152348051Y-134280211D01*
X152300807Y-134331687D01*
X152236774Y-134349500D01*
X150771612Y-134349500D01*
X150704573Y-134329815D01*
X150658818Y-134277011D01*
X150648874Y-134207853D01*
X150677899Y-134144297D01*
X150733294Y-134107569D01*
X150753217Y-134101095D01*
X150942554Y-134004622D01*
X150996716Y-133965270D01*
X150996717Y-133965270D01*
X150364408Y-133332962D01*
X150427993Y-133315925D01*
X150542007Y-133250099D01*
X150635099Y-133157007D01*
X150700925Y-133042993D01*
X150717962Y-132979408D01*
X151350270Y-133611717D01*
G37*
%TD.AperFunction*%
%TA.AperFunction,Conductor*%
G36*
X179872427Y-93049496D02*
G01*
X179915617Y-93104417D01*
X179924500Y-93150504D01*
X179924500Y-131846249D01*
X179924274Y-131853735D01*
X179924274Y-131853736D01*
X179911498Y-132064950D01*
X179887801Y-132130679D01*
X179832331Y-132173162D01*
X179762698Y-132178911D01*
X179701011Y-132146102D01*
X179700043Y-132145144D01*
X179493287Y-131938388D01*
X179493286Y-131938388D01*
X178768699Y-132662976D01*
X178745894Y-132577867D01*
X178686651Y-132475255D01*
X178602867Y-132391471D01*
X178500255Y-132332228D01*
X178415145Y-132309422D01*
X179139733Y-131584834D01*
X178646293Y-131091394D01*
X178599658Y-131053814D01*
X178468879Y-130994088D01*
X178468874Y-130994087D01*
X178326561Y-130973627D01*
X178184247Y-130994087D01*
X178184242Y-130994088D01*
X178106522Y-131029583D01*
X178037363Y-131039527D01*
X177973807Y-131010502D01*
X177936033Y-130951724D01*
X177931010Y-130916789D01*
X177931010Y-130845288D01*
X177901189Y-130657007D01*
X177896525Y-130627559D01*
X177862465Y-130522731D01*
X177828406Y-130417906D01*
X177828405Y-130417903D01*
X177793747Y-130349885D01*
X177728325Y-130221488D01*
X177603726Y-130049991D01*
X177598757Y-130043151D01*
X177598753Y-130043146D01*
X177442873Y-129887266D01*
X177442868Y-129887262D01*
X177264535Y-129757697D01*
X177264534Y-129757696D01*
X177264532Y-129757695D01*
X177201606Y-129725632D01*
X177068116Y-129657614D01*
X177068113Y-129657613D01*
X176858462Y-129589495D01*
X176749596Y-129572252D01*
X176640732Y-129555010D01*
X176420288Y-129555010D01*
X176347711Y-129566505D01*
X176202557Y-129589495D01*
X175992906Y-129657613D01*
X175992903Y-129657614D01*
X175796484Y-129757697D01*
X175618151Y-129887262D01*
X175618146Y-129887266D01*
X175462266Y-130043146D01*
X175462262Y-130043151D01*
X175332697Y-130221484D01*
X175232614Y-130417903D01*
X175232613Y-130417906D01*
X175164495Y-130627557D01*
X175130010Y-130845288D01*
X175130010Y-131065732D01*
X175134075Y-131091398D01*
X175164495Y-131283462D01*
X175232613Y-131493113D01*
X175232614Y-131493116D01*
X175279348Y-131584834D01*
X175312561Y-131650018D01*
X175332697Y-131689535D01*
X175462262Y-131867868D01*
X175462266Y-131867873D01*
X175618146Y-132023753D01*
X175618151Y-132023757D01*
X175765318Y-132130679D01*
X175796488Y-132153325D01*
X175924470Y-132218536D01*
X175992903Y-132253405D01*
X175992906Y-132253406D01*
X176089566Y-132284812D01*
X176202559Y-132321525D01*
X176420288Y-132356010D01*
X176420289Y-132356010D01*
X176491789Y-132356010D01*
X176558828Y-132375695D01*
X176604583Y-132428499D01*
X176614527Y-132497657D01*
X176604583Y-132531522D01*
X176569088Y-132609242D01*
X176569087Y-132609247D01*
X176548627Y-132751561D01*
X176569087Y-132893874D01*
X176569088Y-132893879D01*
X176628814Y-133024658D01*
X176666394Y-133071293D01*
X177159834Y-133564733D01*
X177884422Y-132840145D01*
X177907228Y-132925255D01*
X177966471Y-133027867D01*
X178050255Y-133111651D01*
X178152867Y-133170894D01*
X178237976Y-133193699D01*
X177513388Y-133918286D01*
X177513388Y-133918288D01*
X177720143Y-134125043D01*
X177729006Y-134141274D01*
X177741940Y-134154496D01*
X177745403Y-134171303D01*
X177753628Y-134186366D01*
X177752308Y-134204814D01*
X177756041Y-134222928D01*
X177749868Y-134238938D01*
X177748644Y-134256058D01*
X177737559Y-134270864D01*
X177730907Y-134288120D01*
X177717056Y-134298253D01*
X177706772Y-134311991D01*
X177689444Y-134318453D01*
X177674517Y-134329375D01*
X177642446Y-134335983D01*
X177641308Y-134336408D01*
X177639949Y-134336498D01*
X177428736Y-134349274D01*
X177421249Y-134349500D01*
X156505103Y-134349500D01*
X156438064Y-134329815D01*
X156392309Y-134277011D01*
X156382365Y-134207853D01*
X156411390Y-134144297D01*
X156430792Y-134126234D01*
X156514997Y-134063197D01*
X156522546Y-134057546D01*
X156608796Y-133942331D01*
X156659091Y-133807483D01*
X156665500Y-133747873D01*
X156665499Y-131952128D01*
X156659091Y-131892517D01*
X156658471Y-131890856D01*
X156608797Y-131757671D01*
X156608793Y-131757664D01*
X156522547Y-131642455D01*
X156522544Y-131642452D01*
X156407335Y-131556206D01*
X156407328Y-131556202D01*
X156272482Y-131505908D01*
X156272483Y-131505908D01*
X156212883Y-131499501D01*
X156212881Y-131499500D01*
X156212873Y-131499500D01*
X156212864Y-131499500D01*
X154417129Y-131499500D01*
X154417123Y-131499501D01*
X154357516Y-131505908D01*
X154222671Y-131556202D01*
X154222664Y-131556206D01*
X154107455Y-131642452D01*
X154107452Y-131642455D01*
X154021206Y-131757664D01*
X154021203Y-131757669D01*
X153972189Y-131889083D01*
X153930317Y-131945016D01*
X153864853Y-131969433D01*
X153796580Y-131954581D01*
X153768326Y-131933430D01*
X153654786Y-131819890D01*
X153482820Y-131694951D01*
X153293414Y-131598444D01*
X153293413Y-131598443D01*
X153293412Y-131598443D01*
X153091243Y-131532754D01*
X153091241Y-131532753D01*
X153091240Y-131532753D01*
X152929957Y-131507208D01*
X152881287Y-131499500D01*
X152668713Y-131499500D01*
X152620042Y-131507208D01*
X152458760Y-131532753D01*
X152256585Y-131598444D01*
X152067179Y-131694951D01*
X151895213Y-131819890D01*
X151744890Y-131970213D01*
X151619949Y-132142182D01*
X151615202Y-132151499D01*
X151567227Y-132202293D01*
X151499405Y-132219087D01*
X151433271Y-132196548D01*
X151394234Y-132151495D01*
X151389626Y-132142452D01*
X151350270Y-132088282D01*
X151350269Y-132088282D01*
X150717962Y-132720590D01*
X150700925Y-132657007D01*
X150635099Y-132542993D01*
X150542007Y-132449901D01*
X150427993Y-132384075D01*
X150364409Y-132367037D01*
X150996716Y-131734728D01*
X150942550Y-131695375D01*
X150753217Y-131598904D01*
X150551129Y-131533242D01*
X150341246Y-131500000D01*
X150128754Y-131500000D01*
X149918872Y-131533242D01*
X149918869Y-131533242D01*
X149716782Y-131598904D01*
X149527439Y-131695380D01*
X149473282Y-131734727D01*
X149473282Y-131734728D01*
X150105591Y-132367037D01*
X150042007Y-132384075D01*
X149927993Y-132449901D01*
X149834901Y-132542993D01*
X149769075Y-132657007D01*
X149752037Y-132720591D01*
X149119728Y-132088282D01*
X149119727Y-132088282D01*
X149080380Y-132142440D01*
X149080376Y-132142446D01*
X149075760Y-132151505D01*
X149027781Y-132202297D01*
X148959959Y-132219087D01*
X148893826Y-132196543D01*
X148854794Y-132151493D01*
X148850051Y-132142184D01*
X148850049Y-132142181D01*
X148850048Y-132142179D01*
X148725109Y-131970213D01*
X148574786Y-131819890D01*
X148402815Y-131694948D01*
X148402814Y-131694947D01*
X148363205Y-131674765D01*
X148312409Y-131626791D01*
X148295500Y-131564281D01*
X148295500Y-130049983D01*
X159574500Y-130049983D01*
X159574500Y-131650001D01*
X159574501Y-131650018D01*
X159585000Y-131752796D01*
X159585001Y-131752799D01*
X159640185Y-131919331D01*
X159640187Y-131919336D01*
X159656027Y-131945016D01*
X159732288Y-132068656D01*
X159856344Y-132192712D01*
X160005666Y-132284814D01*
X160172203Y-132339999D01*
X160274991Y-132350500D01*
X161575008Y-132350499D01*
X161677797Y-132339999D01*
X161844334Y-132284814D01*
X161993656Y-132192712D01*
X162117712Y-132068656D01*
X162209814Y-131919334D01*
X162209814Y-131919331D01*
X162213448Y-131913441D01*
X162265395Y-131866716D01*
X162334358Y-131855493D01*
X162398440Y-131883336D01*
X162406668Y-131890856D01*
X162545535Y-132029723D01*
X162545540Y-132029727D01*
X162717442Y-132154620D01*
X162906782Y-132251095D01*
X163108871Y-132316757D01*
X163175000Y-132327231D01*
X163175000Y-131283012D01*
X163232007Y-131315925D01*
X163359174Y-131350000D01*
X163490826Y-131350000D01*
X163617993Y-131315925D01*
X163675000Y-131283012D01*
X163675000Y-132327230D01*
X163741126Y-132316757D01*
X163741129Y-132316757D01*
X163943217Y-132251095D01*
X164132557Y-132154620D01*
X164304459Y-132029727D01*
X164304464Y-132029723D01*
X164454723Y-131879464D01*
X164454727Y-131879459D01*
X164579620Y-131707557D01*
X164676095Y-131518217D01*
X164741757Y-131316130D01*
X164741757Y-131316127D01*
X164775000Y-131106246D01*
X164775000Y-131100000D01*
X163858012Y-131100000D01*
X163890925Y-131042993D01*
X163925000Y-130915826D01*
X163925000Y-130784174D01*
X163890925Y-130657007D01*
X163858012Y-130600000D01*
X164775000Y-130600000D01*
X164775000Y-130593753D01*
X164741757Y-130383872D01*
X164741757Y-130383869D01*
X164676095Y-130181782D01*
X164579620Y-129992442D01*
X164454727Y-129820540D01*
X164454723Y-129820535D01*
X164304464Y-129670276D01*
X164304459Y-129670272D01*
X164132557Y-129545379D01*
X163943215Y-129448903D01*
X163741124Y-129383241D01*
X163675000Y-129372768D01*
X163675000Y-130416988D01*
X163617993Y-130384075D01*
X163490826Y-130350000D01*
X163359174Y-130350000D01*
X163232007Y-130384075D01*
X163175000Y-130416988D01*
X163175000Y-129372768D01*
X163174999Y-129372768D01*
X163108875Y-129383241D01*
X162906784Y-129448903D01*
X162717442Y-129545379D01*
X162545541Y-129670271D01*
X162406668Y-129809144D01*
X162345345Y-129842628D01*
X162275653Y-129837644D01*
X162219720Y-129795772D01*
X162213448Y-129786558D01*
X162117712Y-129631344D01*
X161993657Y-129507289D01*
X161993656Y-129507288D01*
X161844334Y-129415186D01*
X161677797Y-129360001D01*
X161677795Y-129360000D01*
X161575010Y-129349500D01*
X160274998Y-129349500D01*
X160274981Y-129349501D01*
X160172203Y-129360000D01*
X160172200Y-129360001D01*
X160005668Y-129415185D01*
X160005663Y-129415187D01*
X159856342Y-129507289D01*
X159732289Y-129631342D01*
X159640187Y-129780663D01*
X159640185Y-129780668D01*
X159635180Y-129795772D01*
X159585001Y-129947203D01*
X159585001Y-129947204D01*
X159585000Y-129947204D01*
X159574500Y-130049983D01*
X148295500Y-130049983D01*
X148295500Y-126709059D01*
X148295501Y-126709046D01*
X148295501Y-126540945D01*
X148295501Y-126540943D01*
X148254577Y-126388215D01*
X148225639Y-126338095D01*
X148175520Y-126251284D01*
X148063716Y-126139480D01*
X148063715Y-126139479D01*
X148059385Y-126135149D01*
X148059374Y-126135139D01*
X141028147Y-119103912D01*
X140994662Y-119042589D01*
X140999646Y-118972897D01*
X141041518Y-118916964D01*
X141106982Y-118892547D01*
X141154146Y-118898300D01*
X141207164Y-118915526D01*
X141424819Y-118950000D01*
X141645181Y-118950000D01*
X141862835Y-118915526D01*
X142072410Y-118847432D01*
X142268760Y-118747386D01*
X142332513Y-118701066D01*
X142332514Y-118701066D01*
X141623584Y-117992138D01*
X141708694Y-117969333D01*
X141811306Y-117910090D01*
X141895090Y-117826306D01*
X141954333Y-117723694D01*
X141977138Y-117638585D01*
X142638181Y-118299628D01*
X142671666Y-118360951D01*
X142674500Y-118387308D01*
X142674500Y-118497869D01*
X142674501Y-118497876D01*
X142680908Y-118557483D01*
X142731202Y-118692328D01*
X142731205Y-118692333D01*
X142817452Y-118807544D01*
X142817455Y-118807547D01*
X142932664Y-118893793D01*
X142932671Y-118893797D01*
X143067517Y-118944091D01*
X143067516Y-118944091D01*
X143074444Y-118944835D01*
X143127127Y-118950500D01*
X145022872Y-118950499D01*
X145082483Y-118944091D01*
X145217331Y-118893796D01*
X145270689Y-118853851D01*
X145336153Y-118829435D01*
X145404426Y-118844286D01*
X145419311Y-118853852D01*
X145472669Y-118893796D01*
X145472671Y-118893797D01*
X145607517Y-118944091D01*
X145607516Y-118944091D01*
X145614444Y-118944835D01*
X145667127Y-118950500D01*
X147562872Y-118950499D01*
X147622483Y-118944091D01*
X147757331Y-118893796D01*
X147872546Y-118807546D01*
X147958796Y-118692331D01*
X148009091Y-118557483D01*
X148015500Y-118497873D01*
X148015499Y-118387304D01*
X148035183Y-118320268D01*
X148051818Y-118299626D01*
X148712861Y-117638584D01*
X148735667Y-117723694D01*
X148794910Y-117826306D01*
X148878694Y-117910090D01*
X148981306Y-117969333D01*
X149066413Y-117992137D01*
X148357485Y-118701065D01*
X148357485Y-118701066D01*
X148421243Y-118747388D01*
X148617589Y-118847432D01*
X148827164Y-118915526D01*
X149044819Y-118950000D01*
X149265181Y-118950000D01*
X149482832Y-118915527D01*
X149562181Y-118889745D01*
X149632022Y-118887750D01*
X149691855Y-118923830D01*
X149722684Y-118986530D01*
X149724500Y-119007676D01*
X149724500Y-124124684D01*
X149715061Y-124172136D01*
X149655264Y-124316498D01*
X149655261Y-124316510D01*
X149624500Y-124471153D01*
X149624500Y-124628846D01*
X149655261Y-124783489D01*
X149655264Y-124783501D01*
X149715602Y-124929172D01*
X149715609Y-124929185D01*
X149803210Y-125060288D01*
X149803213Y-125060292D01*
X149914707Y-125171786D01*
X149914711Y-125171789D01*
X150045814Y-125259390D01*
X150045827Y-125259397D01*
X150191498Y-125319735D01*
X150191503Y-125319737D01*
X150346153Y-125350499D01*
X150346156Y-125350500D01*
X150346158Y-125350500D01*
X150503844Y-125350500D01*
X150503845Y-125350499D01*
X150658497Y-125319737D01*
X150804179Y-125259394D01*
X150935289Y-125171789D01*
X151046789Y-125060289D01*
X151134394Y-124929179D01*
X151194737Y-124783497D01*
X151225500Y-124628842D01*
X151225500Y-124471158D01*
X151225500Y-124471155D01*
X151225499Y-124471153D01*
X151194738Y-124316510D01*
X151194737Y-124316503D01*
X151134939Y-124172136D01*
X151125500Y-124124684D01*
X151125500Y-119007676D01*
X151145185Y-118940637D01*
X151197989Y-118894882D01*
X151267147Y-118884938D01*
X151287819Y-118889745D01*
X151367167Y-118915527D01*
X151584819Y-118950000D01*
X151805181Y-118950000D01*
X152022835Y-118915526D01*
X152232410Y-118847432D01*
X152428760Y-118747386D01*
X152492513Y-118701066D01*
X152492514Y-118701066D01*
X151783585Y-117992137D01*
X151868694Y-117969333D01*
X151971306Y-117910090D01*
X152055090Y-117826306D01*
X152114333Y-117723694D01*
X152137138Y-117638585D01*
X152798181Y-118299628D01*
X152831666Y-118360951D01*
X152834500Y-118387308D01*
X152834500Y-118497869D01*
X152834501Y-118497876D01*
X152840908Y-118557483D01*
X152891202Y-118692328D01*
X152891205Y-118692333D01*
X152977452Y-118807544D01*
X152977455Y-118807547D01*
X153092664Y-118893793D01*
X153092671Y-118893797D01*
X153227517Y-118944091D01*
X153227516Y-118944091D01*
X153234444Y-118944835D01*
X153287127Y-118950500D01*
X155182872Y-118950499D01*
X155242483Y-118944091D01*
X155377331Y-118893796D01*
X155430689Y-118853851D01*
X155496153Y-118829435D01*
X155564426Y-118844286D01*
X155579311Y-118853852D01*
X155632669Y-118893796D01*
X155632671Y-118893797D01*
X155767517Y-118944091D01*
X155767516Y-118944091D01*
X155774444Y-118944835D01*
X155827127Y-118950500D01*
X157722872Y-118950499D01*
X157782483Y-118944091D01*
X157917331Y-118893796D01*
X158032546Y-118807546D01*
X158118796Y-118692331D01*
X158169091Y-118557483D01*
X158175500Y-118497873D01*
X158175499Y-118387304D01*
X158195183Y-118320268D01*
X158211818Y-118299626D01*
X158872861Y-117638584D01*
X158895667Y-117723694D01*
X158954910Y-117826306D01*
X159038694Y-117910090D01*
X159141306Y-117969333D01*
X159226414Y-117992137D01*
X158517485Y-118701065D01*
X158517485Y-118701066D01*
X158581243Y-118747388D01*
X158777589Y-118847432D01*
X158987164Y-118915526D01*
X159204819Y-118950000D01*
X159425181Y-118950000D01*
X159642835Y-118915526D01*
X159852410Y-118847432D01*
X160048760Y-118747386D01*
X160112513Y-118701066D01*
X160112514Y-118701066D01*
X159403585Y-117992138D01*
X159488694Y-117969333D01*
X159591306Y-117910090D01*
X159675090Y-117826306D01*
X159734333Y-117723694D01*
X159757137Y-117638585D01*
X160466066Y-118347514D01*
X160466066Y-118347513D01*
X160512386Y-118283760D01*
X160612432Y-118087410D01*
X160680526Y-117877835D01*
X160715000Y-117660181D01*
X160715000Y-117439818D01*
X160680526Y-117222164D01*
X160612432Y-117012589D01*
X160512388Y-116816243D01*
X160466066Y-116752485D01*
X160466065Y-116752485D01*
X159757137Y-117461413D01*
X159734333Y-117376306D01*
X159675090Y-117273694D01*
X159591306Y-117189910D01*
X159488694Y-117130667D01*
X159403583Y-117107861D01*
X160112513Y-116398932D01*
X160048756Y-116352611D01*
X159852410Y-116252567D01*
X159642835Y-116184473D01*
X159425181Y-116150000D01*
X159204819Y-116150000D01*
X158987164Y-116184473D01*
X158777589Y-116252567D01*
X158581233Y-116352616D01*
X158517485Y-116398931D01*
X158517485Y-116398932D01*
X159226414Y-117107861D01*
X159141306Y-117130667D01*
X159038694Y-117189910D01*
X158954910Y-117273694D01*
X158895667Y-117376306D01*
X158872861Y-117461414D01*
X158211818Y-116800371D01*
X158178333Y-116739048D01*
X158175499Y-116712690D01*
X158175499Y-116602129D01*
X158175498Y-116602123D01*
X158175497Y-116602116D01*
X158169091Y-116542517D01*
X158118796Y-116407669D01*
X158118795Y-116407668D01*
X158118793Y-116407664D01*
X158032547Y-116292455D01*
X158032544Y-116292452D01*
X157917335Y-116206206D01*
X157917328Y-116206202D01*
X157782482Y-116155908D01*
X157782483Y-116155908D01*
X157722883Y-116149501D01*
X157722881Y-116149500D01*
X157722873Y-116149500D01*
X157722864Y-116149500D01*
X155827129Y-116149500D01*
X155827123Y-116149501D01*
X155767516Y-116155908D01*
X155632671Y-116206202D01*
X155632669Y-116206203D01*
X155579311Y-116246148D01*
X155513847Y-116270565D01*
X155445574Y-116255714D01*
X155430689Y-116246148D01*
X155377330Y-116206203D01*
X155377328Y-116206202D01*
X155242482Y-116155908D01*
X155242483Y-116155908D01*
X155182883Y-116149501D01*
X155182881Y-116149500D01*
X155182873Y-116149500D01*
X155182864Y-116149500D01*
X153287129Y-116149500D01*
X153287123Y-116149501D01*
X153227516Y-116155908D01*
X153092671Y-116206202D01*
X153092664Y-116206206D01*
X152977455Y-116292452D01*
X152977452Y-116292455D01*
X152891206Y-116407664D01*
X152891202Y-116407671D01*
X152840908Y-116542517D01*
X152834501Y-116602116D01*
X152834501Y-116602123D01*
X152834500Y-116602135D01*
X152834500Y-116712691D01*
X152814815Y-116779730D01*
X152798181Y-116800372D01*
X152137138Y-117461414D01*
X152114333Y-117376306D01*
X152055090Y-117273694D01*
X151971306Y-117189910D01*
X151868694Y-117130667D01*
X151783584Y-117107861D01*
X152492513Y-116398932D01*
X152428756Y-116352611D01*
X152232410Y-116252567D01*
X152022835Y-116184473D01*
X151805181Y-116150000D01*
X151584819Y-116150000D01*
X151367164Y-116184473D01*
X151287818Y-116210254D01*
X151217976Y-116212249D01*
X151158144Y-116176168D01*
X151127316Y-116113467D01*
X151125500Y-116092323D01*
X151125500Y-113927676D01*
X151145185Y-113860637D01*
X151197989Y-113814882D01*
X151267147Y-113804938D01*
X151287819Y-113809745D01*
X151367167Y-113835527D01*
X151584819Y-113870000D01*
X151805181Y-113870000D01*
X152022835Y-113835526D01*
X152232410Y-113767432D01*
X152428760Y-113667386D01*
X152492513Y-113621066D01*
X152492514Y-113621066D01*
X151783585Y-112912137D01*
X151868694Y-112889333D01*
X151971306Y-112830090D01*
X152055090Y-112746306D01*
X152114333Y-112643694D01*
X152137138Y-112558585D01*
X152798181Y-113219628D01*
X152831666Y-113280951D01*
X152834500Y-113307308D01*
X152834500Y-113417869D01*
X152834501Y-113417876D01*
X152840908Y-113477483D01*
X152891202Y-113612328D01*
X152891206Y-113612335D01*
X152977452Y-113727544D01*
X152977455Y-113727547D01*
X153092664Y-113813793D01*
X153092671Y-113813797D01*
X153227517Y-113864091D01*
X153227516Y-113864091D01*
X153234444Y-113864835D01*
X153287127Y-113870500D01*
X155182872Y-113870499D01*
X155242483Y-113864091D01*
X155377331Y-113813796D01*
X155430689Y-113773851D01*
X155496153Y-113749435D01*
X155564426Y-113764286D01*
X155579311Y-113773852D01*
X155632669Y-113813796D01*
X155632671Y-113813797D01*
X155767517Y-113864091D01*
X155767516Y-113864091D01*
X155774444Y-113864835D01*
X155827127Y-113870500D01*
X157722872Y-113870499D01*
X157782483Y-113864091D01*
X157917331Y-113813796D01*
X158032546Y-113727546D01*
X158118796Y-113612331D01*
X158169091Y-113477483D01*
X158175500Y-113417873D01*
X158175499Y-113307304D01*
X158195183Y-113240268D01*
X158211818Y-113219626D01*
X158872861Y-112558584D01*
X158895667Y-112643694D01*
X158954910Y-112746306D01*
X159038694Y-112830090D01*
X159141306Y-112889333D01*
X159226414Y-112912137D01*
X158517485Y-113621065D01*
X158517485Y-113621066D01*
X158581243Y-113667388D01*
X158777589Y-113767432D01*
X158987164Y-113835526D01*
X159204819Y-113870000D01*
X159425181Y-113870000D01*
X159642835Y-113835526D01*
X159852410Y-113767432D01*
X160048760Y-113667386D01*
X160112513Y-113621066D01*
X160112514Y-113621066D01*
X159403585Y-112912138D01*
X159488694Y-112889333D01*
X159591306Y-112830090D01*
X159675090Y-112746306D01*
X159734333Y-112643694D01*
X159757137Y-112558585D01*
X160466065Y-113267513D01*
X160484680Y-113241893D01*
X160540010Y-113199227D01*
X160609623Y-113193248D01*
X160671419Y-113225853D01*
X160685317Y-113241893D01*
X160703931Y-113267513D01*
X160703932Y-113267513D01*
X161412861Y-112558584D01*
X161435667Y-112643694D01*
X161494910Y-112746306D01*
X161578694Y-112830090D01*
X161681306Y-112889333D01*
X161766414Y-112912137D01*
X161057485Y-113621065D01*
X161057485Y-113621066D01*
X161121243Y-113667388D01*
X161317589Y-113767432D01*
X161527164Y-113835526D01*
X161744819Y-113870000D01*
X161965181Y-113870000D01*
X162182835Y-113835526D01*
X162392410Y-113767432D01*
X162588760Y-113667386D01*
X162652513Y-113621066D01*
X162652514Y-113621066D01*
X161943585Y-112912138D01*
X162028694Y-112889333D01*
X162131306Y-112830090D01*
X162215090Y-112746306D01*
X162274333Y-112643694D01*
X162297138Y-112558585D01*
X162958181Y-113219628D01*
X162991666Y-113280951D01*
X162994500Y-113307308D01*
X162994500Y-113417869D01*
X162994501Y-113417876D01*
X163000908Y-113477483D01*
X163051202Y-113612328D01*
X163051206Y-113612335D01*
X163137452Y-113727544D01*
X163137455Y-113727547D01*
X163252664Y-113813793D01*
X163252671Y-113813797D01*
X163387517Y-113864091D01*
X163387516Y-113864091D01*
X163394444Y-113864835D01*
X163447127Y-113870500D01*
X165342872Y-113870499D01*
X165402483Y-113864091D01*
X165537331Y-113813796D01*
X165652546Y-113727546D01*
X165738796Y-113612331D01*
X165789091Y-113477483D01*
X165795500Y-113417873D01*
X165795499Y-111522128D01*
X165789091Y-111462517D01*
X165755016Y-111371158D01*
X165738797Y-111327671D01*
X165738793Y-111327664D01*
X165652547Y-111212455D01*
X165652544Y-111212452D01*
X165537335Y-111126206D01*
X165537328Y-111126202D01*
X165402482Y-111075908D01*
X165402483Y-111075908D01*
X165342883Y-111069501D01*
X165342881Y-111069500D01*
X165342873Y-111069500D01*
X165342864Y-111069500D01*
X163447129Y-111069500D01*
X163447123Y-111069501D01*
X163387516Y-111075908D01*
X163252671Y-111126202D01*
X163252664Y-111126206D01*
X163137455Y-111212452D01*
X163137452Y-111212455D01*
X163051206Y-111327664D01*
X163051202Y-111327671D01*
X163000908Y-111462517D01*
X162994501Y-111522116D01*
X162994501Y-111522123D01*
X162994500Y-111522135D01*
X162994500Y-111632691D01*
X162974815Y-111699730D01*
X162958181Y-111720372D01*
X162297138Y-112381414D01*
X162274333Y-112296306D01*
X162215090Y-112193694D01*
X162131306Y-112109910D01*
X162028694Y-112050667D01*
X161943583Y-112027861D01*
X162652513Y-111318932D01*
X162588756Y-111272611D01*
X162392410Y-111172567D01*
X162182835Y-111104473D01*
X161965181Y-111070000D01*
X161744819Y-111070000D01*
X161527164Y-111104473D01*
X161317589Y-111172567D01*
X161121233Y-111272616D01*
X161057485Y-111318931D01*
X161057485Y-111318932D01*
X161766414Y-112027861D01*
X161681306Y-112050667D01*
X161578694Y-112109910D01*
X161494910Y-112193694D01*
X161435667Y-112296306D01*
X161412861Y-112381414D01*
X160703932Y-111672485D01*
X160703930Y-111672485D01*
X160685317Y-111698105D01*
X160629988Y-111740771D01*
X160560374Y-111746750D01*
X160498579Y-111714145D01*
X160484681Y-111698105D01*
X160466067Y-111672485D01*
X160466065Y-111672485D01*
X159757137Y-112381413D01*
X159734333Y-112296306D01*
X159675090Y-112193694D01*
X159591306Y-112109910D01*
X159488694Y-112050667D01*
X159403583Y-112027861D01*
X160112513Y-111318932D01*
X160048756Y-111272611D01*
X159852410Y-111172567D01*
X159642835Y-111104473D01*
X159425181Y-111070000D01*
X159204819Y-111070000D01*
X158987164Y-111104473D01*
X158777589Y-111172567D01*
X158581233Y-111272616D01*
X158517485Y-111318931D01*
X158517485Y-111318932D01*
X159226414Y-112027861D01*
X159141306Y-112050667D01*
X159038694Y-112109910D01*
X158954910Y-112193694D01*
X158895667Y-112296306D01*
X158872861Y-112381414D01*
X158211818Y-111720371D01*
X158178333Y-111659048D01*
X158175499Y-111632690D01*
X158175499Y-111522129D01*
X158175498Y-111522123D01*
X158175497Y-111522116D01*
X158169091Y-111462517D01*
X158135015Y-111371155D01*
X158118797Y-111327671D01*
X158118793Y-111327664D01*
X158032547Y-111212455D01*
X158032544Y-111212452D01*
X157917335Y-111126206D01*
X157917328Y-111126202D01*
X157782482Y-111075908D01*
X157782483Y-111075908D01*
X157722883Y-111069501D01*
X157722881Y-111069500D01*
X157722873Y-111069500D01*
X157722864Y-111069500D01*
X155827129Y-111069500D01*
X155827123Y-111069501D01*
X155767516Y-111075908D01*
X155632671Y-111126202D01*
X155632669Y-111126203D01*
X155579311Y-111166148D01*
X155513847Y-111190565D01*
X155445574Y-111175714D01*
X155430689Y-111166148D01*
X155422862Y-111160289D01*
X155395374Y-111139711D01*
X155377330Y-111126203D01*
X155377328Y-111126202D01*
X155242482Y-111075908D01*
X155242483Y-111075908D01*
X155182883Y-111069501D01*
X155182881Y-111069500D01*
X155182873Y-111069500D01*
X155182864Y-111069500D01*
X153287129Y-111069500D01*
X153287123Y-111069501D01*
X153227516Y-111075908D01*
X153092671Y-111126202D01*
X153092664Y-111126206D01*
X152977455Y-111212452D01*
X152977452Y-111212455D01*
X152891206Y-111327664D01*
X152891202Y-111327671D01*
X152840908Y-111462517D01*
X152834501Y-111522116D01*
X152834501Y-111522123D01*
X152834500Y-111522135D01*
X152834500Y-111632691D01*
X152814815Y-111699730D01*
X152798181Y-111720372D01*
X152137138Y-112381414D01*
X152114333Y-112296306D01*
X152055090Y-112193694D01*
X151971306Y-112109910D01*
X151868694Y-112050667D01*
X151783584Y-112027861D01*
X152492513Y-111318932D01*
X152428756Y-111272611D01*
X152232410Y-111172567D01*
X152022835Y-111104473D01*
X151805181Y-111070000D01*
X151584819Y-111070000D01*
X151367164Y-111104473D01*
X151287818Y-111130254D01*
X151217976Y-111132249D01*
X151158144Y-111096168D01*
X151127316Y-111033467D01*
X151125500Y-111012323D01*
X151125500Y-108847676D01*
X151145185Y-108780637D01*
X151197989Y-108734882D01*
X151267147Y-108724938D01*
X151287819Y-108729745D01*
X151367167Y-108755527D01*
X151584819Y-108790000D01*
X151805181Y-108790000D01*
X152022835Y-108755526D01*
X152232410Y-108687432D01*
X152428760Y-108587386D01*
X152492513Y-108541066D01*
X152492514Y-108541066D01*
X151783585Y-107832137D01*
X151868694Y-107809333D01*
X151971306Y-107750090D01*
X152055090Y-107666306D01*
X152114333Y-107563694D01*
X152137138Y-107478585D01*
X152798181Y-108139628D01*
X152831666Y-108200951D01*
X152834500Y-108227308D01*
X152834500Y-108337869D01*
X152834501Y-108337876D01*
X152840908Y-108397483D01*
X152891202Y-108532328D01*
X152891206Y-108532335D01*
X152977452Y-108647544D01*
X152977455Y-108647547D01*
X153092664Y-108733793D01*
X153092671Y-108733797D01*
X153227517Y-108784091D01*
X153227516Y-108784091D01*
X153234444Y-108784835D01*
X153287127Y-108790500D01*
X155182872Y-108790499D01*
X155242483Y-108784091D01*
X155377331Y-108733796D01*
X155430689Y-108693851D01*
X155496153Y-108669435D01*
X155564426Y-108684286D01*
X155579311Y-108693852D01*
X155632669Y-108733796D01*
X155632671Y-108733797D01*
X155767517Y-108784091D01*
X155767516Y-108784091D01*
X155774444Y-108784835D01*
X155827127Y-108790500D01*
X157722872Y-108790499D01*
X157782483Y-108784091D01*
X157917331Y-108733796D01*
X158032546Y-108647546D01*
X158118796Y-108532331D01*
X158169091Y-108397483D01*
X158175500Y-108337873D01*
X158175499Y-108227304D01*
X158195183Y-108160268D01*
X158211818Y-108139626D01*
X158872861Y-107478584D01*
X158895667Y-107563694D01*
X158954910Y-107666306D01*
X159038694Y-107750090D01*
X159141306Y-107809333D01*
X159226414Y-107832137D01*
X158517485Y-108541065D01*
X158517485Y-108541066D01*
X158581243Y-108587388D01*
X158777589Y-108687432D01*
X158987164Y-108755526D01*
X159204819Y-108790000D01*
X159425181Y-108790000D01*
X159642835Y-108755526D01*
X159852410Y-108687432D01*
X160048760Y-108587386D01*
X160112513Y-108541066D01*
X160112514Y-108541066D01*
X159403585Y-107832138D01*
X159488694Y-107809333D01*
X159591306Y-107750090D01*
X159675090Y-107666306D01*
X159734333Y-107563694D01*
X159757137Y-107478585D01*
X160466065Y-108187513D01*
X160484680Y-108161893D01*
X160540010Y-108119227D01*
X160609623Y-108113248D01*
X160671419Y-108145853D01*
X160685317Y-108161893D01*
X160703931Y-108187513D01*
X160703932Y-108187513D01*
X161412861Y-107478584D01*
X161435667Y-107563694D01*
X161494910Y-107666306D01*
X161578694Y-107750090D01*
X161681306Y-107809333D01*
X161766414Y-107832137D01*
X161057485Y-108541065D01*
X161057485Y-108541066D01*
X161121243Y-108587388D01*
X161317589Y-108687432D01*
X161527164Y-108755526D01*
X161744819Y-108790000D01*
X161965181Y-108790000D01*
X162182835Y-108755526D01*
X162392410Y-108687432D01*
X162588760Y-108587386D01*
X162652513Y-108541066D01*
X162652514Y-108541066D01*
X161943585Y-107832138D01*
X162028694Y-107809333D01*
X162131306Y-107750090D01*
X162215090Y-107666306D01*
X162274333Y-107563694D01*
X162297138Y-107478585D01*
X162958181Y-108139628D01*
X162991666Y-108200951D01*
X162994500Y-108227308D01*
X162994500Y-108337869D01*
X162994501Y-108337876D01*
X163000908Y-108397483D01*
X163051202Y-108532328D01*
X163051206Y-108532335D01*
X163137452Y-108647544D01*
X163137455Y-108647547D01*
X163252664Y-108733793D01*
X163252671Y-108733797D01*
X163387517Y-108784091D01*
X163387516Y-108784091D01*
X163394444Y-108784835D01*
X163447127Y-108790500D01*
X165342872Y-108790499D01*
X165402483Y-108784091D01*
X165537331Y-108733796D01*
X165652546Y-108647546D01*
X165738796Y-108532331D01*
X165789091Y-108397483D01*
X165795500Y-108337873D01*
X165795499Y-106442128D01*
X165789091Y-106382517D01*
X165740784Y-106253000D01*
X165738797Y-106247671D01*
X165738795Y-106247668D01*
X165732255Y-106238932D01*
X165664790Y-106148810D01*
X165640373Y-106083347D01*
X165655224Y-106015074D01*
X165704629Y-105965668D01*
X165764057Y-105950500D01*
X171245234Y-105950500D01*
X171312273Y-105970185D01*
X171314125Y-105971398D01*
X171445814Y-106059390D01*
X171445827Y-106059397D01*
X171524894Y-106092147D01*
X171591503Y-106119737D01*
X171741126Y-106149499D01*
X171746153Y-106150499D01*
X171746156Y-106150500D01*
X171746158Y-106150500D01*
X171903844Y-106150500D01*
X171903845Y-106150499D01*
X172058497Y-106119737D01*
X172204179Y-106059394D01*
X172335289Y-105971789D01*
X172446789Y-105860289D01*
X172534394Y-105729179D01*
X172539643Y-105716508D01*
X172594735Y-105583501D01*
X172594737Y-105583497D01*
X172625500Y-105428842D01*
X172625500Y-105271158D01*
X172625500Y-105271155D01*
X172625499Y-105271153D01*
X172607771Y-105182031D01*
X172594737Y-105116503D01*
X172594735Y-105116498D01*
X172534397Y-104970827D01*
X172534390Y-104970814D01*
X172446791Y-104839714D01*
X172444947Y-104837467D01*
X172444348Y-104836058D01*
X172443405Y-104834646D01*
X172443672Y-104834467D01*
X172417631Y-104773158D01*
X172429420Y-104704290D01*
X172453113Y-104671120D01*
X173605520Y-103518716D01*
X173684577Y-103381784D01*
X173725501Y-103229057D01*
X173725501Y-103070942D01*
X173725501Y-103063347D01*
X173725500Y-103063329D01*
X173725500Y-101970945D01*
X173725500Y-101970943D01*
X173724281Y-101966393D01*
X173725942Y-101896547D01*
X173765102Y-101838684D01*
X173829330Y-101811177D01*
X173885394Y-101818896D01*
X173885676Y-101817969D01*
X173891492Y-101819732D01*
X173891503Y-101819737D01*
X174041101Y-101849494D01*
X174046153Y-101850499D01*
X174046156Y-101850500D01*
X174046158Y-101850500D01*
X174203844Y-101850500D01*
X174203845Y-101850499D01*
X174358497Y-101819737D01*
X174504179Y-101759394D01*
X174635289Y-101671789D01*
X174746789Y-101560289D01*
X174834394Y-101429179D01*
X174878163Y-101323511D01*
X174886614Y-101313023D01*
X174890868Y-101300243D01*
X174908108Y-101286349D01*
X174922003Y-101269107D01*
X174935969Y-101263897D01*
X174945271Y-101256402D01*
X174979469Y-101247673D01*
X174987245Y-101246837D01*
X175056005Y-101259243D01*
X175107142Y-101306854D01*
X175124500Y-101370127D01*
X175124500Y-104324684D01*
X175115061Y-104372136D01*
X175055264Y-104516498D01*
X175055261Y-104516510D01*
X175024500Y-104671153D01*
X175024500Y-104828846D01*
X175055261Y-104983489D01*
X175055264Y-104983501D01*
X175115602Y-105129172D01*
X175115609Y-105129185D01*
X175203210Y-105260288D01*
X175203213Y-105260292D01*
X175314707Y-105371786D01*
X175314711Y-105371789D01*
X175445814Y-105459390D01*
X175445827Y-105459397D01*
X175583683Y-105516498D01*
X175591503Y-105519737D01*
X175746153Y-105550499D01*
X175746156Y-105550500D01*
X175746158Y-105550500D01*
X175903844Y-105550500D01*
X175903845Y-105550499D01*
X176058497Y-105519737D01*
X176204179Y-105459394D01*
X176335289Y-105371789D01*
X176446789Y-105260289D01*
X176534394Y-105129179D01*
X176594737Y-104983497D01*
X176625500Y-104828842D01*
X176625500Y-104671158D01*
X176625500Y-104671155D01*
X176625499Y-104671153D01*
X176603447Y-104560292D01*
X176594737Y-104516503D01*
X176558569Y-104429185D01*
X176534939Y-104372136D01*
X176525500Y-104324684D01*
X176525500Y-103367847D01*
X176545185Y-103300808D01*
X176597989Y-103255053D01*
X176625309Y-103246230D01*
X176661359Y-103239059D01*
X176758497Y-103219737D01*
X176876592Y-103170821D01*
X176904172Y-103159397D01*
X176904172Y-103159396D01*
X176904179Y-103159394D01*
X177035289Y-103071789D01*
X177146789Y-102960289D01*
X177221898Y-102847881D01*
X177275510Y-102803076D01*
X177344835Y-102794369D01*
X177407863Y-102824523D01*
X177428102Y-102847881D01*
X177503210Y-102960288D01*
X177503213Y-102960292D01*
X177614707Y-103071786D01*
X177614711Y-103071789D01*
X177745814Y-103159390D01*
X177745827Y-103159397D01*
X177891498Y-103219735D01*
X177891503Y-103219737D01*
X178041131Y-103249500D01*
X178046153Y-103250499D01*
X178046156Y-103250500D01*
X178046158Y-103250500D01*
X178203844Y-103250500D01*
X178203845Y-103250499D01*
X178358497Y-103219737D01*
X178476592Y-103170821D01*
X178504172Y-103159397D01*
X178504172Y-103159396D01*
X178504179Y-103159394D01*
X178635289Y-103071789D01*
X178746789Y-102960289D01*
X178834394Y-102829179D01*
X178894737Y-102683497D01*
X178925500Y-102528842D01*
X178925500Y-102371158D01*
X178925500Y-102371155D01*
X178925499Y-102371153D01*
X178913335Y-102310000D01*
X178894737Y-102216503D01*
X178878191Y-102176557D01*
X178834397Y-102070827D01*
X178834390Y-102070814D01*
X178744990Y-101937018D01*
X178724112Y-101870341D01*
X178742596Y-101802960D01*
X178794575Y-101756270D01*
X178823901Y-101746510D01*
X178853582Y-101740606D01*
X178958497Y-101719737D01*
X179104179Y-101659394D01*
X179235289Y-101571789D01*
X179346789Y-101460289D01*
X179434394Y-101329179D01*
X179494737Y-101183497D01*
X179525500Y-101028842D01*
X179525500Y-100871158D01*
X179525500Y-100871155D01*
X179525499Y-100871153D01*
X179517417Y-100830521D01*
X179494737Y-100716503D01*
X179447912Y-100603456D01*
X179434397Y-100570827D01*
X179434390Y-100570814D01*
X179346789Y-100439711D01*
X179346786Y-100439707D01*
X179235292Y-100328213D01*
X179235286Y-100328208D01*
X179185607Y-100295013D01*
X179140803Y-100241401D01*
X179130499Y-100191912D01*
X179130499Y-98702129D01*
X179130498Y-98702123D01*
X179130497Y-98702116D01*
X179124091Y-98642517D01*
X179119608Y-98630498D01*
X179073797Y-98507671D01*
X179073793Y-98507664D01*
X178987547Y-98392455D01*
X178987544Y-98392452D01*
X178872335Y-98306206D01*
X178872328Y-98306202D01*
X178737486Y-98255910D01*
X178737485Y-98255909D01*
X178737483Y-98255909D01*
X178677873Y-98249500D01*
X178677863Y-98249500D01*
X178232129Y-98249500D01*
X178232123Y-98249501D01*
X178164804Y-98256738D01*
X178164690Y-98255674D01*
X178125310Y-98255674D01*
X178125196Y-98256739D01*
X178117485Y-98255910D01*
X178117483Y-98255909D01*
X178057873Y-98249500D01*
X178057863Y-98249500D01*
X177612129Y-98249500D01*
X177612123Y-98249501D01*
X177544804Y-98256738D01*
X177544690Y-98255674D01*
X177505310Y-98255674D01*
X177505196Y-98256739D01*
X177497485Y-98255910D01*
X177497483Y-98255909D01*
X177437873Y-98249500D01*
X177437863Y-98249500D01*
X176992129Y-98249500D01*
X176992123Y-98249501D01*
X176924804Y-98256738D01*
X176924690Y-98255674D01*
X176885310Y-98255674D01*
X176885196Y-98256739D01*
X176877485Y-98255910D01*
X176877483Y-98255909D01*
X176817873Y-98249500D01*
X176817863Y-98249500D01*
X176372129Y-98249500D01*
X176372123Y-98249501D01*
X176304804Y-98256738D01*
X176304690Y-98255674D01*
X176265310Y-98255674D01*
X176265196Y-98256739D01*
X176257485Y-98255910D01*
X176257483Y-98255909D01*
X176197873Y-98249500D01*
X176197863Y-98249500D01*
X175752129Y-98249500D01*
X175752123Y-98249501D01*
X175684804Y-98256738D01*
X175684690Y-98255674D01*
X175645310Y-98255674D01*
X175645196Y-98256739D01*
X175637485Y-98255910D01*
X175637483Y-98255909D01*
X175577873Y-98249500D01*
X175577863Y-98249500D01*
X175132129Y-98249500D01*
X175132125Y-98249501D01*
X175072510Y-98255909D01*
X175072412Y-98255933D01*
X175072294Y-98255933D01*
X175064806Y-98256738D01*
X175064719Y-98255933D01*
X175025226Y-98255935D01*
X175025087Y-98257231D01*
X174957844Y-98250000D01*
X174910000Y-98250000D01*
X174910000Y-98264847D01*
X174909050Y-98268080D01*
X174909829Y-98271361D01*
X174899275Y-98301369D01*
X174890315Y-98331886D01*
X174887435Y-98335038D01*
X174886649Y-98337274D01*
X174868446Y-98355823D01*
X174862167Y-98362697D01*
X174861233Y-98363423D01*
X174822454Y-98392454D01*
X174820380Y-98395224D01*
X174811167Y-98402396D01*
X174785536Y-98412509D01*
X174761358Y-98425712D01*
X174753501Y-98425150D01*
X174746175Y-98428041D01*
X174719152Y-98422693D01*
X174691666Y-98420728D01*
X174683857Y-98415709D01*
X174677634Y-98414478D01*
X174668992Y-98406156D01*
X174655065Y-98397205D01*
X174654644Y-98397768D01*
X174609688Y-98364113D01*
X174567817Y-98308178D01*
X174560000Y-98264847D01*
X174560000Y-98250000D01*
X174512155Y-98250000D01*
X174457513Y-98255876D01*
X174388753Y-98243471D01*
X174337616Y-98195861D01*
X174322640Y-98156778D01*
X174294738Y-98016510D01*
X174294737Y-98016503D01*
X174294735Y-98016498D01*
X174234397Y-97870827D01*
X174234390Y-97870814D01*
X174146789Y-97739711D01*
X174146786Y-97739707D01*
X174035292Y-97628213D01*
X174035288Y-97628210D01*
X173904185Y-97540609D01*
X173904172Y-97540602D01*
X173758501Y-97480264D01*
X173758491Y-97480261D01*
X173603151Y-97449362D01*
X173541241Y-97416977D01*
X173539662Y-97415426D01*
X169436417Y-93312181D01*
X169402932Y-93250858D01*
X169407916Y-93181166D01*
X169449788Y-93125233D01*
X169515252Y-93100816D01*
X169524098Y-93100500D01*
X179570890Y-93100500D01*
X179570892Y-93100500D01*
X179698186Y-93066392D01*
X179738499Y-93043116D01*
X179806400Y-93026644D01*
X179872427Y-93049496D01*
G37*
%TD.AperFunction*%
%TA.AperFunction,Conductor*%
G36*
X148735667Y-112643694D02*
G01*
X148794910Y-112746306D01*
X148878694Y-112830090D01*
X148981306Y-112889333D01*
X149066413Y-112912137D01*
X148357485Y-113621065D01*
X148357485Y-113621066D01*
X148421243Y-113667388D01*
X148617589Y-113767432D01*
X148827164Y-113835526D01*
X149044819Y-113870000D01*
X149265181Y-113870000D01*
X149482832Y-113835527D01*
X149562181Y-113809745D01*
X149632022Y-113807750D01*
X149691855Y-113843830D01*
X149722684Y-113906530D01*
X149724500Y-113927676D01*
X149724500Y-116092323D01*
X149704815Y-116159362D01*
X149652011Y-116205117D01*
X149582853Y-116215061D01*
X149562182Y-116210254D01*
X149482835Y-116184473D01*
X149265181Y-116150000D01*
X149044819Y-116150000D01*
X148827164Y-116184473D01*
X148617589Y-116252567D01*
X148421233Y-116352616D01*
X148357485Y-116398931D01*
X148357485Y-116398932D01*
X149066414Y-117107861D01*
X148981306Y-117130667D01*
X148878694Y-117189910D01*
X148794910Y-117273694D01*
X148735667Y-117376306D01*
X148712861Y-117461414D01*
X148051818Y-116800371D01*
X148018333Y-116739048D01*
X148015499Y-116712690D01*
X148015499Y-116602129D01*
X148015498Y-116602123D01*
X148015497Y-116602116D01*
X148009091Y-116542517D01*
X147958796Y-116407669D01*
X147958795Y-116407668D01*
X147958793Y-116407664D01*
X147872547Y-116292455D01*
X147872544Y-116292452D01*
X147757335Y-116206206D01*
X147757328Y-116206202D01*
X147622482Y-116155908D01*
X147622483Y-116155908D01*
X147562883Y-116149501D01*
X147562881Y-116149500D01*
X147562873Y-116149500D01*
X147562864Y-116149500D01*
X145667129Y-116149500D01*
X145667123Y-116149501D01*
X145607516Y-116155908D01*
X145472671Y-116206202D01*
X145472669Y-116206203D01*
X145419311Y-116246148D01*
X145353847Y-116270565D01*
X145285574Y-116255714D01*
X145270689Y-116246148D01*
X145217330Y-116206203D01*
X145217328Y-116206202D01*
X145082482Y-116155908D01*
X145082483Y-116155908D01*
X145022883Y-116149501D01*
X145022881Y-116149500D01*
X145022873Y-116149500D01*
X145022864Y-116149500D01*
X143127129Y-116149500D01*
X143127123Y-116149501D01*
X143067516Y-116155908D01*
X142932671Y-116206202D01*
X142932664Y-116206206D01*
X142817455Y-116292452D01*
X142817452Y-116292455D01*
X142731206Y-116407664D01*
X142731202Y-116407671D01*
X142680908Y-116542517D01*
X142674501Y-116602116D01*
X142674501Y-116602123D01*
X142674500Y-116602135D01*
X142674500Y-116712691D01*
X142654815Y-116779730D01*
X142638181Y-116800372D01*
X141977138Y-117461414D01*
X141954333Y-117376306D01*
X141895090Y-117273694D01*
X141811306Y-117189910D01*
X141708694Y-117130667D01*
X141623583Y-117107861D01*
X142332513Y-116398932D01*
X142268756Y-116352611D01*
X142072410Y-116252567D01*
X141862835Y-116184473D01*
X141645181Y-116150000D01*
X141424819Y-116150000D01*
X141207164Y-116184473D01*
X140997589Y-116252567D01*
X140801233Y-116352616D01*
X140737485Y-116398931D01*
X140737485Y-116398932D01*
X141446414Y-117107861D01*
X141361306Y-117130667D01*
X141258694Y-117189910D01*
X141174910Y-117273694D01*
X141115667Y-117376306D01*
X141092861Y-117461415D01*
X140383932Y-116752485D01*
X140383931Y-116752485D01*
X140337616Y-116816233D01*
X140237567Y-117012589D01*
X140169473Y-117222164D01*
X140135000Y-117439818D01*
X140135000Y-117660181D01*
X140169473Y-117877837D01*
X140186699Y-117930854D01*
X140188694Y-118000695D01*
X140152613Y-118060528D01*
X140089912Y-118091355D01*
X140020497Y-118083390D01*
X139981087Y-118056852D01*
X136006415Y-114082180D01*
X135972930Y-114020857D01*
X135977914Y-113951165D01*
X136019786Y-113895232D01*
X136085250Y-113870815D01*
X136094096Y-113870499D01*
X137402871Y-113870499D01*
X137402872Y-113870499D01*
X137462483Y-113864091D01*
X137597331Y-113813796D01*
X137712546Y-113727546D01*
X137798796Y-113612331D01*
X137849091Y-113477483D01*
X137855500Y-113417873D01*
X137855499Y-113307304D01*
X137875183Y-113240268D01*
X137891818Y-113219626D01*
X138552861Y-112558584D01*
X138575667Y-112643694D01*
X138634910Y-112746306D01*
X138718694Y-112830090D01*
X138821306Y-112889333D01*
X138906414Y-112912137D01*
X138197485Y-113621065D01*
X138197485Y-113621066D01*
X138261243Y-113667388D01*
X138457589Y-113767432D01*
X138667164Y-113835526D01*
X138884819Y-113870000D01*
X139105181Y-113870000D01*
X139322835Y-113835526D01*
X139532410Y-113767432D01*
X139728760Y-113667386D01*
X139792513Y-113621066D01*
X139792514Y-113621066D01*
X139083585Y-112912138D01*
X139168694Y-112889333D01*
X139271306Y-112830090D01*
X139355090Y-112746306D01*
X139414333Y-112643694D01*
X139437137Y-112558585D01*
X140146065Y-113267513D01*
X140164680Y-113241893D01*
X140220010Y-113199227D01*
X140289623Y-113193248D01*
X140351419Y-113225853D01*
X140365317Y-113241893D01*
X140383931Y-113267513D01*
X140383932Y-113267513D01*
X141092861Y-112558584D01*
X141115667Y-112643694D01*
X141174910Y-112746306D01*
X141258694Y-112830090D01*
X141361306Y-112889333D01*
X141446414Y-112912137D01*
X140737485Y-113621065D01*
X140737485Y-113621066D01*
X140801243Y-113667388D01*
X140997589Y-113767432D01*
X141207164Y-113835526D01*
X141424819Y-113870000D01*
X141645181Y-113870000D01*
X141862835Y-113835526D01*
X142072410Y-113767432D01*
X142268760Y-113667386D01*
X142332513Y-113621066D01*
X142332514Y-113621066D01*
X141623585Y-112912138D01*
X141708694Y-112889333D01*
X141811306Y-112830090D01*
X141895090Y-112746306D01*
X141954333Y-112643694D01*
X141977138Y-112558585D01*
X142638181Y-113219628D01*
X142671666Y-113280951D01*
X142674500Y-113307308D01*
X142674500Y-113417869D01*
X142674501Y-113417876D01*
X142680908Y-113477483D01*
X142731202Y-113612328D01*
X142731206Y-113612335D01*
X142817452Y-113727544D01*
X142817455Y-113727547D01*
X142932664Y-113813793D01*
X142932671Y-113813797D01*
X143067517Y-113864091D01*
X143067516Y-113864091D01*
X143074444Y-113864835D01*
X143127127Y-113870500D01*
X145022872Y-113870499D01*
X145082483Y-113864091D01*
X145217331Y-113813796D01*
X145270689Y-113773851D01*
X145336153Y-113749435D01*
X145404426Y-113764286D01*
X145419311Y-113773852D01*
X145472669Y-113813796D01*
X145472671Y-113813797D01*
X145607517Y-113864091D01*
X145607516Y-113864091D01*
X145614444Y-113864835D01*
X145667127Y-113870500D01*
X147562872Y-113870499D01*
X147622483Y-113864091D01*
X147757331Y-113813796D01*
X147872546Y-113727546D01*
X147958796Y-113612331D01*
X148009091Y-113477483D01*
X148015500Y-113417873D01*
X148015499Y-113307304D01*
X148035183Y-113240268D01*
X148051818Y-113219626D01*
X148712861Y-112558584D01*
X148735667Y-112643694D01*
G37*
%TD.AperFunction*%
%TA.AperFunction,Conductor*%
G36*
X135152982Y-105970185D02*
G01*
X135198737Y-106022989D01*
X135208681Y-106092147D01*
X135185209Y-106148810D01*
X135183946Y-106150499D01*
X135111204Y-106247668D01*
X135111202Y-106247671D01*
X135060908Y-106382517D01*
X135054501Y-106442116D01*
X135054501Y-106442123D01*
X135054500Y-106442135D01*
X135054500Y-108337870D01*
X135054501Y-108337876D01*
X135060908Y-108397483D01*
X135111202Y-108532328D01*
X135111206Y-108532335D01*
X135197452Y-108647544D01*
X135197455Y-108647547D01*
X135312664Y-108733793D01*
X135312671Y-108733797D01*
X135447517Y-108784091D01*
X135447516Y-108784091D01*
X135454444Y-108784835D01*
X135507127Y-108790500D01*
X137402872Y-108790499D01*
X137462483Y-108784091D01*
X137597331Y-108733796D01*
X137712546Y-108647546D01*
X137798796Y-108532331D01*
X137849091Y-108397483D01*
X137855500Y-108337873D01*
X137855499Y-108227304D01*
X137875183Y-108160268D01*
X137891818Y-108139626D01*
X138552861Y-107478584D01*
X138575667Y-107563694D01*
X138634910Y-107666306D01*
X138718694Y-107750090D01*
X138821306Y-107809333D01*
X138906414Y-107832137D01*
X138197485Y-108541065D01*
X138197485Y-108541066D01*
X138261243Y-108587388D01*
X138457589Y-108687432D01*
X138667164Y-108755526D01*
X138884819Y-108790000D01*
X139105181Y-108790000D01*
X139322835Y-108755526D01*
X139532410Y-108687432D01*
X139728760Y-108587386D01*
X139792513Y-108541066D01*
X139792514Y-108541066D01*
X139083585Y-107832138D01*
X139168694Y-107809333D01*
X139271306Y-107750090D01*
X139355090Y-107666306D01*
X139414333Y-107563694D01*
X139437137Y-107478585D01*
X140146065Y-108187513D01*
X140164680Y-108161893D01*
X140220010Y-108119227D01*
X140289623Y-108113248D01*
X140351419Y-108145853D01*
X140365317Y-108161893D01*
X140383931Y-108187513D01*
X140383932Y-108187513D01*
X141092861Y-107478584D01*
X141115667Y-107563694D01*
X141174910Y-107666306D01*
X141258694Y-107750090D01*
X141361306Y-107809333D01*
X141446414Y-107832137D01*
X140737485Y-108541065D01*
X140737485Y-108541066D01*
X140801243Y-108587388D01*
X140997589Y-108687432D01*
X141207164Y-108755526D01*
X141424819Y-108790000D01*
X141645181Y-108790000D01*
X141862835Y-108755526D01*
X142072410Y-108687432D01*
X142268760Y-108587386D01*
X142332513Y-108541066D01*
X142332514Y-108541066D01*
X141623585Y-107832138D01*
X141708694Y-107809333D01*
X141811306Y-107750090D01*
X141895090Y-107666306D01*
X141954333Y-107563694D01*
X141977138Y-107478585D01*
X142638181Y-108139628D01*
X142671666Y-108200951D01*
X142674500Y-108227308D01*
X142674500Y-108337869D01*
X142674501Y-108337876D01*
X142680908Y-108397483D01*
X142731202Y-108532328D01*
X142731206Y-108532335D01*
X142817452Y-108647544D01*
X142817455Y-108647547D01*
X142932664Y-108733793D01*
X142932671Y-108733797D01*
X143067517Y-108784091D01*
X143067516Y-108784091D01*
X143074444Y-108784835D01*
X143127127Y-108790500D01*
X145022872Y-108790499D01*
X145082483Y-108784091D01*
X145217331Y-108733796D01*
X145270689Y-108693851D01*
X145336153Y-108669435D01*
X145404426Y-108684286D01*
X145419311Y-108693852D01*
X145472669Y-108733796D01*
X145472671Y-108733797D01*
X145607517Y-108784091D01*
X145607516Y-108784091D01*
X145614444Y-108784835D01*
X145667127Y-108790500D01*
X147562872Y-108790499D01*
X147622483Y-108784091D01*
X147757331Y-108733796D01*
X147872546Y-108647546D01*
X147958796Y-108532331D01*
X148009091Y-108397483D01*
X148015500Y-108337873D01*
X148015499Y-108227304D01*
X148035183Y-108160268D01*
X148051818Y-108139626D01*
X148712861Y-107478584D01*
X148735667Y-107563694D01*
X148794910Y-107666306D01*
X148878694Y-107750090D01*
X148981306Y-107809333D01*
X149066413Y-107832137D01*
X148357485Y-108541065D01*
X148357485Y-108541066D01*
X148421243Y-108587388D01*
X148617589Y-108687432D01*
X148827164Y-108755526D01*
X149044819Y-108790000D01*
X149265181Y-108790000D01*
X149482832Y-108755527D01*
X149562181Y-108729745D01*
X149632022Y-108727750D01*
X149691855Y-108763830D01*
X149722684Y-108826530D01*
X149724500Y-108847676D01*
X149724500Y-111012323D01*
X149704815Y-111079362D01*
X149652011Y-111125117D01*
X149582853Y-111135061D01*
X149562182Y-111130254D01*
X149482835Y-111104473D01*
X149265181Y-111070000D01*
X149044819Y-111070000D01*
X148827164Y-111104473D01*
X148617589Y-111172567D01*
X148421233Y-111272616D01*
X148357485Y-111318931D01*
X148357485Y-111318932D01*
X149066414Y-112027861D01*
X148981306Y-112050667D01*
X148878694Y-112109910D01*
X148794910Y-112193694D01*
X148735667Y-112296306D01*
X148712861Y-112381414D01*
X148051818Y-111720371D01*
X148018333Y-111659048D01*
X148015499Y-111632690D01*
X148015499Y-111522129D01*
X148015498Y-111522123D01*
X148015497Y-111522116D01*
X148009091Y-111462517D01*
X147975016Y-111371158D01*
X147958797Y-111327671D01*
X147958793Y-111327664D01*
X147872547Y-111212455D01*
X147872544Y-111212452D01*
X147757335Y-111126206D01*
X147757328Y-111126202D01*
X147622482Y-111075908D01*
X147622483Y-111075908D01*
X147562883Y-111069501D01*
X147562881Y-111069500D01*
X147562873Y-111069500D01*
X147562864Y-111069500D01*
X145667129Y-111069500D01*
X145667123Y-111069501D01*
X145607516Y-111075908D01*
X145472671Y-111126202D01*
X145472669Y-111126203D01*
X145419311Y-111166148D01*
X145353847Y-111190565D01*
X145285574Y-111175714D01*
X145270689Y-111166148D01*
X145262862Y-111160289D01*
X145235374Y-111139711D01*
X145217330Y-111126203D01*
X145217328Y-111126202D01*
X145082482Y-111075908D01*
X145082483Y-111075908D01*
X145022883Y-111069501D01*
X145022881Y-111069500D01*
X145022873Y-111069500D01*
X145022864Y-111069500D01*
X143127129Y-111069500D01*
X143127123Y-111069501D01*
X143067516Y-111075908D01*
X142932671Y-111126202D01*
X142932664Y-111126206D01*
X142817455Y-111212452D01*
X142817452Y-111212455D01*
X142731206Y-111327664D01*
X142731202Y-111327671D01*
X142680908Y-111462517D01*
X142674501Y-111522116D01*
X142674501Y-111522123D01*
X142674500Y-111522135D01*
X142674500Y-111632691D01*
X142654815Y-111699730D01*
X142638181Y-111720372D01*
X141977138Y-112381414D01*
X141954333Y-112296306D01*
X141895090Y-112193694D01*
X141811306Y-112109910D01*
X141708694Y-112050667D01*
X141623583Y-112027861D01*
X142332513Y-111318932D01*
X142268756Y-111272611D01*
X142072410Y-111172567D01*
X141862835Y-111104473D01*
X141645181Y-111070000D01*
X141424819Y-111070000D01*
X141207164Y-111104473D01*
X140997589Y-111172567D01*
X140801233Y-111272616D01*
X140737485Y-111318931D01*
X140737485Y-111318932D01*
X141446414Y-112027861D01*
X141361306Y-112050667D01*
X141258694Y-112109910D01*
X141174910Y-112193694D01*
X141115667Y-112296306D01*
X141092861Y-112381414D01*
X140383932Y-111672485D01*
X140383930Y-111672485D01*
X140365317Y-111698105D01*
X140309988Y-111740771D01*
X140240374Y-111746750D01*
X140178579Y-111714145D01*
X140164681Y-111698105D01*
X140146067Y-111672485D01*
X140146065Y-111672485D01*
X139437137Y-112381413D01*
X139414333Y-112296306D01*
X139355090Y-112193694D01*
X139271306Y-112109910D01*
X139168694Y-112050667D01*
X139083583Y-112027861D01*
X139792513Y-111318932D01*
X139728756Y-111272611D01*
X139532410Y-111172567D01*
X139322835Y-111104473D01*
X139105181Y-111070000D01*
X138884819Y-111070000D01*
X138667164Y-111104473D01*
X138457589Y-111172567D01*
X138261233Y-111272616D01*
X138197485Y-111318931D01*
X138197485Y-111318932D01*
X138906414Y-112027861D01*
X138821306Y-112050667D01*
X138718694Y-112109910D01*
X138634910Y-112193694D01*
X138575667Y-112296306D01*
X138552861Y-112381414D01*
X137891818Y-111720371D01*
X137858333Y-111659048D01*
X137855499Y-111632690D01*
X137855499Y-111522129D01*
X137855498Y-111522123D01*
X137855497Y-111522116D01*
X137849091Y-111462517D01*
X137815015Y-111371155D01*
X137798797Y-111327671D01*
X137798793Y-111327664D01*
X137712547Y-111212455D01*
X137712544Y-111212452D01*
X137597335Y-111126206D01*
X137597328Y-111126202D01*
X137462482Y-111075908D01*
X137462483Y-111075908D01*
X137402883Y-111069501D01*
X137402881Y-111069500D01*
X137402873Y-111069500D01*
X137402864Y-111069500D01*
X135507129Y-111069500D01*
X135507123Y-111069501D01*
X135447516Y-111075908D01*
X135312671Y-111126202D01*
X135312664Y-111126206D01*
X135197455Y-111212452D01*
X135197452Y-111212455D01*
X135111206Y-111327664D01*
X135111202Y-111327671D01*
X135060908Y-111462517D01*
X135054501Y-111522116D01*
X135054501Y-111522123D01*
X135054500Y-111522135D01*
X135054500Y-112830903D01*
X135034815Y-112897942D01*
X134982011Y-112943697D01*
X134912853Y-112953641D01*
X134849297Y-112924616D01*
X134842819Y-112918584D01*
X129959574Y-108035339D01*
X129951454Y-108021160D01*
X129940924Y-108011453D01*
X129930650Y-107984835D01*
X129927258Y-107978912D01*
X129925500Y-107972162D01*
X129925500Y-107971158D01*
X129894737Y-107816503D01*
X129868390Y-107752896D01*
X129866235Y-107744620D01*
X129867057Y-107717913D01*
X129864202Y-107691350D01*
X129868117Y-107683527D01*
X129868387Y-107674783D01*
X129883519Y-107652759D01*
X129895477Y-107628871D01*
X129898554Y-107625682D01*
X129912581Y-107611655D01*
X129912586Y-107611648D01*
X130405520Y-107118716D01*
X130405520Y-107118714D01*
X130415724Y-107108511D01*
X130415727Y-107108506D01*
X131537416Y-105986819D01*
X131598739Y-105953334D01*
X131625097Y-105950500D01*
X135085943Y-105950500D01*
X135152982Y-105970185D01*
G37*
%TD.AperFunction*%
%TA.AperFunction,Conductor*%
G36*
X138286956Y-105970185D02*
G01*
X138332711Y-106022989D01*
X138342655Y-106092147D01*
X138313630Y-106155703D01*
X138276212Y-106184985D01*
X138261233Y-106192616D01*
X138197485Y-106238931D01*
X138197485Y-106238932D01*
X138906414Y-106947861D01*
X138821306Y-106970667D01*
X138718694Y-107029910D01*
X138634910Y-107113694D01*
X138575667Y-107216306D01*
X138552861Y-107301414D01*
X137891818Y-106640371D01*
X137858333Y-106579048D01*
X137855499Y-106552690D01*
X137855499Y-106442129D01*
X137855498Y-106442123D01*
X137855497Y-106442116D01*
X137849091Y-106382517D01*
X137800784Y-106253000D01*
X137798797Y-106247671D01*
X137798795Y-106247668D01*
X137792255Y-106238932D01*
X137724790Y-106148810D01*
X137700373Y-106083347D01*
X137715224Y-106015074D01*
X137764629Y-105965668D01*
X137824057Y-105950500D01*
X138219917Y-105950500D01*
X138286956Y-105970185D01*
G37*
%TD.AperFunction*%
%TA.AperFunction,Conductor*%
G36*
X140826956Y-105970185D02*
G01*
X140872711Y-106022989D01*
X140882655Y-106092147D01*
X140853630Y-106155703D01*
X140816212Y-106184985D01*
X140801233Y-106192616D01*
X140737485Y-106238931D01*
X140737485Y-106238932D01*
X141446414Y-106947861D01*
X141361306Y-106970667D01*
X141258694Y-107029910D01*
X141174910Y-107113694D01*
X141115667Y-107216306D01*
X141092861Y-107301414D01*
X140383932Y-106592485D01*
X140383930Y-106592485D01*
X140365317Y-106618105D01*
X140309988Y-106660771D01*
X140240374Y-106666750D01*
X140178579Y-106634145D01*
X140164681Y-106618105D01*
X140146067Y-106592485D01*
X140146065Y-106592485D01*
X139437137Y-107301413D01*
X139414333Y-107216306D01*
X139355090Y-107113694D01*
X139271306Y-107029910D01*
X139168694Y-106970667D01*
X139083583Y-106947861D01*
X139792513Y-106238932D01*
X139728756Y-106192611D01*
X139713789Y-106184985D01*
X139662993Y-106137010D01*
X139646198Y-106069189D01*
X139668735Y-106003054D01*
X139723451Y-105959603D01*
X139770084Y-105950500D01*
X140759917Y-105950500D01*
X140826956Y-105970185D01*
G37*
%TD.AperFunction*%
%TA.AperFunction,Conductor*%
G36*
X142772982Y-105970185D02*
G01*
X142818737Y-106022989D01*
X142828681Y-106092147D01*
X142805209Y-106148810D01*
X142803946Y-106150499D01*
X142731204Y-106247668D01*
X142731202Y-106247671D01*
X142680908Y-106382517D01*
X142674501Y-106442116D01*
X142674501Y-106442123D01*
X142674500Y-106442135D01*
X142674500Y-106552691D01*
X142654815Y-106619730D01*
X142638181Y-106640372D01*
X141977138Y-107301414D01*
X141954333Y-107216306D01*
X141895090Y-107113694D01*
X141811306Y-107029910D01*
X141708694Y-106970667D01*
X141623583Y-106947861D01*
X142332513Y-106238932D01*
X142268756Y-106192611D01*
X142253789Y-106184985D01*
X142202993Y-106137010D01*
X142186198Y-106069189D01*
X142208735Y-106003054D01*
X142263451Y-105959603D01*
X142310084Y-105950500D01*
X142705943Y-105950500D01*
X142772982Y-105970185D01*
G37*
%TD.AperFunction*%
%TA.AperFunction,Conductor*%
G36*
X148112273Y-105970185D02*
G01*
X148114125Y-105971398D01*
X148245814Y-106059390D01*
X148245827Y-106059397D01*
X148284409Y-106075378D01*
X148338813Y-106119218D01*
X148360878Y-106185512D01*
X148360575Y-106199668D01*
X148357484Y-106238931D01*
X149066414Y-106947861D01*
X148981306Y-106970667D01*
X148878694Y-107029910D01*
X148794910Y-107113694D01*
X148735667Y-107216306D01*
X148712861Y-107301414D01*
X148051818Y-106640371D01*
X148018333Y-106579048D01*
X148015499Y-106552690D01*
X148015499Y-106442129D01*
X148015498Y-106442123D01*
X148015497Y-106442116D01*
X148009091Y-106382517D01*
X147960784Y-106253000D01*
X147958797Y-106247671D01*
X147958795Y-106247668D01*
X147952255Y-106238932D01*
X147884790Y-106148810D01*
X147880083Y-106136189D01*
X147871263Y-106126011D01*
X147868111Y-106104094D01*
X147860373Y-106083347D01*
X147863235Y-106070185D01*
X147861319Y-106056853D01*
X147870517Y-106036711D01*
X147875224Y-106015074D01*
X147884748Y-106005549D01*
X147890344Y-105993297D01*
X147908971Y-105981326D01*
X147924629Y-105965668D01*
X147939072Y-105961981D01*
X147949122Y-105955523D01*
X147984057Y-105950500D01*
X148045234Y-105950500D01*
X148112273Y-105970185D01*
G37*
%TD.AperFunction*%
%TA.AperFunction,Conductor*%
G36*
X152932982Y-105970185D02*
G01*
X152978737Y-106022989D01*
X152988681Y-106092147D01*
X152965209Y-106148810D01*
X152963946Y-106150499D01*
X152891204Y-106247668D01*
X152891202Y-106247671D01*
X152840908Y-106382517D01*
X152834501Y-106442116D01*
X152834501Y-106442123D01*
X152834500Y-106442135D01*
X152834500Y-106552691D01*
X152814815Y-106619730D01*
X152798181Y-106640372D01*
X152137138Y-107301414D01*
X152114333Y-107216306D01*
X152055090Y-107113694D01*
X151971306Y-107029910D01*
X151868694Y-106970667D01*
X151783584Y-106947861D01*
X152492513Y-106238932D01*
X152428756Y-106192611D01*
X152413789Y-106184985D01*
X152362993Y-106137010D01*
X152346198Y-106069189D01*
X152368735Y-106003054D01*
X152423451Y-105959603D01*
X152470084Y-105950500D01*
X152865943Y-105950500D01*
X152932982Y-105970185D01*
G37*
%TD.AperFunction*%
%TA.AperFunction,Conductor*%
G36*
X158606956Y-105970185D02*
G01*
X158652711Y-106022989D01*
X158662655Y-106092147D01*
X158633630Y-106155703D01*
X158596212Y-106184985D01*
X158581233Y-106192616D01*
X158517485Y-106238931D01*
X158517485Y-106238932D01*
X159226414Y-106947861D01*
X159141306Y-106970667D01*
X159038694Y-107029910D01*
X158954910Y-107113694D01*
X158895667Y-107216306D01*
X158872861Y-107301414D01*
X158211818Y-106640371D01*
X158178333Y-106579048D01*
X158175499Y-106552690D01*
X158175499Y-106442129D01*
X158175498Y-106442123D01*
X158175497Y-106442116D01*
X158169091Y-106382517D01*
X158120784Y-106253000D01*
X158118797Y-106247671D01*
X158118795Y-106247668D01*
X158112255Y-106238932D01*
X158044790Y-106148810D01*
X158020373Y-106083347D01*
X158035224Y-106015074D01*
X158084629Y-105965668D01*
X158144057Y-105950500D01*
X158539917Y-105950500D01*
X158606956Y-105970185D01*
G37*
%TD.AperFunction*%
%TA.AperFunction,Conductor*%
G36*
X161146956Y-105970185D02*
G01*
X161192711Y-106022989D01*
X161202655Y-106092147D01*
X161173630Y-106155703D01*
X161136212Y-106184985D01*
X161121233Y-106192616D01*
X161057485Y-106238931D01*
X161057485Y-106238932D01*
X161766414Y-106947861D01*
X161681306Y-106970667D01*
X161578694Y-107029910D01*
X161494910Y-107113694D01*
X161435667Y-107216306D01*
X161412861Y-107301414D01*
X160703932Y-106592485D01*
X160703930Y-106592485D01*
X160685317Y-106618105D01*
X160629988Y-106660771D01*
X160560374Y-106666750D01*
X160498579Y-106634145D01*
X160484681Y-106618105D01*
X160466067Y-106592485D01*
X160466065Y-106592485D01*
X159757137Y-107301413D01*
X159734333Y-107216306D01*
X159675090Y-107113694D01*
X159591306Y-107029910D01*
X159488694Y-106970667D01*
X159403583Y-106947861D01*
X160112513Y-106238932D01*
X160048756Y-106192611D01*
X160033789Y-106184985D01*
X159982993Y-106137010D01*
X159966198Y-106069189D01*
X159988735Y-106003054D01*
X160043451Y-105959603D01*
X160090084Y-105950500D01*
X161079917Y-105950500D01*
X161146956Y-105970185D01*
G37*
%TD.AperFunction*%
%TA.AperFunction,Conductor*%
G36*
X163092982Y-105970185D02*
G01*
X163138737Y-106022989D01*
X163148681Y-106092147D01*
X163125209Y-106148810D01*
X163123946Y-106150499D01*
X163051204Y-106247668D01*
X163051202Y-106247671D01*
X163000908Y-106382517D01*
X162994501Y-106442116D01*
X162994501Y-106442123D01*
X162994500Y-106442135D01*
X162994500Y-106552691D01*
X162974815Y-106619730D01*
X162958181Y-106640372D01*
X162297138Y-107301414D01*
X162274333Y-107216306D01*
X162215090Y-107113694D01*
X162131306Y-107029910D01*
X162028694Y-106970667D01*
X161943583Y-106947861D01*
X162652513Y-106238932D01*
X162588756Y-106192611D01*
X162573789Y-106184985D01*
X162522993Y-106137010D01*
X162506198Y-106069189D01*
X162528735Y-106003054D01*
X162583451Y-105959603D01*
X162630084Y-105950500D01*
X163025943Y-105950500D01*
X163092982Y-105970185D01*
G37*
%TD.AperFunction*%
%TA.AperFunction,Conductor*%
G36*
X155991942Y-81570185D02*
G01*
X156012584Y-81586819D01*
X172463583Y-98037819D01*
X172497068Y-98099142D01*
X172492084Y-98168834D01*
X172450212Y-98224767D01*
X172384748Y-98249184D01*
X172375902Y-98249500D01*
X172032130Y-98249500D01*
X172032123Y-98249501D01*
X171964804Y-98256738D01*
X171964690Y-98255674D01*
X171925310Y-98255674D01*
X171925196Y-98256739D01*
X171917485Y-98255910D01*
X171917483Y-98255909D01*
X171857873Y-98249500D01*
X171857863Y-98249500D01*
X171412129Y-98249500D01*
X171412123Y-98249501D01*
X171344804Y-98256738D01*
X171344690Y-98255674D01*
X171305310Y-98255674D01*
X171305196Y-98256739D01*
X171297485Y-98255910D01*
X171297483Y-98255909D01*
X171237873Y-98249500D01*
X171237863Y-98249500D01*
X170792129Y-98249500D01*
X170792123Y-98249501D01*
X170724804Y-98256738D01*
X170724690Y-98255674D01*
X170685310Y-98255674D01*
X170685196Y-98256739D01*
X170677485Y-98255910D01*
X170677483Y-98255909D01*
X170617873Y-98249500D01*
X170617863Y-98249500D01*
X170172129Y-98249500D01*
X170172123Y-98249501D01*
X170112516Y-98255908D01*
X169977671Y-98306202D01*
X169977664Y-98306206D01*
X169862455Y-98392452D01*
X169862452Y-98392455D01*
X169776206Y-98507664D01*
X169776202Y-98507671D01*
X169725908Y-98642517D01*
X169719501Y-98702116D01*
X169719501Y-98702123D01*
X169719500Y-98702135D01*
X169719500Y-100372059D01*
X169699815Y-100439098D01*
X169683181Y-100459740D01*
X169603213Y-100539707D01*
X169603210Y-100539711D01*
X169515609Y-100670814D01*
X169515602Y-100670827D01*
X169455264Y-100816498D01*
X169455261Y-100816510D01*
X169424500Y-100971153D01*
X169424500Y-101128846D01*
X169455261Y-101283489D01*
X169455264Y-101283501D01*
X169515602Y-101429172D01*
X169515609Y-101429185D01*
X169603210Y-101560288D01*
X169603213Y-101560292D01*
X169714707Y-101671786D01*
X169714711Y-101671789D01*
X169845814Y-101759390D01*
X169845827Y-101759397D01*
X169991498Y-101819735D01*
X169991503Y-101819737D01*
X170141101Y-101849494D01*
X170146153Y-101850499D01*
X170146156Y-101850500D01*
X170146158Y-101850500D01*
X170303844Y-101850500D01*
X170303845Y-101850499D01*
X170458497Y-101819737D01*
X170577548Y-101770425D01*
X170647017Y-101762956D01*
X170672452Y-101770425D01*
X170791498Y-101819735D01*
X170791503Y-101819737D01*
X170941101Y-101849494D01*
X170946153Y-101850499D01*
X170946156Y-101850500D01*
X170946158Y-101850500D01*
X171103842Y-101850500D01*
X171108899Y-101849494D01*
X171178490Y-101855718D01*
X171233670Y-101898578D01*
X171256918Y-101964466D01*
X171240853Y-102032464D01*
X171236199Y-102040000D01*
X171215608Y-102070816D01*
X171215602Y-102070827D01*
X171155264Y-102216498D01*
X171155261Y-102216510D01*
X171124500Y-102371153D01*
X171124500Y-102528846D01*
X171155261Y-102683489D01*
X171155264Y-102683501D01*
X171215602Y-102829172D01*
X171215609Y-102829185D01*
X171303210Y-102960288D01*
X171303213Y-102960292D01*
X171414707Y-103071786D01*
X171414711Y-103071789D01*
X171545814Y-103159390D01*
X171545827Y-103159397D01*
X171691498Y-103219735D01*
X171691503Y-103219737D01*
X171841131Y-103249500D01*
X171846153Y-103250499D01*
X171846156Y-103250500D01*
X171875902Y-103250500D01*
X171942941Y-103270185D01*
X171988696Y-103322989D01*
X171998640Y-103392147D01*
X171969615Y-103455703D01*
X171963585Y-103462178D01*
X171731387Y-103694378D01*
X171612584Y-103813181D01*
X171551261Y-103846666D01*
X171524903Y-103849500D01*
X165648461Y-103849500D01*
X165581422Y-103829815D01*
X165535667Y-103777011D01*
X165525723Y-103707853D01*
X165554748Y-103644297D01*
X165574150Y-103626234D01*
X165633490Y-103581811D01*
X165652546Y-103567546D01*
X165738796Y-103452331D01*
X165789091Y-103317483D01*
X165795500Y-103257873D01*
X165795499Y-101362128D01*
X165789091Y-101302517D01*
X165781998Y-101283501D01*
X165738797Y-101167671D01*
X165738793Y-101167664D01*
X165652547Y-101052455D01*
X165652544Y-101052452D01*
X165537335Y-100966206D01*
X165537328Y-100966202D01*
X165402482Y-100915908D01*
X165402483Y-100915908D01*
X165342883Y-100909501D01*
X165342881Y-100909500D01*
X165342873Y-100909500D01*
X165342864Y-100909500D01*
X163447129Y-100909500D01*
X163447123Y-100909501D01*
X163387516Y-100915908D01*
X163252671Y-100966202D01*
X163252664Y-100966206D01*
X163137455Y-101052452D01*
X163137452Y-101052455D01*
X163051206Y-101167664D01*
X163051202Y-101167671D01*
X163000908Y-101302517D01*
X162994501Y-101362116D01*
X162994501Y-101362123D01*
X162994500Y-101362135D01*
X162994500Y-101472691D01*
X162974815Y-101539730D01*
X162958181Y-101560372D01*
X162297138Y-102221414D01*
X162274333Y-102136306D01*
X162215090Y-102033694D01*
X162131306Y-101949910D01*
X162028694Y-101890667D01*
X161943583Y-101867861D01*
X162652513Y-101158932D01*
X162588756Y-101112611D01*
X162392410Y-101012567D01*
X162182835Y-100944473D01*
X161965181Y-100910000D01*
X161744819Y-100910000D01*
X161527164Y-100944473D01*
X161317589Y-101012567D01*
X161121233Y-101112616D01*
X161057485Y-101158931D01*
X161057485Y-101158932D01*
X161766414Y-101867861D01*
X161681306Y-101890667D01*
X161578694Y-101949910D01*
X161494910Y-102033694D01*
X161435667Y-102136306D01*
X161412861Y-102221414D01*
X160703932Y-101512485D01*
X160703930Y-101512485D01*
X160685317Y-101538105D01*
X160629988Y-101580771D01*
X160560374Y-101586750D01*
X160498579Y-101554145D01*
X160484681Y-101538105D01*
X160466067Y-101512485D01*
X160466065Y-101512485D01*
X159757137Y-102221413D01*
X159734333Y-102136306D01*
X159675090Y-102033694D01*
X159591306Y-101949910D01*
X159488694Y-101890667D01*
X159403583Y-101867861D01*
X160112513Y-101158932D01*
X160048756Y-101112611D01*
X159852410Y-101012567D01*
X159642835Y-100944473D01*
X159425181Y-100910000D01*
X159204819Y-100910000D01*
X158987164Y-100944473D01*
X158777589Y-101012567D01*
X158581233Y-101112616D01*
X158517485Y-101158931D01*
X158517485Y-101158932D01*
X159226414Y-101867861D01*
X159141306Y-101890667D01*
X159038694Y-101949910D01*
X158954910Y-102033694D01*
X158895667Y-102136306D01*
X158872861Y-102221414D01*
X158211818Y-101560371D01*
X158178333Y-101499048D01*
X158175499Y-101472690D01*
X158175499Y-101362129D01*
X158175498Y-101362123D01*
X158175497Y-101362116D01*
X158169091Y-101302517D01*
X158161998Y-101283501D01*
X158149326Y-101249524D01*
X158118797Y-101167671D01*
X158118793Y-101167664D01*
X158032547Y-101052455D01*
X158032544Y-101052452D01*
X157917335Y-100966206D01*
X157917328Y-100966202D01*
X157782482Y-100915908D01*
X157782483Y-100915908D01*
X157722883Y-100909501D01*
X157722881Y-100909500D01*
X157722873Y-100909500D01*
X157722864Y-100909500D01*
X155827129Y-100909500D01*
X155827123Y-100909501D01*
X155767516Y-100915908D01*
X155632671Y-100966202D01*
X155632669Y-100966203D01*
X155579311Y-101006148D01*
X155513847Y-101030565D01*
X155445574Y-101015714D01*
X155430689Y-101006148D01*
X155377330Y-100966203D01*
X155377328Y-100966202D01*
X155242482Y-100915908D01*
X155242483Y-100915908D01*
X155182883Y-100909501D01*
X155182881Y-100909500D01*
X155182873Y-100909500D01*
X155182864Y-100909500D01*
X153287129Y-100909500D01*
X153287123Y-100909501D01*
X153227516Y-100915908D01*
X153092671Y-100966202D01*
X153092664Y-100966206D01*
X152977455Y-101052452D01*
X152977452Y-101052455D01*
X152891206Y-101167664D01*
X152891202Y-101167671D01*
X152840908Y-101302517D01*
X152834501Y-101362116D01*
X152834501Y-101362123D01*
X152834500Y-101362135D01*
X152834500Y-101472691D01*
X152814815Y-101539730D01*
X152798181Y-101560372D01*
X152137138Y-102221414D01*
X152114333Y-102136306D01*
X152055090Y-102033694D01*
X151971306Y-101949910D01*
X151868694Y-101890667D01*
X151783584Y-101867861D01*
X152492513Y-101158932D01*
X152428756Y-101112611D01*
X152232410Y-101012567D01*
X152022835Y-100944473D01*
X151805181Y-100910000D01*
X151584819Y-100910000D01*
X151367164Y-100944473D01*
X151287818Y-100970254D01*
X151217976Y-100972249D01*
X151158144Y-100936168D01*
X151127316Y-100873467D01*
X151125500Y-100852323D01*
X151125500Y-98687676D01*
X151145185Y-98620637D01*
X151197989Y-98574882D01*
X151267147Y-98564938D01*
X151287819Y-98569745D01*
X151367167Y-98595527D01*
X151584819Y-98630000D01*
X151805181Y-98630000D01*
X152022835Y-98595526D01*
X152232410Y-98527432D01*
X152428760Y-98427386D01*
X152492513Y-98381066D01*
X152492514Y-98381066D01*
X151783585Y-97672137D01*
X151868694Y-97649333D01*
X151971306Y-97590090D01*
X152055090Y-97506306D01*
X152114333Y-97403694D01*
X152137138Y-97318585D01*
X152798181Y-97979628D01*
X152831666Y-98040951D01*
X152834500Y-98067308D01*
X152834500Y-98177869D01*
X152834501Y-98177876D01*
X152840908Y-98237483D01*
X152891202Y-98372328D01*
X152891206Y-98372335D01*
X152977452Y-98487544D01*
X152977455Y-98487547D01*
X153092664Y-98573793D01*
X153092671Y-98573797D01*
X153227517Y-98624091D01*
X153227516Y-98624091D01*
X153234444Y-98624835D01*
X153287127Y-98630500D01*
X155182872Y-98630499D01*
X155242483Y-98624091D01*
X155377331Y-98573796D01*
X155430689Y-98533851D01*
X155496153Y-98509435D01*
X155564426Y-98524286D01*
X155579311Y-98533852D01*
X155632669Y-98573796D01*
X155632671Y-98573797D01*
X155767517Y-98624091D01*
X155767516Y-98624091D01*
X155774444Y-98624835D01*
X155827127Y-98630500D01*
X157722872Y-98630499D01*
X157782483Y-98624091D01*
X157917331Y-98573796D01*
X158032546Y-98487546D01*
X158118796Y-98372331D01*
X158138315Y-98319999D01*
X158149327Y-98290474D01*
X158157679Y-98268080D01*
X158169091Y-98237483D01*
X158175500Y-98177873D01*
X158175499Y-98067304D01*
X158195183Y-98000268D01*
X158211818Y-97979626D01*
X158872861Y-97318584D01*
X158895667Y-97403694D01*
X158954910Y-97506306D01*
X159038694Y-97590090D01*
X159141306Y-97649333D01*
X159226414Y-97672137D01*
X158517485Y-98381065D01*
X158517485Y-98381066D01*
X158581243Y-98427388D01*
X158777589Y-98527432D01*
X158987164Y-98595526D01*
X159204819Y-98630000D01*
X159425181Y-98630000D01*
X159642835Y-98595526D01*
X159852410Y-98527432D01*
X160048760Y-98427386D01*
X160112513Y-98381066D01*
X160112514Y-98381066D01*
X159403585Y-97672138D01*
X159488694Y-97649333D01*
X159591306Y-97590090D01*
X159675090Y-97506306D01*
X159734333Y-97403694D01*
X159757137Y-97318585D01*
X160466065Y-98027513D01*
X160484680Y-98001893D01*
X160540010Y-97959227D01*
X160609623Y-97953248D01*
X160671419Y-97985853D01*
X160685317Y-98001893D01*
X160703931Y-98027513D01*
X160703932Y-98027513D01*
X161412861Y-97318584D01*
X161435667Y-97403694D01*
X161494910Y-97506306D01*
X161578694Y-97590090D01*
X161681306Y-97649333D01*
X161766414Y-97672137D01*
X161057485Y-98381065D01*
X161057485Y-98381066D01*
X161121243Y-98427388D01*
X161317589Y-98527432D01*
X161527164Y-98595526D01*
X161744819Y-98630000D01*
X161965181Y-98630000D01*
X162182835Y-98595526D01*
X162392410Y-98527432D01*
X162588760Y-98427386D01*
X162652513Y-98381066D01*
X162652514Y-98381066D01*
X161943585Y-97672138D01*
X162028694Y-97649333D01*
X162131306Y-97590090D01*
X162215090Y-97506306D01*
X162274333Y-97403694D01*
X162297138Y-97318585D01*
X162958181Y-97979628D01*
X162991666Y-98040951D01*
X162994500Y-98067308D01*
X162994500Y-98177869D01*
X162994501Y-98177876D01*
X163000908Y-98237483D01*
X163051202Y-98372328D01*
X163051206Y-98372335D01*
X163137452Y-98487544D01*
X163137455Y-98487547D01*
X163252664Y-98573793D01*
X163252671Y-98573797D01*
X163387517Y-98624091D01*
X163387516Y-98624091D01*
X163394444Y-98624835D01*
X163447127Y-98630500D01*
X165342872Y-98630499D01*
X165402483Y-98624091D01*
X165537331Y-98573796D01*
X165652546Y-98487546D01*
X165738796Y-98372331D01*
X165789091Y-98237483D01*
X165795500Y-98177873D01*
X165795499Y-96282128D01*
X165789091Y-96222517D01*
X165788152Y-96220000D01*
X165738797Y-96087671D01*
X165738793Y-96087664D01*
X165652547Y-95972455D01*
X165652544Y-95972452D01*
X165537335Y-95886206D01*
X165537328Y-95886202D01*
X165402482Y-95835908D01*
X165402483Y-95835908D01*
X165342883Y-95829501D01*
X165342881Y-95829500D01*
X165342873Y-95829500D01*
X165342864Y-95829500D01*
X163447129Y-95829500D01*
X163447123Y-95829501D01*
X163387516Y-95835908D01*
X163252671Y-95886202D01*
X163252664Y-95886206D01*
X163137455Y-95972452D01*
X163137452Y-95972455D01*
X163051206Y-96087664D01*
X163051202Y-96087671D01*
X163000908Y-96222517D01*
X162996841Y-96260350D01*
X162994501Y-96282123D01*
X162994500Y-96282135D01*
X162994500Y-96392691D01*
X162974815Y-96459730D01*
X162958181Y-96480372D01*
X162297138Y-97141414D01*
X162274333Y-97056306D01*
X162215090Y-96953694D01*
X162131306Y-96869910D01*
X162028694Y-96810667D01*
X161943583Y-96787861D01*
X162652513Y-96078932D01*
X162588756Y-96032611D01*
X162392410Y-95932567D01*
X162182835Y-95864473D01*
X161965181Y-95830000D01*
X161744819Y-95830000D01*
X161527164Y-95864473D01*
X161317589Y-95932567D01*
X161121233Y-96032616D01*
X161057485Y-96078931D01*
X161057485Y-96078932D01*
X161766414Y-96787861D01*
X161681306Y-96810667D01*
X161578694Y-96869910D01*
X161494910Y-96953694D01*
X161435667Y-97056306D01*
X161412861Y-97141414D01*
X160703932Y-96432485D01*
X160703930Y-96432485D01*
X160685317Y-96458105D01*
X160629988Y-96500771D01*
X160560374Y-96506750D01*
X160498579Y-96474145D01*
X160484681Y-96458105D01*
X160466067Y-96432485D01*
X160466065Y-96432485D01*
X159757137Y-97141413D01*
X159734333Y-97056306D01*
X159675090Y-96953694D01*
X159591306Y-96869910D01*
X159488694Y-96810667D01*
X159403583Y-96787861D01*
X160112513Y-96078932D01*
X160048756Y-96032611D01*
X159852410Y-95932567D01*
X159642835Y-95864473D01*
X159425181Y-95830000D01*
X159204819Y-95830000D01*
X158987164Y-95864473D01*
X158777589Y-95932567D01*
X158581233Y-96032616D01*
X158517485Y-96078931D01*
X158517485Y-96078932D01*
X159226414Y-96787861D01*
X159141306Y-96810667D01*
X159038694Y-96869910D01*
X158954910Y-96953694D01*
X158895667Y-97056306D01*
X158872861Y-97141414D01*
X158211818Y-96480371D01*
X158178333Y-96419048D01*
X158175499Y-96392690D01*
X158175499Y-96282129D01*
X158175498Y-96282123D01*
X158175497Y-96282116D01*
X158169091Y-96222517D01*
X158168152Y-96220000D01*
X158149326Y-96169524D01*
X158118797Y-96087671D01*
X158118793Y-96087664D01*
X158032547Y-95972455D01*
X158032544Y-95972452D01*
X157917335Y-95886206D01*
X157917328Y-95886202D01*
X157782482Y-95835908D01*
X157782483Y-95835908D01*
X157722883Y-95829501D01*
X157722881Y-95829500D01*
X157722873Y-95829500D01*
X157722864Y-95829500D01*
X155827129Y-95829500D01*
X155827123Y-95829501D01*
X155767516Y-95835908D01*
X155632671Y-95886202D01*
X155632669Y-95886203D01*
X155579311Y-95926148D01*
X155513847Y-95950565D01*
X155445574Y-95935714D01*
X155430689Y-95926148D01*
X155377330Y-95886203D01*
X155377328Y-95886202D01*
X155242482Y-95835908D01*
X155242483Y-95835908D01*
X155182883Y-95829501D01*
X155182881Y-95829500D01*
X155182873Y-95829500D01*
X155182864Y-95829500D01*
X153287129Y-95829500D01*
X153287123Y-95829501D01*
X153227516Y-95835908D01*
X153092671Y-95886202D01*
X153092664Y-95886206D01*
X152977455Y-95972452D01*
X152977452Y-95972455D01*
X152891206Y-96087664D01*
X152891202Y-96087671D01*
X152840908Y-96222517D01*
X152836841Y-96260350D01*
X152834501Y-96282123D01*
X152834500Y-96282135D01*
X152834500Y-96392691D01*
X152814815Y-96459730D01*
X152798181Y-96480372D01*
X152137138Y-97141414D01*
X152114333Y-97056306D01*
X152055090Y-96953694D01*
X151971306Y-96869910D01*
X151868694Y-96810667D01*
X151783584Y-96787861D01*
X152492513Y-96078932D01*
X152428756Y-96032611D01*
X152232410Y-95932567D01*
X152022835Y-95864473D01*
X151805181Y-95830000D01*
X151584819Y-95830000D01*
X151367164Y-95864473D01*
X151287818Y-95890254D01*
X151217976Y-95892249D01*
X151158144Y-95856168D01*
X151127316Y-95793467D01*
X151125500Y-95772323D01*
X151125500Y-93607676D01*
X151145185Y-93540637D01*
X151197989Y-93494882D01*
X151267147Y-93484938D01*
X151287819Y-93489745D01*
X151367167Y-93515527D01*
X151584819Y-93550000D01*
X151805181Y-93550000D01*
X152022835Y-93515526D01*
X152232410Y-93447432D01*
X152428760Y-93347386D01*
X152492513Y-93301066D01*
X152492514Y-93301066D01*
X151783585Y-92592137D01*
X151868694Y-92569333D01*
X151971306Y-92510090D01*
X152055090Y-92426306D01*
X152114333Y-92323694D01*
X152137138Y-92238585D01*
X152798181Y-92899628D01*
X152831666Y-92960951D01*
X152834500Y-92987308D01*
X152834500Y-93097869D01*
X152834501Y-93097876D01*
X152840908Y-93157483D01*
X152891202Y-93292328D01*
X152891206Y-93292335D01*
X152977452Y-93407544D01*
X152977455Y-93407547D01*
X153092664Y-93493793D01*
X153092671Y-93493797D01*
X153227517Y-93544091D01*
X153227516Y-93544091D01*
X153234444Y-93544835D01*
X153287127Y-93550500D01*
X155182872Y-93550499D01*
X155242483Y-93544091D01*
X155377331Y-93493796D01*
X155430689Y-93453851D01*
X155496153Y-93429435D01*
X155564426Y-93444286D01*
X155579311Y-93453852D01*
X155632669Y-93493796D01*
X155632671Y-93493797D01*
X155767517Y-93544091D01*
X155767516Y-93544091D01*
X155774444Y-93544835D01*
X155827127Y-93550500D01*
X157722872Y-93550499D01*
X157782483Y-93544091D01*
X157917331Y-93493796D01*
X158032546Y-93407546D01*
X158118796Y-93292331D01*
X158126629Y-93271328D01*
X158149327Y-93210474D01*
X158156397Y-93191518D01*
X158169091Y-93157483D01*
X158175500Y-93097873D01*
X158175499Y-92987304D01*
X158195183Y-92920268D01*
X158211818Y-92899626D01*
X158872861Y-92238584D01*
X158895667Y-92323694D01*
X158954910Y-92426306D01*
X159038694Y-92510090D01*
X159141306Y-92569333D01*
X159226414Y-92592137D01*
X158517485Y-93301065D01*
X158517485Y-93301066D01*
X158581243Y-93347388D01*
X158777589Y-93447432D01*
X158987164Y-93515526D01*
X159204819Y-93550000D01*
X159425181Y-93550000D01*
X159642835Y-93515526D01*
X159852410Y-93447432D01*
X160048760Y-93347386D01*
X160112513Y-93301066D01*
X160112514Y-93301066D01*
X159403585Y-92592138D01*
X159488694Y-92569333D01*
X159591306Y-92510090D01*
X159675090Y-92426306D01*
X159734333Y-92323694D01*
X159757137Y-92238585D01*
X160466066Y-92947514D01*
X160466066Y-92947513D01*
X160512386Y-92883760D01*
X160612432Y-92687410D01*
X160680526Y-92477835D01*
X160715000Y-92260181D01*
X160715000Y-92039818D01*
X160680526Y-91822164D01*
X160612432Y-91612589D01*
X160512388Y-91416243D01*
X160466066Y-91352485D01*
X160466065Y-91352485D01*
X159757137Y-92061413D01*
X159734333Y-91976306D01*
X159675090Y-91873694D01*
X159591306Y-91789910D01*
X159488694Y-91730667D01*
X159403583Y-91707861D01*
X160112513Y-90998932D01*
X160048756Y-90952611D01*
X159852410Y-90852567D01*
X159642835Y-90784473D01*
X159425181Y-90750000D01*
X159204819Y-90750000D01*
X158987164Y-90784473D01*
X158777589Y-90852567D01*
X158581233Y-90952616D01*
X158517485Y-90998931D01*
X158517485Y-90998932D01*
X159226414Y-91707861D01*
X159141306Y-91730667D01*
X159038694Y-91789910D01*
X158954910Y-91873694D01*
X158895667Y-91976306D01*
X158872861Y-92061414D01*
X158211818Y-91400371D01*
X158178333Y-91339048D01*
X158175499Y-91312690D01*
X158175499Y-91202129D01*
X158175498Y-91202123D01*
X158175497Y-91202116D01*
X158169091Y-91142517D01*
X158160391Y-91119192D01*
X158149326Y-91089524D01*
X158118797Y-91007671D01*
X158118793Y-91007664D01*
X158032547Y-90892455D01*
X158032544Y-90892452D01*
X157917335Y-90806206D01*
X157917328Y-90806202D01*
X157782482Y-90755908D01*
X157782483Y-90755908D01*
X157722883Y-90749501D01*
X157722881Y-90749500D01*
X157722873Y-90749500D01*
X157722864Y-90749500D01*
X155827129Y-90749500D01*
X155827123Y-90749501D01*
X155767516Y-90755908D01*
X155632671Y-90806202D01*
X155632669Y-90806203D01*
X155579311Y-90846148D01*
X155513847Y-90870565D01*
X155445574Y-90855714D01*
X155430689Y-90846148D01*
X155377330Y-90806203D01*
X155377328Y-90806202D01*
X155242482Y-90755908D01*
X155242483Y-90755908D01*
X155182883Y-90749501D01*
X155182881Y-90749500D01*
X155182873Y-90749500D01*
X155182864Y-90749500D01*
X153287129Y-90749500D01*
X153287123Y-90749501D01*
X153227516Y-90755908D01*
X153092671Y-90806202D01*
X153092664Y-90806206D01*
X152977455Y-90892452D01*
X152977452Y-90892455D01*
X152891206Y-91007664D01*
X152891202Y-91007671D01*
X152840908Y-91142517D01*
X152834501Y-91202116D01*
X152834501Y-91202123D01*
X152834500Y-91202135D01*
X152834500Y-91312691D01*
X152814815Y-91379730D01*
X152798181Y-91400372D01*
X152137138Y-92061414D01*
X152114333Y-91976306D01*
X152055090Y-91873694D01*
X151971306Y-91789910D01*
X151868694Y-91730667D01*
X151783584Y-91707861D01*
X152492513Y-90998932D01*
X152428756Y-90952611D01*
X152232410Y-90852567D01*
X152022835Y-90784473D01*
X151805181Y-90750000D01*
X151584819Y-90750000D01*
X151367164Y-90784473D01*
X151287818Y-90810254D01*
X151217976Y-90812249D01*
X151158144Y-90776168D01*
X151127316Y-90713467D01*
X151125500Y-90692323D01*
X151125500Y-83975316D01*
X151134939Y-83927864D01*
X151194735Y-83783501D01*
X151194737Y-83783497D01*
X151225500Y-83628842D01*
X151225500Y-83547955D01*
X151245185Y-83480916D01*
X151297989Y-83435161D01*
X151325304Y-83426339D01*
X151358497Y-83419737D01*
X151504179Y-83359394D01*
X151635289Y-83271789D01*
X151746789Y-83160289D01*
X151834394Y-83029179D01*
X151894737Y-82883497D01*
X151925500Y-82728842D01*
X151925500Y-82571158D01*
X151925500Y-82571155D01*
X151925499Y-82571153D01*
X151894738Y-82416510D01*
X151894737Y-82416503D01*
X151894735Y-82416498D01*
X151834397Y-82270827D01*
X151834390Y-82270814D01*
X151746789Y-82139711D01*
X151746786Y-82139707D01*
X151635292Y-82028213D01*
X151635288Y-82028210D01*
X151504185Y-81940609D01*
X151504172Y-81940602D01*
X151358501Y-81880264D01*
X151358489Y-81880261D01*
X151203845Y-81849500D01*
X151203842Y-81849500D01*
X151046158Y-81849500D01*
X151046155Y-81849500D01*
X150891510Y-81880261D01*
X150891498Y-81880264D01*
X150747136Y-81940061D01*
X150699684Y-81949500D01*
X145256004Y-81949500D01*
X145120677Y-81976418D01*
X145120667Y-81976421D01*
X144993192Y-82029222D01*
X144878454Y-82105887D01*
X144878453Y-82105888D01*
X143480886Y-83503457D01*
X141671162Y-85313181D01*
X141609839Y-85346666D01*
X141583481Y-85349500D01*
X140850316Y-85349500D01*
X140802864Y-85340061D01*
X140658501Y-85280264D01*
X140658489Y-85280261D01*
X140503845Y-85249500D01*
X140503842Y-85249500D01*
X140346158Y-85249500D01*
X140346155Y-85249500D01*
X140191510Y-85280261D01*
X140191498Y-85280264D01*
X140045827Y-85340602D01*
X140045814Y-85340609D01*
X139914711Y-85428210D01*
X139914709Y-85428212D01*
X139803213Y-85539707D01*
X139803210Y-85539711D01*
X139715609Y-85670814D01*
X139715602Y-85670827D01*
X139655264Y-85816498D01*
X139655261Y-85816510D01*
X139624500Y-85971153D01*
X139624500Y-86128846D01*
X139655261Y-86283489D01*
X139655264Y-86283501D01*
X139715602Y-86429172D01*
X139715609Y-86429185D01*
X139803210Y-86560288D01*
X139803213Y-86560292D01*
X139914707Y-86671786D01*
X139914711Y-86671789D01*
X140045814Y-86759390D01*
X140045827Y-86759397D01*
X140191498Y-86819735D01*
X140191503Y-86819737D01*
X140346153Y-86850499D01*
X140346156Y-86850500D01*
X140346158Y-86850500D01*
X140503844Y-86850500D01*
X140503845Y-86850499D01*
X140658497Y-86819737D01*
X140733963Y-86788478D01*
X140802864Y-86759939D01*
X140850316Y-86750500D01*
X141993996Y-86750500D01*
X142085040Y-86732389D01*
X142129328Y-86723580D01*
X142193069Y-86697177D01*
X142256807Y-86670777D01*
X142256808Y-86670776D01*
X142256811Y-86670775D01*
X142371543Y-86594114D01*
X144461333Y-84504321D01*
X144461338Y-84504318D01*
X144471541Y-84494114D01*
X144471543Y-84494114D01*
X145578838Y-83386819D01*
X145640161Y-83353334D01*
X145666519Y-83350500D01*
X149500500Y-83350500D01*
X149567539Y-83370185D01*
X149613294Y-83422989D01*
X149624500Y-83474500D01*
X149624500Y-83628846D01*
X149655261Y-83783489D01*
X149655264Y-83783501D01*
X149715061Y-83927864D01*
X149724500Y-83975316D01*
X149724500Y-90692323D01*
X149704815Y-90759362D01*
X149652011Y-90805117D01*
X149582853Y-90815061D01*
X149562182Y-90810254D01*
X149482835Y-90784473D01*
X149265181Y-90750000D01*
X149044819Y-90750000D01*
X148827164Y-90784473D01*
X148617589Y-90852567D01*
X148421233Y-90952616D01*
X148357485Y-90998931D01*
X148357485Y-90998932D01*
X149066414Y-91707861D01*
X148981306Y-91730667D01*
X148878694Y-91789910D01*
X148794910Y-91873694D01*
X148735667Y-91976306D01*
X148712861Y-92061414D01*
X148051818Y-91400371D01*
X148018333Y-91339048D01*
X148015499Y-91312690D01*
X148015499Y-91202129D01*
X148015498Y-91202123D01*
X148015497Y-91202116D01*
X148009091Y-91142517D01*
X148000391Y-91119192D01*
X147958797Y-91007671D01*
X147958793Y-91007664D01*
X147872547Y-90892455D01*
X147872544Y-90892452D01*
X147757335Y-90806206D01*
X147757328Y-90806202D01*
X147622482Y-90755908D01*
X147622483Y-90755908D01*
X147562883Y-90749501D01*
X147562881Y-90749500D01*
X147562873Y-90749500D01*
X147562864Y-90749500D01*
X145667129Y-90749500D01*
X145667123Y-90749501D01*
X145607516Y-90755908D01*
X145472671Y-90806202D01*
X145472669Y-90806203D01*
X145419311Y-90846148D01*
X145353847Y-90870565D01*
X145285574Y-90855714D01*
X145270689Y-90846148D01*
X145217330Y-90806203D01*
X145217328Y-90806202D01*
X145082482Y-90755908D01*
X145082483Y-90755908D01*
X145022883Y-90749501D01*
X145022881Y-90749500D01*
X145022873Y-90749500D01*
X145022864Y-90749500D01*
X143127129Y-90749500D01*
X143127123Y-90749501D01*
X143067516Y-90755908D01*
X142932671Y-90806202D01*
X142932664Y-90806206D01*
X142817455Y-90892452D01*
X142817452Y-90892455D01*
X142731206Y-91007664D01*
X142731202Y-91007671D01*
X142680908Y-91142517D01*
X142674501Y-91202116D01*
X142674501Y-91202123D01*
X142674500Y-91202135D01*
X142674500Y-91312691D01*
X142654815Y-91379730D01*
X142638181Y-91400372D01*
X141977138Y-92061414D01*
X141954333Y-91976306D01*
X141895090Y-91873694D01*
X141811306Y-91789910D01*
X141708694Y-91730667D01*
X141623583Y-91707861D01*
X142332513Y-90998932D01*
X142268756Y-90952611D01*
X142072410Y-90852567D01*
X141862835Y-90784473D01*
X141645181Y-90750000D01*
X141424819Y-90750000D01*
X141207164Y-90784473D01*
X140997589Y-90852567D01*
X140801233Y-90952616D01*
X140737485Y-90998931D01*
X140737485Y-90998932D01*
X141446414Y-91707861D01*
X141361306Y-91730667D01*
X141258694Y-91789910D01*
X141174910Y-91873694D01*
X141115667Y-91976306D01*
X141092861Y-92061414D01*
X140383932Y-91352485D01*
X140383931Y-91352485D01*
X140337616Y-91416233D01*
X140237567Y-91612589D01*
X140169473Y-91822164D01*
X140135000Y-92039818D01*
X140135000Y-92260181D01*
X140169473Y-92477835D01*
X140237567Y-92687410D01*
X140337611Y-92883756D01*
X140383932Y-92947513D01*
X141092861Y-92238584D01*
X141115667Y-92323694D01*
X141174910Y-92426306D01*
X141258694Y-92510090D01*
X141361306Y-92569333D01*
X141446414Y-92592137D01*
X140737485Y-93301065D01*
X140737485Y-93301066D01*
X140801243Y-93347388D01*
X140997589Y-93447432D01*
X141207164Y-93515526D01*
X141424819Y-93550000D01*
X141645181Y-93550000D01*
X141862835Y-93515526D01*
X142072410Y-93447432D01*
X142268760Y-93347386D01*
X142332513Y-93301066D01*
X142332514Y-93301066D01*
X141623585Y-92592138D01*
X141708694Y-92569333D01*
X141811306Y-92510090D01*
X141895090Y-92426306D01*
X141954333Y-92323694D01*
X141977138Y-92238585D01*
X142638181Y-92899628D01*
X142671666Y-92960951D01*
X142674500Y-92987308D01*
X142674500Y-93097869D01*
X142674501Y-93097876D01*
X142680908Y-93157483D01*
X142731202Y-93292328D01*
X142731206Y-93292335D01*
X142817452Y-93407544D01*
X142817455Y-93407547D01*
X142932664Y-93493793D01*
X142932671Y-93493797D01*
X143067517Y-93544091D01*
X143067516Y-93544091D01*
X143074444Y-93544835D01*
X143127127Y-93550500D01*
X145022872Y-93550499D01*
X145082483Y-93544091D01*
X145217331Y-93493796D01*
X145270689Y-93453851D01*
X145336153Y-93429435D01*
X145404426Y-93444286D01*
X145419311Y-93453852D01*
X145472669Y-93493796D01*
X145472671Y-93493797D01*
X145607517Y-93544091D01*
X145607516Y-93544091D01*
X145614444Y-93544835D01*
X145667127Y-93550500D01*
X147562872Y-93550499D01*
X147622483Y-93544091D01*
X147757331Y-93493796D01*
X147872546Y-93407546D01*
X147958796Y-93292331D01*
X148009091Y-93157483D01*
X148015500Y-93097873D01*
X148015499Y-92987304D01*
X148035183Y-92920268D01*
X148051818Y-92899626D01*
X148712861Y-92238584D01*
X148735667Y-92323694D01*
X148794910Y-92426306D01*
X148878694Y-92510090D01*
X148981306Y-92569333D01*
X149066413Y-92592137D01*
X148357485Y-93301065D01*
X148357485Y-93301066D01*
X148421243Y-93347388D01*
X148617589Y-93447432D01*
X148827164Y-93515526D01*
X149044819Y-93550000D01*
X149265181Y-93550000D01*
X149482832Y-93515527D01*
X149562181Y-93489745D01*
X149632022Y-93487750D01*
X149691855Y-93523830D01*
X149722684Y-93586530D01*
X149724500Y-93607676D01*
X149724500Y-95772323D01*
X149704815Y-95839362D01*
X149652011Y-95885117D01*
X149582853Y-95895061D01*
X149562182Y-95890254D01*
X149482835Y-95864473D01*
X149265181Y-95830000D01*
X149044819Y-95830000D01*
X148827164Y-95864473D01*
X148617589Y-95932567D01*
X148421233Y-96032616D01*
X148357485Y-96078931D01*
X148357485Y-96078932D01*
X149066414Y-96787861D01*
X148981306Y-96810667D01*
X148878694Y-96869910D01*
X148794910Y-96953694D01*
X148735667Y-97056306D01*
X148712861Y-97141414D01*
X148051818Y-96480371D01*
X148018333Y-96419048D01*
X148015499Y-96392690D01*
X148015499Y-96282129D01*
X148015498Y-96282123D01*
X148015497Y-96282116D01*
X148009091Y-96222517D01*
X148008152Y-96220000D01*
X147958797Y-96087671D01*
X147958793Y-96087664D01*
X147872547Y-95972455D01*
X147872544Y-95972452D01*
X147757335Y-95886206D01*
X147757328Y-95886202D01*
X147622482Y-95835908D01*
X147622483Y-95835908D01*
X147562883Y-95829501D01*
X147562881Y-95829500D01*
X147562873Y-95829500D01*
X147562864Y-95829500D01*
X145667129Y-95829500D01*
X145667123Y-95829501D01*
X145607516Y-95835908D01*
X145472671Y-95886202D01*
X145472669Y-95886203D01*
X145419311Y-95926148D01*
X145353847Y-95950565D01*
X145285574Y-95935714D01*
X145270689Y-95926148D01*
X145217330Y-95886203D01*
X145217328Y-95886202D01*
X145082482Y-95835908D01*
X145082483Y-95835908D01*
X145022883Y-95829501D01*
X145022881Y-95829500D01*
X145022873Y-95829500D01*
X145022864Y-95829500D01*
X143127129Y-95829500D01*
X143127123Y-95829501D01*
X143067516Y-95835908D01*
X142932671Y-95886202D01*
X142932664Y-95886206D01*
X142817455Y-95972452D01*
X142817452Y-95972455D01*
X142731206Y-96087664D01*
X142731202Y-96087671D01*
X142680908Y-96222517D01*
X142676841Y-96260350D01*
X142674501Y-96282123D01*
X142674500Y-96282135D01*
X142674500Y-96392691D01*
X142654815Y-96459730D01*
X142638181Y-96480372D01*
X141977138Y-97141414D01*
X141954333Y-97056306D01*
X141895090Y-96953694D01*
X141811306Y-96869910D01*
X141708694Y-96810667D01*
X141623583Y-96787861D01*
X142332513Y-96078932D01*
X142268756Y-96032611D01*
X142072410Y-95932567D01*
X141862835Y-95864473D01*
X141645181Y-95830000D01*
X141424819Y-95830000D01*
X141207164Y-95864473D01*
X140997589Y-95932567D01*
X140801233Y-96032616D01*
X140737485Y-96078931D01*
X140737485Y-96078932D01*
X141446414Y-96787861D01*
X141361306Y-96810667D01*
X141258694Y-96869910D01*
X141174910Y-96953694D01*
X141115667Y-97056306D01*
X141092861Y-97141414D01*
X140383932Y-96432485D01*
X140383930Y-96432485D01*
X140365317Y-96458105D01*
X140309988Y-96500771D01*
X140240374Y-96506750D01*
X140178579Y-96474145D01*
X140164681Y-96458105D01*
X140146067Y-96432485D01*
X140146065Y-96432485D01*
X139437137Y-97141413D01*
X139414333Y-97056306D01*
X139355090Y-96953694D01*
X139271306Y-96869910D01*
X139168694Y-96810667D01*
X139083583Y-96787861D01*
X139792513Y-96078932D01*
X139728756Y-96032611D01*
X139532410Y-95932567D01*
X139322835Y-95864473D01*
X139105181Y-95830000D01*
X138884819Y-95830000D01*
X138667164Y-95864473D01*
X138457589Y-95932567D01*
X138261233Y-96032616D01*
X138197485Y-96078931D01*
X138197485Y-96078932D01*
X138906414Y-96787861D01*
X138821306Y-96810667D01*
X138718694Y-96869910D01*
X138634910Y-96953694D01*
X138575667Y-97056306D01*
X138552861Y-97141414D01*
X137891818Y-96480371D01*
X137858333Y-96419048D01*
X137855499Y-96392690D01*
X137855499Y-96282129D01*
X137855498Y-96282123D01*
X137855497Y-96282116D01*
X137849091Y-96222517D01*
X137848152Y-96220000D01*
X137829326Y-96169524D01*
X137798797Y-96087671D01*
X137798793Y-96087664D01*
X137712547Y-95972455D01*
X137712544Y-95972452D01*
X137597335Y-95886206D01*
X137597328Y-95886202D01*
X137462482Y-95835908D01*
X137462483Y-95835908D01*
X137402883Y-95829501D01*
X137402881Y-95829500D01*
X137402873Y-95829500D01*
X137402864Y-95829500D01*
X135507129Y-95829500D01*
X135507123Y-95829501D01*
X135447516Y-95835908D01*
X135312671Y-95886202D01*
X135312664Y-95886206D01*
X135197455Y-95972452D01*
X135197452Y-95972455D01*
X135111206Y-96087664D01*
X135111202Y-96087671D01*
X135060908Y-96222517D01*
X135056841Y-96260350D01*
X135054501Y-96282123D01*
X135054500Y-96282135D01*
X135054500Y-98177870D01*
X135054501Y-98177876D01*
X135060908Y-98237483D01*
X135111202Y-98372328D01*
X135111206Y-98372335D01*
X135197452Y-98487544D01*
X135197455Y-98487547D01*
X135312664Y-98573793D01*
X135312671Y-98573797D01*
X135447517Y-98624091D01*
X135447516Y-98624091D01*
X135454444Y-98624835D01*
X135507127Y-98630500D01*
X137402872Y-98630499D01*
X137462483Y-98624091D01*
X137597331Y-98573796D01*
X137712546Y-98487546D01*
X137798796Y-98372331D01*
X137818315Y-98319999D01*
X137829327Y-98290474D01*
X137837679Y-98268080D01*
X137849091Y-98237483D01*
X137855500Y-98177873D01*
X137855499Y-98067304D01*
X137875183Y-98000268D01*
X137891818Y-97979626D01*
X138552861Y-97318584D01*
X138575667Y-97403694D01*
X138634910Y-97506306D01*
X138718694Y-97590090D01*
X138821306Y-97649333D01*
X138906414Y-97672137D01*
X138197485Y-98381065D01*
X138197485Y-98381066D01*
X138261243Y-98427388D01*
X138457589Y-98527432D01*
X138667164Y-98595526D01*
X138884819Y-98630000D01*
X139105181Y-98630000D01*
X139322835Y-98595526D01*
X139532410Y-98527432D01*
X139728760Y-98427386D01*
X139792513Y-98381066D01*
X139792514Y-98381066D01*
X139083585Y-97672138D01*
X139168694Y-97649333D01*
X139271306Y-97590090D01*
X139355090Y-97506306D01*
X139414333Y-97403694D01*
X139437137Y-97318585D01*
X140146065Y-98027513D01*
X140164680Y-98001893D01*
X140220010Y-97959227D01*
X140289623Y-97953248D01*
X140351419Y-97985853D01*
X140365317Y-98001893D01*
X140383931Y-98027513D01*
X140383932Y-98027513D01*
X141092861Y-97318584D01*
X141115667Y-97403694D01*
X141174910Y-97506306D01*
X141258694Y-97590090D01*
X141361306Y-97649333D01*
X141446414Y-97672137D01*
X140737485Y-98381065D01*
X140737485Y-98381066D01*
X140801243Y-98427388D01*
X140997589Y-98527432D01*
X141207164Y-98595526D01*
X141424819Y-98630000D01*
X141645181Y-98630000D01*
X141862835Y-98595526D01*
X142072410Y-98527432D01*
X142268760Y-98427386D01*
X142332513Y-98381066D01*
X142332514Y-98381066D01*
X141623585Y-97672138D01*
X141708694Y-97649333D01*
X141811306Y-97590090D01*
X141895090Y-97506306D01*
X141954333Y-97403694D01*
X141977138Y-97318585D01*
X142638181Y-97979628D01*
X142671666Y-98040951D01*
X142674500Y-98067308D01*
X142674500Y-98177869D01*
X142674501Y-98177876D01*
X142680908Y-98237483D01*
X142731202Y-98372328D01*
X142731206Y-98372335D01*
X142817452Y-98487544D01*
X142817455Y-98487547D01*
X142932664Y-98573793D01*
X142932671Y-98573797D01*
X143067517Y-98624091D01*
X143067516Y-98624091D01*
X143074444Y-98624835D01*
X143127127Y-98630500D01*
X145022872Y-98630499D01*
X145082483Y-98624091D01*
X145217331Y-98573796D01*
X145270689Y-98533851D01*
X145336153Y-98509435D01*
X145404426Y-98524286D01*
X145419311Y-98533852D01*
X145472669Y-98573796D01*
X145472671Y-98573797D01*
X145607517Y-98624091D01*
X145607516Y-98624091D01*
X145614444Y-98624835D01*
X145667127Y-98630500D01*
X147562872Y-98630499D01*
X147622483Y-98624091D01*
X147757331Y-98573796D01*
X147872546Y-98487546D01*
X147958796Y-98372331D01*
X148009091Y-98237483D01*
X148015500Y-98177873D01*
X148015499Y-98067304D01*
X148035183Y-98000268D01*
X148051818Y-97979626D01*
X148712861Y-97318584D01*
X148735667Y-97403694D01*
X148794910Y-97506306D01*
X148878694Y-97590090D01*
X148981306Y-97649333D01*
X149066413Y-97672137D01*
X148357485Y-98381065D01*
X148357485Y-98381066D01*
X148421243Y-98427388D01*
X148617589Y-98527432D01*
X148827164Y-98595526D01*
X149044819Y-98630000D01*
X149265181Y-98630000D01*
X149482832Y-98595527D01*
X149562181Y-98569745D01*
X149632022Y-98567750D01*
X149691855Y-98603830D01*
X149722684Y-98666530D01*
X149724500Y-98687676D01*
X149724500Y-100852323D01*
X149704815Y-100919362D01*
X149652011Y-100965117D01*
X149582853Y-100975061D01*
X149562182Y-100970254D01*
X149482835Y-100944473D01*
X149265181Y-100910000D01*
X149044819Y-100910000D01*
X148827164Y-100944473D01*
X148617589Y-101012567D01*
X148421233Y-101112616D01*
X148357485Y-101158931D01*
X148357485Y-101158932D01*
X149066414Y-101867861D01*
X148981306Y-101890667D01*
X148878694Y-101949910D01*
X148794910Y-102033694D01*
X148735667Y-102136306D01*
X148712861Y-102221414D01*
X148051818Y-101560371D01*
X148018333Y-101499048D01*
X148015499Y-101472690D01*
X148015499Y-101362129D01*
X148015498Y-101362123D01*
X148015497Y-101362116D01*
X148009091Y-101302517D01*
X148001998Y-101283501D01*
X147958797Y-101167671D01*
X147958793Y-101167664D01*
X147872547Y-101052455D01*
X147872544Y-101052452D01*
X147757335Y-100966206D01*
X147757328Y-100966202D01*
X147622482Y-100915908D01*
X147622483Y-100915908D01*
X147562883Y-100909501D01*
X147562881Y-100909500D01*
X147562873Y-100909500D01*
X147562864Y-100909500D01*
X145667129Y-100909500D01*
X145667123Y-100909501D01*
X145607516Y-100915908D01*
X145472671Y-100966202D01*
X145472669Y-100966203D01*
X145419311Y-101006148D01*
X145353847Y-101030565D01*
X145285574Y-101015714D01*
X145270689Y-101006148D01*
X145217330Y-100966203D01*
X145217328Y-100966202D01*
X145082482Y-100915908D01*
X145082483Y-100915908D01*
X145022883Y-100909501D01*
X145022881Y-100909500D01*
X145022873Y-100909500D01*
X145022864Y-100909500D01*
X143127129Y-100909500D01*
X143127123Y-100909501D01*
X143067516Y-100915908D01*
X142932671Y-100966202D01*
X142932664Y-100966206D01*
X142817455Y-101052452D01*
X142817452Y-101052455D01*
X142731206Y-101167664D01*
X142731202Y-101167671D01*
X142680908Y-101302517D01*
X142674501Y-101362116D01*
X142674501Y-101362123D01*
X142674500Y-101362135D01*
X142674500Y-101472691D01*
X142654815Y-101539730D01*
X142638181Y-101560372D01*
X141977138Y-102221414D01*
X141954333Y-102136306D01*
X141895090Y-102033694D01*
X141811306Y-101949910D01*
X141708694Y-101890667D01*
X141623583Y-101867861D01*
X142332513Y-101158932D01*
X142268756Y-101112611D01*
X142072410Y-101012567D01*
X141862835Y-100944473D01*
X141645181Y-100910000D01*
X141424819Y-100910000D01*
X141207164Y-100944473D01*
X140997589Y-101012567D01*
X140801233Y-101112616D01*
X140737485Y-101158931D01*
X140737485Y-101158932D01*
X141446414Y-101867861D01*
X141361306Y-101890667D01*
X141258694Y-101949910D01*
X141174910Y-102033694D01*
X141115667Y-102136306D01*
X141092861Y-102221414D01*
X140383932Y-101512485D01*
X140383930Y-101512485D01*
X140365317Y-101538105D01*
X140309988Y-101580771D01*
X140240374Y-101586750D01*
X140178579Y-101554145D01*
X140164681Y-101538105D01*
X140146067Y-101512485D01*
X140146065Y-101512485D01*
X139437137Y-102221413D01*
X139414333Y-102136306D01*
X139355090Y-102033694D01*
X139271306Y-101949910D01*
X139168694Y-101890667D01*
X139083583Y-101867861D01*
X139792513Y-101158932D01*
X139728756Y-101112611D01*
X139532410Y-101012567D01*
X139322835Y-100944473D01*
X139105181Y-100910000D01*
X138884819Y-100910000D01*
X138667164Y-100944473D01*
X138457589Y-101012567D01*
X138261233Y-101112616D01*
X138197485Y-101158931D01*
X138197485Y-101158932D01*
X138906414Y-101867861D01*
X138821306Y-101890667D01*
X138718694Y-101949910D01*
X138634910Y-102033694D01*
X138575667Y-102136306D01*
X138552861Y-102221414D01*
X137891818Y-101560371D01*
X137858333Y-101499048D01*
X137855499Y-101472690D01*
X137855499Y-101362129D01*
X137855498Y-101362123D01*
X137855497Y-101362116D01*
X137849091Y-101302517D01*
X137841998Y-101283501D01*
X137829326Y-101249524D01*
X137798797Y-101167671D01*
X137798793Y-101167664D01*
X137712547Y-101052455D01*
X137712544Y-101052452D01*
X137597335Y-100966206D01*
X137597328Y-100966202D01*
X137462482Y-100915908D01*
X137462483Y-100915908D01*
X137402883Y-100909501D01*
X137402881Y-100909500D01*
X137402873Y-100909500D01*
X137402864Y-100909500D01*
X135507129Y-100909500D01*
X135507123Y-100909501D01*
X135447516Y-100915908D01*
X135312671Y-100966202D01*
X135312664Y-100966206D01*
X135197455Y-101052452D01*
X135197452Y-101052455D01*
X135111206Y-101167664D01*
X135111202Y-101167671D01*
X135060908Y-101302517D01*
X135054501Y-101362116D01*
X135054501Y-101362123D01*
X135054500Y-101362135D01*
X135054500Y-103257870D01*
X135054501Y-103257876D01*
X135060908Y-103317483D01*
X135111202Y-103452328D01*
X135111206Y-103452335D01*
X135197452Y-103567544D01*
X135197455Y-103567547D01*
X135275850Y-103626234D01*
X135317721Y-103682168D01*
X135322705Y-103751859D01*
X135289219Y-103813182D01*
X135227896Y-103846666D01*
X135201539Y-103849500D01*
X131211669Y-103849500D01*
X131211653Y-103849499D01*
X131204057Y-103849499D01*
X131045943Y-103849499D01*
X130893215Y-103890423D01*
X130845123Y-103918189D01*
X130845122Y-103918189D01*
X130756290Y-103969475D01*
X130756282Y-103969481D01*
X130644478Y-104081286D01*
X129189519Y-105536244D01*
X129128196Y-105569729D01*
X129058504Y-105564745D01*
X129002571Y-105522873D01*
X128998736Y-105517454D01*
X128946398Y-105439125D01*
X128925520Y-105372448D01*
X128925500Y-105370234D01*
X128925500Y-104974500D01*
X128945185Y-104907461D01*
X128997989Y-104861706D01*
X129049500Y-104850500D01*
X129203844Y-104850500D01*
X129203845Y-104850499D01*
X129358497Y-104819737D01*
X129504179Y-104759394D01*
X129635289Y-104671789D01*
X129746789Y-104560289D01*
X129834394Y-104429179D01*
X129894737Y-104283497D01*
X129914113Y-104186085D01*
X129925638Y-104128150D01*
X129958023Y-104066239D01*
X129959519Y-104064715D01*
X133183506Y-100840727D01*
X133183511Y-100840724D01*
X133193714Y-100830520D01*
X133193716Y-100830520D01*
X133305520Y-100718716D01*
X133372064Y-100603458D01*
X133384577Y-100581785D01*
X133425500Y-100429057D01*
X133425500Y-100270943D01*
X133425500Y-96450096D01*
X133434144Y-96420655D01*
X133440668Y-96390669D01*
X133444422Y-96385653D01*
X133445185Y-96383057D01*
X133461815Y-96362419D01*
X133783506Y-96040727D01*
X133783511Y-96040724D01*
X133793714Y-96030520D01*
X133793716Y-96030520D01*
X133905520Y-95918716D01*
X133962665Y-95819737D01*
X133984577Y-95781785D01*
X134025500Y-95629057D01*
X134025500Y-95470943D01*
X134025500Y-94071153D01*
X134824500Y-94071153D01*
X134824500Y-94228846D01*
X134855261Y-94383489D01*
X134855264Y-94383501D01*
X134915602Y-94529172D01*
X134915609Y-94529185D01*
X135003210Y-94660288D01*
X135003213Y-94660292D01*
X135114707Y-94771786D01*
X135114711Y-94771789D01*
X135245814Y-94859390D01*
X135245827Y-94859397D01*
X135391498Y-94919735D01*
X135391503Y-94919737D01*
X135546153Y-94950499D01*
X135546156Y-94950500D01*
X135546158Y-94950500D01*
X135703844Y-94950500D01*
X135703845Y-94950499D01*
X135858497Y-94919737D01*
X136004179Y-94859394D01*
X136135289Y-94771789D01*
X136246789Y-94660289D01*
X136334394Y-94529179D01*
X136394737Y-94383497D01*
X136425500Y-94228842D01*
X136425500Y-94071158D01*
X136425500Y-94071155D01*
X136425499Y-94071153D01*
X136394738Y-93916510D01*
X136394737Y-93916503D01*
X136334939Y-93772136D01*
X136325500Y-93724684D01*
X136325500Y-93191518D01*
X136345185Y-93124479D01*
X136361814Y-93103842D01*
X138319586Y-91146069D01*
X138359810Y-91119192D01*
X138431438Y-91089524D01*
X138504173Y-91059397D01*
X138504176Y-91059395D01*
X138504179Y-91059394D01*
X138635289Y-90971789D01*
X138635292Y-90971786D01*
X138648569Y-90958510D01*
X138746786Y-90860292D01*
X138746789Y-90860289D01*
X138834394Y-90729179D01*
X138894737Y-90583497D01*
X138925500Y-90428842D01*
X138925500Y-90271158D01*
X138925500Y-90271155D01*
X138925499Y-90271153D01*
X138894737Y-90116503D01*
X138853314Y-90016498D01*
X138834397Y-89970827D01*
X138834390Y-89970814D01*
X138746789Y-89839711D01*
X138746786Y-89839707D01*
X138635292Y-89728213D01*
X138635288Y-89728210D01*
X138504185Y-89640609D01*
X138504172Y-89640602D01*
X138358501Y-89580264D01*
X138358489Y-89580261D01*
X138203845Y-89549500D01*
X138203842Y-89549500D01*
X138046158Y-89549500D01*
X138046155Y-89549500D01*
X137891510Y-89580261D01*
X137891498Y-89580264D01*
X137745827Y-89640602D01*
X137745814Y-89640609D01*
X137614711Y-89728210D01*
X137614707Y-89728213D01*
X137503213Y-89839707D01*
X137503210Y-89839711D01*
X137415609Y-89970814D01*
X137415604Y-89970823D01*
X137355809Y-90115184D01*
X137328929Y-90155412D01*
X135080887Y-92403454D01*
X135004222Y-92518192D01*
X134951421Y-92645667D01*
X134951418Y-92645679D01*
X134929493Y-92755905D01*
X134929493Y-92755908D01*
X134924500Y-92781006D01*
X134924500Y-93724684D01*
X134915061Y-93772136D01*
X134855264Y-93916498D01*
X134855261Y-93916510D01*
X134824500Y-94071153D01*
X134025500Y-94071153D01*
X134025500Y-91250097D01*
X134045185Y-91183058D01*
X134061819Y-91162416D01*
X136100847Y-89123388D01*
X138339662Y-86884572D01*
X138400983Y-86851089D01*
X138403150Y-86850638D01*
X138461085Y-86839113D01*
X138558497Y-86819737D01*
X138704179Y-86759394D01*
X138835289Y-86671789D01*
X138946789Y-86560289D01*
X139034394Y-86429179D01*
X139094737Y-86283497D01*
X139125500Y-86128842D01*
X139125500Y-85971158D01*
X139125500Y-85971155D01*
X139125499Y-85971153D01*
X139123761Y-85962416D01*
X139094737Y-85816503D01*
X139094735Y-85816498D01*
X139034397Y-85670827D01*
X139034390Y-85670814D01*
X138946789Y-85539711D01*
X138946786Y-85539707D01*
X138835291Y-85428212D01*
X138835288Y-85428210D01*
X138704185Y-85340609D01*
X138704172Y-85340602D01*
X138558501Y-85280264D01*
X138558489Y-85280261D01*
X138403845Y-85249500D01*
X138403842Y-85249500D01*
X138246158Y-85249500D01*
X138246155Y-85249500D01*
X138091510Y-85280261D01*
X138091498Y-85280264D01*
X137945827Y-85340602D01*
X137945814Y-85340609D01*
X137814711Y-85428210D01*
X137814709Y-85428212D01*
X137703213Y-85539707D01*
X137703210Y-85539711D01*
X137615609Y-85670814D01*
X137615602Y-85670827D01*
X137555264Y-85816498D01*
X137555261Y-85816508D01*
X137524361Y-85971850D01*
X137491976Y-86033761D01*
X137490425Y-86035339D01*
X133854102Y-89671661D01*
X133792779Y-89705146D01*
X133723087Y-89700162D01*
X133678740Y-89671661D01*
X133635292Y-89628213D01*
X133635288Y-89628210D01*
X133504185Y-89540609D01*
X133504172Y-89540602D01*
X133358501Y-89480264D01*
X133358489Y-89480261D01*
X133203845Y-89449500D01*
X133203842Y-89449500D01*
X133046158Y-89449500D01*
X133046155Y-89449500D01*
X132891510Y-89480261D01*
X132891498Y-89480264D01*
X132745827Y-89540602D01*
X132745814Y-89540609D01*
X132614711Y-89628210D01*
X132614707Y-89628213D01*
X132503213Y-89739707D01*
X132503210Y-89739711D01*
X132415609Y-89870814D01*
X132415602Y-89870827D01*
X132355264Y-90016498D01*
X132355261Y-90016510D01*
X132324500Y-90171153D01*
X132324500Y-90328846D01*
X132355261Y-90483489D01*
X132355264Y-90483501D01*
X132415602Y-90629172D01*
X132415609Y-90629185D01*
X132503210Y-90760288D01*
X132503213Y-90760292D01*
X132614707Y-90871786D01*
X132614711Y-90871789D01*
X132745813Y-90959389D01*
X132745814Y-90959389D01*
X132745821Y-90959394D01*
X132747945Y-90960274D01*
X132748888Y-90961033D01*
X132751187Y-90962262D01*
X132750954Y-90962697D01*
X132802349Y-91004107D01*
X132824421Y-91070399D01*
X132824500Y-91074837D01*
X132824500Y-94418059D01*
X132804815Y-94485098D01*
X132752011Y-94530853D01*
X132682853Y-94540797D01*
X132619297Y-94511772D01*
X132612819Y-94505740D01*
X132535292Y-94428213D01*
X132535288Y-94428210D01*
X132404185Y-94340609D01*
X132404172Y-94340602D01*
X132258501Y-94280264D01*
X132258489Y-94280261D01*
X132103845Y-94249500D01*
X132103842Y-94249500D01*
X131946158Y-94249500D01*
X131946155Y-94249500D01*
X131791510Y-94280261D01*
X131791498Y-94280264D01*
X131645827Y-94340602D01*
X131645814Y-94340609D01*
X131514711Y-94428210D01*
X131514707Y-94428213D01*
X131403213Y-94539707D01*
X131403210Y-94539711D01*
X131315609Y-94670814D01*
X131315602Y-94670827D01*
X131255264Y-94816498D01*
X131255261Y-94816510D01*
X131224500Y-94971153D01*
X131224500Y-95128846D01*
X131255261Y-95283489D01*
X131255264Y-95283501D01*
X131315602Y-95429172D01*
X131315609Y-95429185D01*
X131403602Y-95560874D01*
X131424480Y-95627551D01*
X131424500Y-95629765D01*
X131424500Y-99149903D01*
X131404815Y-99216942D01*
X131388181Y-99237584D01*
X129456284Y-101169481D01*
X127956286Y-102669478D01*
X127844481Y-102781282D01*
X127844480Y-102781284D01*
X127796338Y-102864669D01*
X127765423Y-102918215D01*
X127724499Y-103070943D01*
X127724499Y-103070945D01*
X127724499Y-103239046D01*
X127724500Y-103239059D01*
X127724500Y-105063444D01*
X127704815Y-105130483D01*
X127652011Y-105176238D01*
X127582853Y-105186182D01*
X127564575Y-105181202D01*
X127564324Y-105182031D01*
X127558500Y-105180264D01*
X127558497Y-105180263D01*
X127558492Y-105180262D01*
X127558489Y-105180261D01*
X127403845Y-105149500D01*
X127403842Y-105149500D01*
X127246158Y-105149500D01*
X127246155Y-105149500D01*
X127091510Y-105180261D01*
X127091498Y-105180264D01*
X126945827Y-105240602D01*
X126945814Y-105240609D01*
X126814711Y-105328210D01*
X126814707Y-105328213D01*
X126703213Y-105439707D01*
X126703210Y-105439711D01*
X126615609Y-105570814D01*
X126615602Y-105570827D01*
X126555264Y-105716498D01*
X126555261Y-105716508D01*
X126524361Y-105871850D01*
X126491976Y-105933761D01*
X126490425Y-105935339D01*
X126312584Y-106113181D01*
X126251261Y-106146666D01*
X126224903Y-106149500D01*
X125911668Y-106149500D01*
X125904060Y-106149499D01*
X125904057Y-106149499D01*
X125756941Y-106149499D01*
X125689902Y-106129814D01*
X125644147Y-106077010D01*
X125634204Y-106007851D01*
X125643809Y-105986819D01*
X125663229Y-105944296D01*
X125669261Y-105937818D01*
X125746786Y-105860292D01*
X125746789Y-105860289D01*
X125834394Y-105729179D01*
X125839643Y-105716508D01*
X125894735Y-105583501D01*
X125894737Y-105583497D01*
X125925500Y-105428842D01*
X125925500Y-105271158D01*
X125925500Y-105271155D01*
X125925499Y-105271153D01*
X125907771Y-105182031D01*
X125894737Y-105116503D01*
X125894735Y-105116498D01*
X125834397Y-104970827D01*
X125834390Y-104970814D01*
X125746398Y-104839125D01*
X125725520Y-104772447D01*
X125725500Y-104770234D01*
X125725500Y-98179391D01*
X125745185Y-98112352D01*
X125797989Y-98066597D01*
X125867147Y-98056653D01*
X125925493Y-98082362D01*
X125925599Y-98082205D01*
X125926493Y-98082802D01*
X125928169Y-98083541D01*
X125930667Y-98085591D01*
X126102631Y-98200494D01*
X126102641Y-98200499D01*
X126293725Y-98279649D01*
X126293733Y-98279651D01*
X126496579Y-98319999D01*
X126496583Y-98320000D01*
X126650000Y-98320000D01*
X126650000Y-97570000D01*
X127150000Y-97570000D01*
X127150000Y-98320000D01*
X127303417Y-98320000D01*
X127303420Y-98319999D01*
X127506266Y-98279651D01*
X127506274Y-98279649D01*
X127697358Y-98200499D01*
X127697368Y-98200494D01*
X127869335Y-98085589D01*
X127869339Y-98085586D01*
X128015586Y-97939339D01*
X128015589Y-97939335D01*
X128130494Y-97767368D01*
X128130499Y-97767358D01*
X128209648Y-97576276D01*
X128209649Y-97576274D01*
X128220843Y-97520000D01*
X127366988Y-97520000D01*
X127384205Y-97510060D01*
X127440060Y-97454205D01*
X127479556Y-97385796D01*
X127500000Y-97309496D01*
X127500000Y-97230504D01*
X127479556Y-97154204D01*
X127440060Y-97085795D01*
X127384205Y-97029940D01*
X127366988Y-97020000D01*
X128220843Y-97020000D01*
X128209649Y-96963725D01*
X128209648Y-96963723D01*
X128130499Y-96772641D01*
X128130494Y-96772631D01*
X128015589Y-96600664D01*
X128015586Y-96600660D01*
X127869339Y-96454413D01*
X127869335Y-96454410D01*
X127697368Y-96339505D01*
X127697358Y-96339500D01*
X127506274Y-96260350D01*
X127506266Y-96260348D01*
X127303420Y-96220000D01*
X127150000Y-96220000D01*
X127150000Y-96970000D01*
X126650000Y-96970000D01*
X126650000Y-96220000D01*
X126496579Y-96220000D01*
X126293733Y-96260348D01*
X126293725Y-96260350D01*
X126102641Y-96339500D01*
X126102631Y-96339505D01*
X125930659Y-96454413D01*
X125928161Y-96456464D01*
X125926596Y-96457128D01*
X125925599Y-96457795D01*
X125925472Y-96457605D01*
X125863850Y-96483775D01*
X125794983Y-96471981D01*
X125743425Y-96424827D01*
X125725500Y-96360608D01*
X125725500Y-89539391D01*
X125745185Y-89472352D01*
X125797989Y-89426597D01*
X125867147Y-89416653D01*
X125925493Y-89442362D01*
X125925599Y-89442205D01*
X125926493Y-89442802D01*
X125928169Y-89443541D01*
X125930667Y-89445591D01*
X126102631Y-89560494D01*
X126102641Y-89560499D01*
X126293725Y-89639649D01*
X126293733Y-89639651D01*
X126496579Y-89679999D01*
X126496583Y-89680000D01*
X126650000Y-89680000D01*
X126650000Y-88930000D01*
X127150000Y-88930000D01*
X127150000Y-89680000D01*
X127303417Y-89680000D01*
X127303420Y-89679999D01*
X127506266Y-89639651D01*
X127506274Y-89639649D01*
X127697358Y-89560499D01*
X127697368Y-89560494D01*
X127869335Y-89445589D01*
X127869339Y-89445586D01*
X128015586Y-89299339D01*
X128015589Y-89299335D01*
X128130494Y-89127368D01*
X128130499Y-89127358D01*
X128209648Y-88936276D01*
X128209649Y-88936274D01*
X128220843Y-88880000D01*
X127366988Y-88880000D01*
X127384205Y-88870060D01*
X127440060Y-88814205D01*
X127479556Y-88745796D01*
X127500000Y-88669496D01*
X127500000Y-88590504D01*
X127479556Y-88514204D01*
X127440060Y-88445795D01*
X127384205Y-88389940D01*
X127366988Y-88380000D01*
X128220843Y-88380000D01*
X128209649Y-88323725D01*
X128209648Y-88323723D01*
X128130499Y-88132641D01*
X128130494Y-88132631D01*
X128015589Y-87960664D01*
X128015586Y-87960660D01*
X127869339Y-87814413D01*
X127869335Y-87814410D01*
X127697368Y-87699505D01*
X127697358Y-87699500D01*
X127506274Y-87620350D01*
X127506266Y-87620348D01*
X127303420Y-87580000D01*
X127150000Y-87580000D01*
X127150000Y-88330000D01*
X126650000Y-88330000D01*
X126650000Y-87580000D01*
X126496579Y-87580000D01*
X126293733Y-87620348D01*
X126293725Y-87620350D01*
X126102641Y-87699500D01*
X126102631Y-87699505D01*
X125930659Y-87814413D01*
X125928161Y-87816464D01*
X125926596Y-87817128D01*
X125925599Y-87817795D01*
X125925472Y-87817605D01*
X125863850Y-87843775D01*
X125794983Y-87831981D01*
X125743425Y-87784827D01*
X125725500Y-87720608D01*
X125725500Y-86050097D01*
X125745185Y-85983058D01*
X125761819Y-85962416D01*
X130137416Y-81586819D01*
X130198739Y-81553334D01*
X130225097Y-81550500D01*
X155924903Y-81550500D01*
X155991942Y-81570185D01*
G37*
%TD.AperFunction*%
%TA.AperFunction,Conductor*%
G36*
X138575667Y-102483694D02*
G01*
X138634910Y-102586306D01*
X138718694Y-102670090D01*
X138821306Y-102729333D01*
X138906414Y-102752137D01*
X138197485Y-103461065D01*
X138197485Y-103461066D01*
X138261243Y-103507388D01*
X138457587Y-103607431D01*
X138458008Y-103607568D01*
X138458149Y-103607664D01*
X138462090Y-103609297D01*
X138461747Y-103610124D01*
X138515684Y-103647004D01*
X138542883Y-103711362D01*
X138530971Y-103780209D01*
X138483728Y-103831686D01*
X138419692Y-103849500D01*
X137708461Y-103849500D01*
X137641422Y-103829815D01*
X137595667Y-103777011D01*
X137585723Y-103707853D01*
X137614748Y-103644297D01*
X137634150Y-103626234D01*
X137693490Y-103581811D01*
X137712546Y-103567546D01*
X137798796Y-103452331D01*
X137849091Y-103317483D01*
X137855500Y-103257873D01*
X137855499Y-103147304D01*
X137875183Y-103080268D01*
X137891818Y-103059626D01*
X138552861Y-102398584D01*
X138575667Y-102483694D01*
G37*
%TD.AperFunction*%
%TA.AperFunction,Conductor*%
G36*
X141115667Y-102483694D02*
G01*
X141174910Y-102586306D01*
X141258694Y-102670090D01*
X141361306Y-102729333D01*
X141446414Y-102752137D01*
X140737485Y-103461065D01*
X140737485Y-103461066D01*
X140801243Y-103507388D01*
X140997587Y-103607431D01*
X140998008Y-103607568D01*
X140998149Y-103607664D01*
X141002090Y-103609297D01*
X141001747Y-103610124D01*
X141055684Y-103647004D01*
X141082883Y-103711362D01*
X141070971Y-103780209D01*
X141023728Y-103831686D01*
X140959692Y-103849500D01*
X139570308Y-103849500D01*
X139503269Y-103829815D01*
X139457514Y-103777011D01*
X139447570Y-103707853D01*
X139476595Y-103644297D01*
X139528227Y-103610063D01*
X139527910Y-103609297D01*
X139531838Y-103607669D01*
X139531992Y-103607568D01*
X139532412Y-103607431D01*
X139728760Y-103507386D01*
X139792513Y-103461066D01*
X139792514Y-103461066D01*
X139083585Y-102752138D01*
X139168694Y-102729333D01*
X139271306Y-102670090D01*
X139355090Y-102586306D01*
X139414333Y-102483694D01*
X139437137Y-102398585D01*
X140146065Y-103107513D01*
X140164680Y-103081893D01*
X140220010Y-103039227D01*
X140289623Y-103033248D01*
X140351419Y-103065853D01*
X140365317Y-103081893D01*
X140383931Y-103107513D01*
X140383932Y-103107513D01*
X141092861Y-102398584D01*
X141115667Y-102483694D01*
G37*
%TD.AperFunction*%
%TA.AperFunction,Conductor*%
G36*
X142638181Y-103059628D02*
G01*
X142671666Y-103120951D01*
X142674500Y-103147308D01*
X142674500Y-103257869D01*
X142674501Y-103257876D01*
X142680908Y-103317483D01*
X142731202Y-103452328D01*
X142731206Y-103452335D01*
X142817452Y-103567544D01*
X142817455Y-103567547D01*
X142895850Y-103626234D01*
X142937721Y-103682168D01*
X142942705Y-103751859D01*
X142909219Y-103813182D01*
X142847896Y-103846666D01*
X142821539Y-103849500D01*
X142110308Y-103849500D01*
X142043269Y-103829815D01*
X141997514Y-103777011D01*
X141987570Y-103707853D01*
X142016595Y-103644297D01*
X142068227Y-103610063D01*
X142067910Y-103609297D01*
X142071838Y-103607669D01*
X142071992Y-103607568D01*
X142072412Y-103607431D01*
X142268760Y-103507386D01*
X142332513Y-103461066D01*
X142332514Y-103461066D01*
X141623585Y-102752138D01*
X141708694Y-102729333D01*
X141811306Y-102670090D01*
X141895090Y-102586306D01*
X141954333Y-102483694D01*
X141977138Y-102398585D01*
X142638181Y-103059628D01*
G37*
%TD.AperFunction*%
%TA.AperFunction,Conductor*%
G36*
X148735667Y-102483694D02*
G01*
X148794910Y-102586306D01*
X148878694Y-102670090D01*
X148981306Y-102729333D01*
X149066413Y-102752137D01*
X148357485Y-103461065D01*
X148357485Y-103461066D01*
X148382855Y-103479498D01*
X148425522Y-103534827D01*
X148431502Y-103604441D01*
X148398897Y-103666236D01*
X148357424Y-103694378D01*
X148245824Y-103740604D01*
X148245814Y-103740609D01*
X148114125Y-103828602D01*
X148096078Y-103834252D01*
X148080169Y-103844477D01*
X148049207Y-103848928D01*
X148047447Y-103849480D01*
X148045234Y-103849500D01*
X147868461Y-103849500D01*
X147801422Y-103829815D01*
X147755667Y-103777011D01*
X147745723Y-103707853D01*
X147774748Y-103644297D01*
X147794150Y-103626234D01*
X147853490Y-103581811D01*
X147872546Y-103567546D01*
X147958796Y-103452331D01*
X148009091Y-103317483D01*
X148015500Y-103257873D01*
X148015499Y-103147304D01*
X148035183Y-103080268D01*
X148051818Y-103059626D01*
X148712861Y-102398584D01*
X148735667Y-102483694D01*
G37*
%TD.AperFunction*%
%TA.AperFunction,Conductor*%
G36*
X152798181Y-103059628D02*
G01*
X152831666Y-103120951D01*
X152834500Y-103147308D01*
X152834500Y-103257869D01*
X152834501Y-103257876D01*
X152840908Y-103317483D01*
X152891202Y-103452328D01*
X152891206Y-103452335D01*
X152977452Y-103567544D01*
X152977455Y-103567547D01*
X153055850Y-103626234D01*
X153097721Y-103682168D01*
X153102705Y-103751859D01*
X153069219Y-103813182D01*
X153007896Y-103846666D01*
X152981539Y-103849500D01*
X152270308Y-103849500D01*
X152203269Y-103829815D01*
X152157514Y-103777011D01*
X152147570Y-103707853D01*
X152176595Y-103644297D01*
X152228227Y-103610063D01*
X152227910Y-103609297D01*
X152231838Y-103607669D01*
X152231992Y-103607568D01*
X152232412Y-103607431D01*
X152428760Y-103507386D01*
X152492513Y-103461066D01*
X152492514Y-103461066D01*
X151783585Y-102752137D01*
X151868694Y-102729333D01*
X151971306Y-102670090D01*
X152055090Y-102586306D01*
X152114333Y-102483694D01*
X152137138Y-102398585D01*
X152798181Y-103059628D01*
G37*
%TD.AperFunction*%
%TA.AperFunction,Conductor*%
G36*
X158895667Y-102483694D02*
G01*
X158954910Y-102586306D01*
X159038694Y-102670090D01*
X159141306Y-102729333D01*
X159226414Y-102752137D01*
X158517485Y-103461065D01*
X158517485Y-103461066D01*
X158581243Y-103507388D01*
X158777587Y-103607431D01*
X158778008Y-103607568D01*
X158778149Y-103607664D01*
X158782090Y-103609297D01*
X158781747Y-103610124D01*
X158835684Y-103647004D01*
X158862883Y-103711362D01*
X158850971Y-103780209D01*
X158803728Y-103831686D01*
X158739692Y-103849500D01*
X158028461Y-103849500D01*
X157961422Y-103829815D01*
X157915667Y-103777011D01*
X157905723Y-103707853D01*
X157934748Y-103644297D01*
X157954150Y-103626234D01*
X158013490Y-103581811D01*
X158032546Y-103567546D01*
X158118796Y-103452331D01*
X158169091Y-103317483D01*
X158175500Y-103257873D01*
X158175499Y-103147304D01*
X158195183Y-103080268D01*
X158211818Y-103059626D01*
X158872861Y-102398584D01*
X158895667Y-102483694D01*
G37*
%TD.AperFunction*%
%TA.AperFunction,Conductor*%
G36*
X161435667Y-102483694D02*
G01*
X161494910Y-102586306D01*
X161578694Y-102670090D01*
X161681306Y-102729333D01*
X161766414Y-102752137D01*
X161057485Y-103461065D01*
X161057485Y-103461066D01*
X161121243Y-103507388D01*
X161317587Y-103607431D01*
X161318008Y-103607568D01*
X161318149Y-103607664D01*
X161322090Y-103609297D01*
X161321747Y-103610124D01*
X161375684Y-103647004D01*
X161402883Y-103711362D01*
X161390971Y-103780209D01*
X161343728Y-103831686D01*
X161279692Y-103849500D01*
X159890308Y-103849500D01*
X159823269Y-103829815D01*
X159777514Y-103777011D01*
X159767570Y-103707853D01*
X159796595Y-103644297D01*
X159848227Y-103610063D01*
X159847910Y-103609297D01*
X159851838Y-103607669D01*
X159851992Y-103607568D01*
X159852412Y-103607431D01*
X160048760Y-103507386D01*
X160112513Y-103461066D01*
X160112514Y-103461066D01*
X159403585Y-102752138D01*
X159488694Y-102729333D01*
X159591306Y-102670090D01*
X159675090Y-102586306D01*
X159734333Y-102483694D01*
X159757137Y-102398585D01*
X160466065Y-103107513D01*
X160484680Y-103081893D01*
X160540010Y-103039227D01*
X160609623Y-103033248D01*
X160671419Y-103065853D01*
X160685317Y-103081893D01*
X160703931Y-103107513D01*
X160703932Y-103107513D01*
X161412861Y-102398584D01*
X161435667Y-102483694D01*
G37*
%TD.AperFunction*%
%TA.AperFunction,Conductor*%
G36*
X162958181Y-103059628D02*
G01*
X162991666Y-103120951D01*
X162994500Y-103147308D01*
X162994500Y-103257869D01*
X162994501Y-103257876D01*
X163000908Y-103317483D01*
X163051202Y-103452328D01*
X163051206Y-103452335D01*
X163137452Y-103567544D01*
X163137455Y-103567547D01*
X163215850Y-103626234D01*
X163257721Y-103682168D01*
X163262705Y-103751859D01*
X163229219Y-103813182D01*
X163167896Y-103846666D01*
X163141539Y-103849500D01*
X162430308Y-103849500D01*
X162363269Y-103829815D01*
X162317514Y-103777011D01*
X162307570Y-103707853D01*
X162336595Y-103644297D01*
X162388227Y-103610063D01*
X162387910Y-103609297D01*
X162391838Y-103607669D01*
X162391992Y-103607568D01*
X162392412Y-103607431D01*
X162588760Y-103507386D01*
X162652513Y-103461066D01*
X162652514Y-103461066D01*
X161943585Y-102752138D01*
X162028694Y-102729333D01*
X162131306Y-102670090D01*
X162215090Y-102586306D01*
X162274333Y-102483694D01*
X162297138Y-102398585D01*
X162958181Y-103059628D01*
G37*
%TD.AperFunction*%
%TD*%
M02*
