%TF.GenerationSoftware,KiCad,Pcbnew,9.0.5*%
%TF.CreationDate,2025-11-11T20:33:39+08:00*%
%TF.ProjectId,ms,6d732e6b-6963-4616-945f-706362585858,rev?*%
%TF.SameCoordinates,Original*%
%TF.FileFunction,Legend,Bot*%
%TF.FilePolarity,Positive*%
%FSLAX46Y46*%
G04 Gerber Fmt 4.6, Leading zero omitted, Abs format (unit mm)*
G04 Created by KiCad (PCBNEW 9.0.5) date 2025-11-11 20:33:39*
%MOMM*%
%LPD*%
G01*
G04 APERTURE LIST*
%ADD10C,0.150000*%
%ADD11C,0.120000*%
%ADD12C,0.100000*%
G04 APERTURE END LIST*
D10*
X175989285Y-102304819D02*
X175989285Y-101304819D01*
X175989285Y-101304819D02*
X175751190Y-101304819D01*
X175751190Y-101304819D02*
X175608333Y-101352438D01*
X175608333Y-101352438D02*
X175513095Y-101447676D01*
X175513095Y-101447676D02*
X175465476Y-101542914D01*
X175465476Y-101542914D02*
X175417857Y-101733390D01*
X175417857Y-101733390D02*
X175417857Y-101876247D01*
X175417857Y-101876247D02*
X175465476Y-102066723D01*
X175465476Y-102066723D02*
X175513095Y-102161961D01*
X175513095Y-102161961D02*
X175608333Y-102257200D01*
X175608333Y-102257200D02*
X175751190Y-102304819D01*
X175751190Y-102304819D02*
X175989285Y-102304819D01*
X175036904Y-102257200D02*
X174894047Y-102304819D01*
X174894047Y-102304819D02*
X174655952Y-102304819D01*
X174655952Y-102304819D02*
X174560714Y-102257200D01*
X174560714Y-102257200D02*
X174513095Y-102209580D01*
X174513095Y-102209580D02*
X174465476Y-102114342D01*
X174465476Y-102114342D02*
X174465476Y-102019104D01*
X174465476Y-102019104D02*
X174513095Y-101923866D01*
X174513095Y-101923866D02*
X174560714Y-101876247D01*
X174560714Y-101876247D02*
X174655952Y-101828628D01*
X174655952Y-101828628D02*
X174846428Y-101781009D01*
X174846428Y-101781009D02*
X174941666Y-101733390D01*
X174941666Y-101733390D02*
X174989285Y-101685771D01*
X174989285Y-101685771D02*
X175036904Y-101590533D01*
X175036904Y-101590533D02*
X175036904Y-101495295D01*
X175036904Y-101495295D02*
X174989285Y-101400057D01*
X174989285Y-101400057D02*
X174941666Y-101352438D01*
X174941666Y-101352438D02*
X174846428Y-101304819D01*
X174846428Y-101304819D02*
X174608333Y-101304819D01*
X174608333Y-101304819D02*
X174465476Y-101352438D01*
X173513095Y-102304819D02*
X174084523Y-102304819D01*
X173798809Y-102304819D02*
X173798809Y-101304819D01*
X173798809Y-101304819D02*
X173894047Y-101447676D01*
X173894047Y-101447676D02*
X173989285Y-101542914D01*
X173989285Y-101542914D02*
X174084523Y-101590533D01*
D11*
%TO.C,DS1*%
X169875000Y-100900000D02*
X169875000Y-98750000D01*
X178975000Y-98750000D02*
X178975000Y-100900000D01*
X178975000Y-100900000D02*
X169875000Y-100900000D01*
D12*
X171725000Y-94750000D02*
G75*
G02*
X170925000Y-94750000I-400000J0D01*
G01*
X170925000Y-94750000D02*
G75*
G02*
X171725000Y-94750000I400000J0D01*
G01*
X177925000Y-94750000D02*
G75*
G02*
X177125000Y-94750000I-400000J0D01*
G01*
X177125000Y-94750000D02*
G75*
G02*
X177925000Y-94750000I400000J0D01*
G01*
%TD*%
M02*
