%TF.GenerationSoftware,KiCad,Pcbnew,9.0.5*%
%TF.CreationDate,2025-11-10T23:46:23+08:00*%
%TF.ProjectId,ms,6d732e6b-6963-4616-945f-706362585858,rev?*%
%TF.SameCoordinates,Original*%
%TF.FileFunction,Soldermask,Bot*%
%TF.FilePolarity,Negative*%
%FSLAX46Y46*%
G04 Gerber Fmt 4.6, Leading zero omitted, Abs format (unit mm)*
G04 Created by KiCad (PCBNEW 9.0.5) date 2025-11-10 23:46:23*
%MOMM*%
%LPD*%
G01*
G04 APERTURE LIST*
G04 Aperture macros list*
%AMRoundRect*
0 Rectangle with rounded corners*
0 $1 Rounding radius*
0 $2 $3 $4 $5 $6 $7 $8 $9 X,Y pos of 4 corners*
0 Add a 4 corners polygon primitive as box body*
4,1,4,$2,$3,$4,$5,$6,$7,$8,$9,$2,$3,0*
0 Add four circle primitives for the rounded corners*
1,1,$1+$1,$2,$3*
1,1,$1+$1,$4,$5*
1,1,$1+$1,$6,$7*
1,1,$1+$1,$8,$9*
0 Add four rect primitives between the rounded corners*
20,1,$1+$1,$2,$3,$4,$5,0*
20,1,$1+$1,$4,$5,$6,$7,0*
20,1,$1+$1,$6,$7,$8,$9,0*
20,1,$1+$1,$8,$9,$2,$3,0*%
%AMRotRect*
0 Rectangle, with rotation*
0 The origin of the aperture is its center*
0 $1 length*
0 $2 width*
0 $3 Rotation angle, in degrees counterclockwise*
0 Add horizontal line*
21,1,$1,$2,0,0,$3*%
G04 Aperture macros list end*
%ADD10O,1.700000X1.100000*%
%ADD11R,1.800000X1.800000*%
%ADD12C,1.800000*%
%ADD13RoundRect,0.250000X-0.600000X-0.750000X0.600000X-0.750000X0.600000X0.750000X-0.600000X0.750000X0*%
%ADD14O,1.700000X2.000000*%
%ADD15C,6.400000*%
%ADD16RotRect,1.800000X1.800000X315.000000*%
%ADD17R,1.700000X1.700000*%
%ADD18C,1.700000*%
%ADD19RotRect,1.800000X1.800000X45.000000*%
%ADD20RotRect,1.800000X1.800000X225.000000*%
%ADD21RotRect,1.800000X1.800000X135.000000*%
%ADD22R,0.350000X2.000000*%
G04 APERTURE END LIST*
D10*
%TO.C,J3*%
X126900000Y-88630000D03*
X123100000Y-88630000D03*
X126900000Y-97270000D03*
X123100000Y-97270000D03*
%TD*%
D11*
%TO.C,D30*%
X146615000Y-117550000D03*
D12*
X149155000Y-117550000D03*
%TD*%
D13*
%TO.C,J2*%
X160925000Y-130850000D03*
D14*
X163425000Y-130850000D03*
%TD*%
D11*
%TO.C,D17*%
X144075000Y-117550000D03*
D12*
X141535000Y-117550000D03*
%TD*%
D15*
%TO.C,H4*%
X131425000Y-123850000D03*
%TD*%
D11*
%TO.C,D11*%
X144075000Y-92150000D03*
D12*
X141535000Y-92150000D03*
%TD*%
D11*
%TO.C,D12*%
X146615000Y-92150000D03*
D12*
X149155000Y-92150000D03*
%TD*%
D11*
%TO.C,D13*%
X136455000Y-97230000D03*
D12*
X138995000Y-97230000D03*
%TD*%
D11*
%TO.C,D23*%
X136455000Y-112470000D03*
D12*
X138995000Y-112470000D03*
%TD*%
D11*
%TO.C,D3*%
X156775000Y-97230000D03*
D12*
X159315000Y-97230000D03*
%TD*%
D11*
%TO.C,D28*%
X154235000Y-112470000D03*
D12*
X151695000Y-112470000D03*
%TD*%
D11*
%TO.C,D31*%
X156775000Y-117550000D03*
D12*
X159315000Y-117550000D03*
%TD*%
D11*
%TO.C,D20*%
X154235000Y-107390000D03*
D12*
X151695000Y-107390000D03*
%TD*%
D11*
%TO.C,D24*%
X146615000Y-107390000D03*
D12*
X149155000Y-107390000D03*
%TD*%
D11*
%TO.C,D1*%
X146615000Y-97230000D03*
D12*
X149155000Y-97230000D03*
%TD*%
D11*
%TO.C,D21*%
X156775000Y-112470000D03*
D12*
X159315000Y-112470000D03*
%TD*%
D11*
%TO.C,D8*%
X156775000Y-92150000D03*
D12*
X159315000Y-92150000D03*
%TD*%
D11*
%TO.C,D15*%
X154235000Y-102310000D03*
D12*
X151695000Y-102310000D03*
%TD*%
D16*
%TO.C,D33*%
X122523439Y-76948439D03*
D12*
X124319490Y-78744490D03*
%TD*%
D11*
%TO.C,D10*%
X164395000Y-97230000D03*
D12*
X161855000Y-97230000D03*
%TD*%
D11*
%TO.C,D18*%
X146615000Y-112470000D03*
D12*
X149155000Y-112470000D03*
%TD*%
D17*
%TO.C,J1*%
X155315000Y-132850000D03*
D18*
X152775000Y-132850000D03*
X150235000Y-132850000D03*
X147695000Y-132850000D03*
X145155000Y-132850000D03*
X142615000Y-132850000D03*
X140075000Y-132850000D03*
X137535000Y-132850000D03*
%TD*%
D11*
%TO.C,D4*%
X154235000Y-92150000D03*
D12*
X151695000Y-92150000D03*
%TD*%
D19*
%TO.C,D36*%
X122523439Y-132751561D03*
D12*
X124319490Y-130955510D03*
%TD*%
D20*
%TO.C,D34*%
X178326561Y-76948439D03*
D12*
X176530510Y-78744490D03*
%TD*%
D11*
%TO.C,D26*%
X154235000Y-117550000D03*
D12*
X151695000Y-117550000D03*
%TD*%
D11*
%TO.C,D25*%
X144075000Y-107390000D03*
D12*
X141535000Y-107390000D03*
%TD*%
D11*
%TO.C,D19*%
X136455000Y-107390000D03*
D12*
X138995000Y-107390000D03*
%TD*%
D11*
%TO.C,D2*%
X144075000Y-97230000D03*
D12*
X141535000Y-97230000D03*
%TD*%
D11*
%TO.C,D22*%
X164395000Y-112470000D03*
D12*
X161855000Y-112470000D03*
%TD*%
D11*
%TO.C,D9*%
X154235000Y-97230000D03*
D12*
X151695000Y-97230000D03*
%TD*%
D15*
%TO.C,H3*%
X169425000Y-85850000D03*
%TD*%
D11*
%TO.C,D27*%
X156775000Y-107390000D03*
D12*
X159315000Y-107390000D03*
%TD*%
D11*
%TO.C,D5*%
X146615000Y-102310000D03*
D12*
X149155000Y-102310000D03*
%TD*%
D15*
%TO.C,H1*%
X169425000Y-123850000D03*
%TD*%
D11*
%TO.C,D6*%
X144075000Y-102310000D03*
D12*
X141535000Y-102310000D03*
%TD*%
D11*
%TO.C,D29*%
X144075000Y-112470000D03*
D12*
X141535000Y-112470000D03*
%TD*%
D11*
%TO.C,D16*%
X164395000Y-102310000D03*
D12*
X161855000Y-102310000D03*
%TD*%
D15*
%TO.C,H2*%
X131425000Y-85850000D03*
%TD*%
D21*
%TO.C,D35*%
X178326561Y-132751561D03*
D12*
X176530510Y-130955510D03*
%TD*%
D11*
%TO.C,D14*%
X156775000Y-102310000D03*
D12*
X159315000Y-102310000D03*
%TD*%
D11*
%TO.C,D7*%
X136455000Y-102310000D03*
D12*
X138995000Y-102310000D03*
%TD*%
D11*
%TO.C,D32*%
X164395000Y-107390000D03*
D12*
X161855000Y-107390000D03*
%TD*%
D22*
%TO.C,DS1*%
X178455000Y-99750000D03*
X177835000Y-99750000D03*
X177215000Y-99750000D03*
X176595000Y-99750000D03*
X175975000Y-99750000D03*
X175355000Y-99750000D03*
X174735000Y-99750000D03*
X174115000Y-99750000D03*
X173495000Y-99750000D03*
X172875000Y-99750000D03*
X172255000Y-99750000D03*
X171635000Y-99750000D03*
X171015000Y-99750000D03*
X170395000Y-99750000D03*
%TD*%
M02*
