%TF.GenerationSoftware,KiCad,Pcbnew,9.0.5*%
%TF.CreationDate,2025-11-11T20:33:39+08:00*%
%TF.ProjectId,ms,6d732e6b-6963-4616-945f-706362585858,rev?*%
%TF.SameCoordinates,Original*%
%TF.FileFunction,Soldermask,Top*%
%TF.FilePolarity,Negative*%
%FSLAX46Y46*%
G04 Gerber Fmt 4.6, Leading zero omitted, Abs format (unit mm)*
G04 Created by KiCad (PCBNEW 9.0.5) date 2025-11-11 20:33:39*
%MOMM*%
%LPD*%
G01*
G04 APERTURE LIST*
G04 Aperture macros list*
%AMRoundRect*
0 Rectangle with rounded corners*
0 $1 Rounding radius*
0 $2 $3 $4 $5 $6 $7 $8 $9 X,Y pos of 4 corners*
0 Add a 4 corners polygon primitive as box body*
4,1,4,$2,$3,$4,$5,$6,$7,$8,$9,$2,$3,0*
0 Add four circle primitives for the rounded corners*
1,1,$1+$1,$2,$3*
1,1,$1+$1,$4,$5*
1,1,$1+$1,$6,$7*
1,1,$1+$1,$8,$9*
0 Add four rect primitives between the rounded corners*
20,1,$1+$1,$2,$3,$4,$5,0*
20,1,$1+$1,$4,$5,$6,$7,0*
20,1,$1+$1,$6,$7,$8,$9,0*
20,1,$1+$1,$8,$9,$2,$3,0*%
%AMRotRect*
0 Rectangle, with rotation*
0 The origin of the aperture is its center*
0 $1 length*
0 $2 width*
0 $3 Rotation angle, in degrees counterclockwise*
0 Add horizontal line*
21,1,$1,$2,0,0,$3*%
%AMFreePoly0*
4,1,14,0.230680,0.111820,0.364320,-0.021820,0.377500,-0.053640,0.377500,-0.080000,0.364320,-0.111820,0.332500,-0.125000,-0.332500,-0.125000,-0.364320,-0.111820,-0.377500,-0.080000,-0.377500,0.080000,-0.364320,0.111820,-0.332500,0.125000,0.198860,0.125000,0.230680,0.111820,0.230680,0.111820,$1*%
%AMFreePoly1*
4,1,14,0.364320,0.111820,0.377500,0.080000,0.377500,0.053640,0.364320,0.021820,0.230680,-0.111820,0.198860,-0.125000,-0.332500,-0.125000,-0.364320,-0.111820,-0.377500,-0.080000,-0.377500,0.080000,-0.364320,0.111820,-0.332500,0.125000,0.332500,0.125000,0.364320,0.111820,0.364320,0.111820,$1*%
%AMFreePoly2*
4,1,14,0.111820,0.364320,0.125000,0.332500,0.125000,-0.332500,0.111820,-0.364320,0.080000,-0.377500,-0.080000,-0.377500,-0.111820,-0.364320,-0.125000,-0.332500,-0.125000,0.198860,-0.111820,0.230680,0.021820,0.364320,0.053640,0.377500,0.080000,0.377500,0.111820,0.364320,0.111820,0.364320,$1*%
%AMFreePoly3*
4,1,14,-0.021820,0.364320,0.111820,0.230680,0.125000,0.198860,0.125000,-0.332500,0.111820,-0.364320,0.080000,-0.377500,-0.080000,-0.377500,-0.111820,-0.364320,-0.125000,-0.332500,-0.125000,0.332500,-0.111820,0.364320,-0.080000,0.377500,-0.053640,0.377500,-0.021820,0.364320,-0.021820,0.364320,$1*%
%AMFreePoly4*
4,1,14,0.364320,0.111820,0.377500,0.080000,0.377500,-0.080000,0.364320,-0.111820,0.332500,-0.125000,-0.198860,-0.125000,-0.230680,-0.111820,-0.364320,0.021820,-0.377500,0.053640,-0.377500,0.080000,-0.364320,0.111820,-0.332500,0.125000,0.332500,0.125000,0.364320,0.111820,0.364320,0.111820,$1*%
%AMFreePoly5*
4,1,14,0.364320,0.111820,0.377500,0.080000,0.377500,-0.080000,0.364320,-0.111820,0.332500,-0.125000,-0.332500,-0.125000,-0.364320,-0.111820,-0.377500,-0.080000,-0.377500,-0.053640,-0.364320,-0.021820,-0.230680,0.111820,-0.198860,0.125000,0.332500,0.125000,0.364320,0.111820,0.364320,0.111820,$1*%
%AMFreePoly6*
4,1,14,0.111820,0.364320,0.125000,0.332500,0.125000,-0.198860,0.111820,-0.230680,-0.021820,-0.364320,-0.053640,-0.377500,-0.080000,-0.377500,-0.111820,-0.364320,-0.125000,-0.332500,-0.125000,0.332500,-0.111820,0.364320,-0.080000,0.377500,0.080000,0.377500,0.111820,0.364320,0.111820,0.364320,$1*%
%AMFreePoly7*
4,1,14,0.111820,0.364320,0.125000,0.332500,0.125000,-0.332500,0.111820,-0.364320,0.080000,-0.377500,0.053640,-0.377500,0.021820,-0.364320,-0.111820,-0.230680,-0.125000,-0.198860,-0.125000,0.332500,-0.111820,0.364320,-0.080000,0.377500,0.080000,0.377500,0.111820,0.364320,0.111820,0.364320,$1*%
G04 Aperture macros list end*
%ADD10RoundRect,0.200000X0.200000X0.275000X-0.200000X0.275000X-0.200000X-0.275000X0.200000X-0.275000X0*%
%ADD11RoundRect,0.200000X-0.275000X0.200000X-0.275000X-0.200000X0.275000X-0.200000X0.275000X0.200000X0*%
%ADD12R,1.200000X1.200000*%
%ADD13R,1.500000X1.600000*%
%ADD14R,1.800000X1.800000*%
%ADD15C,1.800000*%
%ADD16RoundRect,0.250000X-0.600000X-0.750000X0.600000X-0.750000X0.600000X0.750000X-0.600000X0.750000X0*%
%ADD17O,1.700000X2.000000*%
%ADD18R,0.650000X1.050000*%
%ADD19C,6.400000*%
%ADD20RoundRect,0.225000X0.225000X0.250000X-0.225000X0.250000X-0.225000X-0.250000X0.225000X-0.250000X0*%
%ADD21RoundRect,0.200000X-0.200000X-0.275000X0.200000X-0.275000X0.200000X0.275000X-0.200000X0.275000X0*%
%ADD22RoundRect,0.225000X-0.225000X-0.250000X0.225000X-0.250000X0.225000X0.250000X-0.225000X0.250000X0*%
%ADD23FreePoly0,180.000000*%
%ADD24RoundRect,0.062500X0.375000X0.062500X-0.375000X0.062500X-0.375000X-0.062500X0.375000X-0.062500X0*%
%ADD25FreePoly1,180.000000*%
%ADD26FreePoly2,180.000000*%
%ADD27RoundRect,0.062500X0.062500X0.375000X-0.062500X0.375000X-0.062500X-0.375000X0.062500X-0.375000X0*%
%ADD28FreePoly3,180.000000*%
%ADD29FreePoly4,180.000000*%
%ADD30FreePoly5,180.000000*%
%ADD31FreePoly6,180.000000*%
%ADD32FreePoly7,180.000000*%
%ADD33RoundRect,0.225000X-0.250000X0.225000X-0.250000X-0.225000X0.250000X-0.225000X0.250000X0.225000X0*%
%ADD34RoundRect,0.150000X0.512500X0.150000X-0.512500X0.150000X-0.512500X-0.150000X0.512500X-0.150000X0*%
%ADD35RoundRect,0.225000X0.250000X-0.225000X0.250000X0.225000X-0.250000X0.225000X-0.250000X-0.225000X0*%
%ADD36RoundRect,0.225000X0.375000X-0.225000X0.375000X0.225000X-0.375000X0.225000X-0.375000X-0.225000X0*%
%ADD37RotRect,1.800000X1.800000X315.000000*%
%ADD38RoundRect,0.200000X0.275000X-0.200000X0.275000X0.200000X-0.275000X0.200000X-0.275000X-0.200000X0*%
%ADD39RoundRect,0.150000X0.825000X0.150000X-0.825000X0.150000X-0.825000X-0.150000X0.825000X-0.150000X0*%
%ADD40R,1.700000X1.700000*%
%ADD41C,1.700000*%
%ADD42RotRect,1.800000X1.800000X45.000000*%
%ADD43RotRect,1.800000X1.800000X225.000000*%
%ADD44RoundRect,0.150000X-0.825000X-0.150000X0.825000X-0.150000X0.825000X0.150000X-0.825000X0.150000X0*%
%ADD45R,2.410000X3.300000*%
%ADD46RoundRect,0.225000X-0.375000X0.225000X-0.375000X-0.225000X0.375000X-0.225000X0.375000X0.225000X0*%
%ADD47RoundRect,0.150000X-0.150000X0.825000X-0.150000X-0.825000X0.150000X-0.825000X0.150000X0.825000X0*%
%ADD48RotRect,1.800000X1.800000X135.000000*%
%ADD49RoundRect,0.243750X-0.243750X-0.456250X0.243750X-0.456250X0.243750X0.456250X-0.243750X0.456250X0*%
%ADD50RoundRect,0.175000X-0.425000X0.175000X-0.425000X-0.175000X0.425000X-0.175000X0.425000X0.175000X0*%
%ADD51RoundRect,0.190000X0.410000X-0.190000X0.410000X0.190000X-0.410000X0.190000X-0.410000X-0.190000X0*%
%ADD52RoundRect,0.200000X0.400000X-0.200000X0.400000X0.200000X-0.400000X0.200000X-0.400000X-0.200000X0*%
%ADD53RoundRect,0.175000X0.425000X-0.175000X0.425000X0.175000X-0.425000X0.175000X-0.425000X-0.175000X0*%
%ADD54RoundRect,0.190000X-0.410000X0.190000X-0.410000X-0.190000X0.410000X-0.190000X0.410000X0.190000X0*%
%ADD55RoundRect,0.200000X-0.400000X0.200000X-0.400000X-0.200000X0.400000X-0.200000X0.400000X0.200000X0*%
%ADD56O,1.700000X1.100000*%
G04 APERTURE END LIST*
D10*
%TO.C,R34*%
X132050000Y-95850000D03*
X130400000Y-95850000D03*
%TD*%
D11*
%TO.C,R33*%
X132025000Y-92725000D03*
X132025000Y-94375000D03*
%TD*%
D12*
%TO.C,RV4*%
X129625000Y-129850000D03*
D13*
X132875000Y-130850000D03*
D12*
X129625000Y-131850000D03*
%TD*%
D14*
%TO.C,D30*%
X146615000Y-117550000D03*
D15*
X149155000Y-117550000D03*
%TD*%
D16*
%TO.C,J2*%
X160925000Y-130850000D03*
D17*
X163425000Y-130850000D03*
%TD*%
D14*
%TO.C,D17*%
X144075000Y-117550000D03*
D15*
X141535000Y-117550000D03*
%TD*%
D18*
%TO.C,SW2*%
X123500000Y-114775000D03*
X123500000Y-118925000D03*
X121350000Y-114775000D03*
X121350000Y-118900000D03*
%TD*%
D19*
%TO.C,H4*%
X131425000Y-123850000D03*
%TD*%
D14*
%TO.C,D11*%
X144075000Y-92150000D03*
D15*
X141535000Y-92150000D03*
%TD*%
D20*
%TO.C,C3*%
X151800000Y-81950000D03*
X150250000Y-81950000D03*
%TD*%
D10*
%TO.C,R17*%
X138650000Y-75850000D03*
X137000000Y-75850000D03*
%TD*%
D14*
%TO.C,D12*%
X146615000Y-92150000D03*
D15*
X149155000Y-92150000D03*
%TD*%
D21*
%TO.C,R21*%
X135600000Y-91150000D03*
X137250000Y-91150000D03*
%TD*%
D14*
%TO.C,D13*%
X136455000Y-97230000D03*
D15*
X138995000Y-97230000D03*
%TD*%
D10*
%TO.C,R12*%
X158150000Y-126050000D03*
X156500000Y-126050000D03*
%TD*%
D14*
%TO.C,D23*%
X136455000Y-112470000D03*
D15*
X138995000Y-112470000D03*
%TD*%
D14*
%TO.C,D3*%
X156775000Y-97230000D03*
D15*
X159315000Y-97230000D03*
%TD*%
D10*
%TO.C,R4*%
X156550000Y-87950000D03*
X154900000Y-87950000D03*
%TD*%
D22*
%TO.C,C15*%
X163350000Y-125450000D03*
X164900000Y-125450000D03*
%TD*%
D14*
%TO.C,D28*%
X154235000Y-112470000D03*
D15*
X151695000Y-112470000D03*
%TD*%
D23*
%TO.C,U2*%
X130122500Y-108550000D03*
D24*
X130062500Y-108050000D03*
X130062500Y-107550000D03*
X130062500Y-107050000D03*
X130062500Y-106550000D03*
X130062500Y-106050000D03*
D25*
X130122500Y-105550000D03*
D26*
X129625000Y-105052500D03*
D27*
X129125000Y-105112500D03*
X128625000Y-105112500D03*
X128125000Y-105112500D03*
X127625000Y-105112500D03*
X127125000Y-105112500D03*
D28*
X126625000Y-105052500D03*
D29*
X126127500Y-105550000D03*
D24*
X126187500Y-106050000D03*
X126187500Y-106550000D03*
X126187500Y-107050000D03*
X126187500Y-107550000D03*
X126187500Y-108050000D03*
D30*
X126127500Y-108550000D03*
D31*
X126625000Y-109047500D03*
D27*
X127125000Y-108987500D03*
X127625000Y-108987500D03*
X128125000Y-108987500D03*
X128625000Y-108987500D03*
X129125000Y-108987500D03*
D32*
X129625000Y-109047500D03*
%TD*%
D33*
%TO.C,C20*%
X168225000Y-101675000D03*
X168225000Y-103225000D03*
%TD*%
D34*
%TO.C,U1*%
X156562500Y-129800000D03*
X156562500Y-128850000D03*
X156562500Y-127900000D03*
X154287500Y-127900000D03*
X154287500Y-129800000D03*
%TD*%
D10*
%TO.C,R32*%
X125950000Y-100250000D03*
X124300000Y-100250000D03*
%TD*%
D33*
%TO.C,C22*%
X174215000Y-101675000D03*
X174215000Y-103225000D03*
%TD*%
D12*
%TO.C,RV2*%
X171225000Y-78850000D03*
D13*
X167975000Y-77850000D03*
D12*
X171225000Y-76850000D03*
%TD*%
%TO.C,RV3*%
X171225000Y-132853535D03*
D13*
X167975000Y-131853535D03*
D12*
X171225000Y-130853535D03*
%TD*%
D10*
%TO.C,R6*%
X156550000Y-83150000D03*
X154900000Y-83150000D03*
%TD*%
D14*
%TO.C,D31*%
X156775000Y-117550000D03*
D15*
X159315000Y-117550000D03*
%TD*%
D35*
%TO.C,C18*%
X177325000Y-103225000D03*
X177325000Y-101675000D03*
%TD*%
D22*
%TO.C,C16*%
X163350000Y-127050000D03*
X164900000Y-127050000D03*
%TD*%
D14*
%TO.C,D20*%
X154235000Y-107390000D03*
D15*
X151695000Y-107390000D03*
%TD*%
D11*
%TO.C,R11*%
X155025000Y-124525000D03*
X155025000Y-126175000D03*
%TD*%
D14*
%TO.C,D24*%
X146615000Y-107390000D03*
D15*
X149155000Y-107390000D03*
%TD*%
D33*
%TO.C,C27*%
X133425000Y-104475000D03*
X133425000Y-106025000D03*
%TD*%
D14*
%TO.C,D1*%
X146615000Y-97230000D03*
D15*
X149155000Y-97230000D03*
%TD*%
D14*
%TO.C,D21*%
X156775000Y-112470000D03*
D15*
X159315000Y-112470000D03*
%TD*%
D35*
%TO.C,C11*%
X126525000Y-122325000D03*
X126525000Y-120775000D03*
%TD*%
D14*
%TO.C,D8*%
X156775000Y-92150000D03*
D15*
X159315000Y-92150000D03*
%TD*%
D36*
%TO.C,D40*%
X160025000Y-125100000D03*
X160025000Y-121800000D03*
%TD*%
D14*
%TO.C,D15*%
X154235000Y-102310000D03*
D15*
X151695000Y-102310000D03*
%TD*%
D21*
%TO.C,R27*%
X123000000Y-108050000D03*
X124650000Y-108050000D03*
%TD*%
D33*
%TO.C,C6*%
X148925000Y-127575000D03*
X148925000Y-129125000D03*
%TD*%
D37*
%TO.C,D33*%
X122523439Y-76948439D03*
D15*
X124319490Y-78744490D03*
%TD*%
D38*
%TO.C,R24*%
X126525000Y-125575000D03*
X126525000Y-123925000D03*
%TD*%
D20*
%TO.C,C7*%
X135200000Y-92850000D03*
X133650000Y-92850000D03*
%TD*%
D11*
%TO.C,R23*%
X126525000Y-114525000D03*
X126525000Y-116175000D03*
%TD*%
D33*
%TO.C,C19*%
X169725000Y-101675000D03*
X169725000Y-103225000D03*
%TD*%
D35*
%TO.C,C17*%
X178825000Y-103225000D03*
X178825000Y-101675000D03*
%TD*%
D20*
%TO.C,C24*%
X172500000Y-99750000D03*
X170950000Y-99750000D03*
%TD*%
D39*
%TO.C,U4*%
X152900000Y-125755000D03*
X152900000Y-124485000D03*
X152900000Y-123215000D03*
X152900000Y-121945000D03*
X147950000Y-121945000D03*
X147950000Y-123215000D03*
X147950000Y-124485000D03*
X147950000Y-125755000D03*
%TD*%
D14*
%TO.C,D10*%
X164395000Y-97230000D03*
D15*
X161855000Y-97230000D03*
%TD*%
D14*
%TO.C,D18*%
X146615000Y-112470000D03*
D15*
X149155000Y-112470000D03*
%TD*%
D21*
%TO.C,R22*%
X135600000Y-89650000D03*
X137250000Y-89650000D03*
%TD*%
D40*
%TO.C,J1*%
X155315000Y-132850000D03*
D41*
X152775000Y-132850000D03*
X150235000Y-132850000D03*
X147695000Y-132850000D03*
X145155000Y-132850000D03*
X142615000Y-132850000D03*
X140075000Y-132850000D03*
X137535000Y-132850000D03*
%TD*%
D36*
%TO.C,D39*%
X142325000Y-126450000D03*
X142325000Y-123150000D03*
%TD*%
D14*
%TO.C,D4*%
X154235000Y-92150000D03*
D15*
X151695000Y-92150000D03*
%TD*%
D42*
%TO.C,D36*%
X122523439Y-132751561D03*
D15*
X124319490Y-130955510D03*
%TD*%
D38*
%TO.C,R30*%
X129025000Y-91375000D03*
X129025000Y-89725000D03*
%TD*%
D21*
%TO.C,R28*%
X123000000Y-106550000D03*
X124650000Y-106550000D03*
%TD*%
D43*
%TO.C,D34*%
X178326561Y-76948439D03*
D15*
X176530510Y-78744490D03*
%TD*%
D10*
%TO.C,R14*%
X142150000Y-78850000D03*
X140500000Y-78850000D03*
%TD*%
D35*
%TO.C,C26*%
X132025000Y-106025000D03*
X132025000Y-104475000D03*
%TD*%
D33*
%TO.C,C9*%
X138825000Y-89675000D03*
X138825000Y-91225000D03*
%TD*%
D44*
%TO.C,U6*%
X128150000Y-99045000D03*
X128150000Y-100315000D03*
X128150000Y-101585000D03*
X128150000Y-102855000D03*
X133100000Y-102855000D03*
X133100000Y-101585000D03*
X133100000Y-100315000D03*
X133100000Y-99045000D03*
D45*
X130625000Y-100950000D03*
%TD*%
D14*
%TO.C,D26*%
X154235000Y-117550000D03*
D15*
X151695000Y-117550000D03*
%TD*%
D38*
%TO.C,R26*%
X172725000Y-103275000D03*
X172725000Y-101625000D03*
%TD*%
D46*
%TO.C,D37*%
X142025000Y-84900000D03*
X142025000Y-88200000D03*
%TD*%
D11*
%TO.C,R20*%
X134125000Y-89525000D03*
X134125000Y-91175000D03*
%TD*%
D38*
%TO.C,R5*%
X155025000Y-86375000D03*
X155025000Y-84725000D03*
%TD*%
D14*
%TO.C,D25*%
X144075000Y-107390000D03*
D15*
X141535000Y-107390000D03*
%TD*%
D11*
%TO.C,R10*%
X155025000Y-121525000D03*
X155025000Y-123175000D03*
%TD*%
D21*
%TO.C,R9*%
X144300000Y-126550000D03*
X145950000Y-126550000D03*
%TD*%
D14*
%TO.C,D19*%
X136455000Y-107390000D03*
D15*
X138995000Y-107390000D03*
%TD*%
D33*
%TO.C,C23*%
X171225000Y-101675000D03*
X171225000Y-103225000D03*
%TD*%
D14*
%TO.C,D2*%
X144075000Y-97230000D03*
D15*
X141535000Y-97230000D03*
%TD*%
D21*
%TO.C,R3*%
X142100000Y-83250000D03*
X143750000Y-83250000D03*
%TD*%
D20*
%TO.C,C13*%
X152100000Y-128650000D03*
X150550000Y-128650000D03*
%TD*%
D33*
%TO.C,C5*%
X156525000Y-122775000D03*
X156525000Y-124325000D03*
%TD*%
D14*
%TO.C,D22*%
X164395000Y-112470000D03*
D15*
X161855000Y-112470000D03*
%TD*%
D10*
%TO.C,R16*%
X138650000Y-78850000D03*
X137000000Y-78850000D03*
%TD*%
D20*
%TO.C,C14*%
X152100000Y-130250000D03*
X150550000Y-130250000D03*
%TD*%
D14*
%TO.C,D9*%
X154235000Y-97230000D03*
D15*
X151695000Y-97230000D03*
%TD*%
D46*
%TO.C,D38*%
X158625000Y-83200000D03*
X158625000Y-86500000D03*
%TD*%
D35*
%TO.C,C2*%
X156625000Y-86325000D03*
X156625000Y-84775000D03*
%TD*%
D47*
%TO.C,U5*%
X139630000Y-82575000D03*
X138360000Y-82575000D03*
X137090000Y-82575000D03*
X135820000Y-82575000D03*
X135820000Y-87525000D03*
X137090000Y-87525000D03*
X138360000Y-87525000D03*
X139630000Y-87525000D03*
%TD*%
D18*
%TO.C,SW1*%
X123500000Y-121175000D03*
X123500000Y-125325000D03*
X121350000Y-121175000D03*
X121350000Y-125300000D03*
%TD*%
D19*
%TO.C,H3*%
X169425000Y-85850000D03*
%TD*%
D12*
%TO.C,RV1*%
X129625000Y-76850000D03*
D13*
X132875000Y-77850000D03*
D12*
X129625000Y-78850000D03*
%TD*%
D22*
%TO.C,C8*%
X136650000Y-92850000D03*
X138200000Y-92850000D03*
%TD*%
D21*
%TO.C,R7*%
X144300000Y-121750000D03*
X145950000Y-121750000D03*
%TD*%
D35*
%TO.C,C1*%
X144125000Y-86325000D03*
X144125000Y-84775000D03*
%TD*%
D21*
%TO.C,R29*%
X174000000Y-99750000D03*
X175650000Y-99750000D03*
%TD*%
D10*
%TO.C,R15*%
X138650000Y-77350000D03*
X137000000Y-77350000D03*
%TD*%
%TO.C,R19*%
X134450000Y-81750000D03*
X132800000Y-81750000D03*
%TD*%
D20*
%TO.C,C25*%
X125900000Y-103250000D03*
X124350000Y-103250000D03*
%TD*%
D14*
%TO.C,D27*%
X156775000Y-107390000D03*
D15*
X159315000Y-107390000D03*
%TD*%
D11*
%TO.C,R31*%
X129025000Y-92725000D03*
X129025000Y-94375000D03*
%TD*%
D38*
%TO.C,R2*%
X145825000Y-88075000D03*
X145825000Y-86425000D03*
%TD*%
D10*
%TO.C,R18*%
X138650000Y-80350000D03*
X137000000Y-80350000D03*
%TD*%
D21*
%TO.C,R13*%
X140500000Y-80350000D03*
X142150000Y-80350000D03*
%TD*%
D33*
%TO.C,C10*%
X126525000Y-117675000D03*
X126525000Y-119225000D03*
%TD*%
D14*
%TO.C,D5*%
X146615000Y-102310000D03*
D15*
X149155000Y-102310000D03*
%TD*%
D19*
%TO.C,H1*%
X169425000Y-123850000D03*
%TD*%
D33*
%TO.C,C21*%
X175725000Y-101675000D03*
X175725000Y-103225000D03*
%TD*%
D14*
%TO.C,D6*%
X144075000Y-102310000D03*
D15*
X141535000Y-102310000D03*
%TD*%
D14*
%TO.C,D29*%
X144075000Y-112470000D03*
D15*
X141535000Y-112470000D03*
%TD*%
D14*
%TO.C,D16*%
X164395000Y-102310000D03*
D15*
X161855000Y-102310000D03*
%TD*%
D19*
%TO.C,H2*%
X131425000Y-85850000D03*
%TD*%
D48*
%TO.C,D35*%
X178326561Y-132751561D03*
D15*
X176530510Y-130955510D03*
%TD*%
D49*
%TO.C,D41*%
X121487500Y-112850000D03*
X123362500Y-112850000D03*
%TD*%
D14*
%TO.C,D14*%
X156775000Y-102310000D03*
D15*
X159315000Y-102310000D03*
%TD*%
D33*
%TO.C,C4*%
X144325000Y-123275000D03*
X144325000Y-124825000D03*
%TD*%
D44*
%TO.C,U3*%
X147950000Y-83945000D03*
X147950000Y-85215000D03*
X147950000Y-86485000D03*
X147950000Y-87755000D03*
X152900000Y-87755000D03*
X152900000Y-86485000D03*
X152900000Y-85215000D03*
X152900000Y-83945000D03*
%TD*%
D50*
%TO.C,J3*%
X126980000Y-92450000D03*
D51*
X126980000Y-94470000D03*
D52*
X126980000Y-95700000D03*
D53*
X126980000Y-93450000D03*
D54*
X126980000Y-91430000D03*
D55*
X126980000Y-90200000D03*
D56*
X126900000Y-88630000D03*
X123100000Y-88630000D03*
X126900000Y-97270000D03*
X123100000Y-97270000D03*
%TD*%
D14*
%TO.C,D7*%
X136455000Y-102310000D03*
D15*
X138995000Y-102310000D03*
%TD*%
D11*
%TO.C,R8*%
X145925000Y-123225000D03*
X145925000Y-124875000D03*
%TD*%
D14*
%TO.C,D32*%
X164395000Y-107390000D03*
D15*
X161855000Y-107390000D03*
%TD*%
D10*
%TO.C,R25*%
X126550000Y-112850000D03*
X124900000Y-112850000D03*
%TD*%
D38*
%TO.C,R1*%
X145825000Y-84975000D03*
X145825000Y-83325000D03*
%TD*%
D35*
%TO.C,C12*%
X132025000Y-109025000D03*
X132025000Y-107475000D03*
%TD*%
M02*
