M48
; DRILL file {KiCad 9.0.5} date 2025-11-10T23:46:29+0800
; FORMAT={-:-/ absolute / metric / decimal}
; #@! TF.CreationDate,2025-11-10T23:46:29+08:00
; #@! TF.GenerationSoftware,Kicad,Pcbnew,9.0.5
; #@! TF.FileFunction,Plated,1,2,PTH
FMAT,2
METRIC
; #@! TA.AperFunction,Plated,PTH,ViaDrill
T1C0.300
; #@! TA.AperFunction,Plated,PTH,ComponentDrill
T2C0.600
; #@! TA.AperFunction,Plated,PTH,ComponentDrill
T3C0.900
; #@! TA.AperFunction,Plated,PTH,ComponentDrill
T4C1.000
; #@! TA.AperFunction,Plated,PTH,ComponentDrill
T5C3.200
%
G90
G05
T1
X121.525Y-127.85
X121.625Y-81.85
X121.625Y-83.45
X121.625Y-123.05
X121.725Y-130.05
X121.925Y-111.45
X122.125Y-79.65
X122.825Y-101.55
X123.025Y-103.55
X123.025Y-105.75
X123.025Y-116.65
X123.125Y-99.25
X123.325Y-92.25
X123.425Y-82.55
X123.525Y-120.05
X123.625Y-86.95
X123.625Y-90.75
X123.725Y-94.75
X125.025Y-110.15
X125.025Y-127.85
X125.125Y-105.35
X125.325Y-76.15
X125.325Y-108.95
X125.425Y-133.85
X126.325Y-98.85
X126.425Y-101.65
X126.525Y-111.65
X126.525Y-120.05
X126.825Y-77.05
X127.025Y-110.25
X127.125Y-85.65
X127.325Y-105.95
X127.325Y-106.75
X127.425Y-129.75
X127.625Y-76.25
X127.925Y-80.15
X128.125Y-107.25
X128.325Y-106.05
X128.625Y-109.95
X129.025Y-97.55
X129.125Y-104.05
X129.125Y-108.05
X129.125Y-110.65
X129.825Y-115.65
X129.925Y-118.65
X130.125Y-98.95
X130.425Y-133.95
X130.725Y-95.05
X130.825Y-90.25
X130.925Y-92.35
X131.125Y-107.15
X131.625Y-96.15
X131.725Y-76.15
X131.825Y-94.35
X131.925Y-92.25
X132.225Y-118.25
X133.125Y-90.25
X133.525Y-75.95
X133.525Y-132.85
X134.225Y-106.55
X134.525Y-83.15
X134.525Y-127.65
X135.225Y-84.45
X135.225Y-120.85
X135.425Y-76.65
X135.525Y-78.45
X135.625Y-94.15
X136.325Y-109.85
X136.725Y-99.45
X136.825Y-94.55
X136.825Y-123.15
X136.925Y-127.55
X137.025Y-130.35
X137.625Y-89.15
X138.125Y-90.35
X138.325Y-86.05
X139.325Y-115.05
X139.725Y-109.95
X140.425Y-86.05
X140.525Y-94.55
X141.025Y-87.15
X141.425Y-99.75
X141.525Y-78.85
X142.425Y-89.65
X142.625Y-114.75
X142.725Y-109.75
X143.525Y-120.05
X144.125Y-94.55
X144.625Y-99.75
X144.625Y-114.85
X146.125Y-77.05
X146.125Y-89.45
X146.125Y-120.05
X147.725Y-78.65
X148.025Y-103.75
X148.025Y-106.15
X148.425Y-94.65
X148.425Y-109.85
X148.425Y-114.65
X148.625Y-104.45
X148.625Y-105.35
X148.925Y-99.65
X149.025Y-79.65
X150.125Y-104.45
X150.425Y-83.55
X150.425Y-124.55
X150.625Y-105.35
X151.125Y-82.65
X151.925Y-76.15
X151.925Y-94.45
X151.925Y-114.75
X152.025Y-99.65
X152.525Y-109.95
X152.625Y-106.15
X152.725Y-103.65
X153.625Y-89.55
X154.025Y-78.35
X155.625Y-76.75
X156.025Y-109.65
X156.025Y-114.85
X156.225Y-99.65
X157.325Y-94.75
X157.625Y-78.45
X157.625Y-89.85
X158.625Y-131.75
X158.725Y-100.15
X159.125Y-114.75
X159.625Y-76.85
X159.725Y-109.75
X159.925Y-81.05
X160.325Y-89.05
X160.625Y-94.75
X160.925Y-88.15
X161.525Y-78.55
X161.725Y-132.75
X162.125Y-100.05
X162.425Y-82.65
X162.525Y-114.75
X162.725Y-91.15
X162.825Y-118.85
X163.425Y-84.45
X163.425Y-94.75
X163.925Y-79.85
X164.125Y-116.75
X164.225Y-121.15
X164.425Y-76.85
X164.625Y-110.05
X164.725Y-92.65
X165.825Y-117.95
X166.025Y-130.05
X166.225Y-100.15
X166.825Y-82.25
X167.025Y-95.45
X167.425Y-98.15
X167.525Y-118.75
X168.025Y-133.65
X168.625Y-107.75
X169.125Y-116.75
X169.225Y-80.85
X169.425Y-111.55
X169.425Y-114.15
X170.225Y-101.05
X171.025Y-101.05
X171.825Y-105.35
X171.925Y-102.45
X172.025Y-108.75
X172.067Y-101.239
X172.425Y-81.85
X173.025Y-112.65
X173.025Y-115.85
X173.025Y-132.35
X173.125Y-118.65
X173.525Y-79.85
X173.525Y-89.75
X173.525Y-98.25
X173.825Y-87.05
X174.125Y-101.05
X174.625Y-129.15
X174.725Y-83.85
X174.725Y-96.65
X175.425Y-76.05
X175.725Y-133.65
X175.825Y-104.75
X175.925Y-100.95
X176.525Y-102.45
X176.725Y-87.05
X177.025Y-89.35
X177.225Y-100.95
X177.625Y-83.85
X177.825Y-120.45
X177.825Y-125.85
X178.025Y-108.25
X178.125Y-102.45
X178.325Y-116.75
X178.525Y-113.95
X178.725Y-82.25
X178.725Y-100.95
X178.725Y-111.05
X178.825Y-85.75
X179.125Y-79.45
X179.325Y-88.45
T3
X122.523Y-76.948
X122.523Y-132.752
X124.319Y-78.744
X124.319Y-130.956
X136.455Y-97.23
X136.455Y-102.31
X136.455Y-107.39
X136.455Y-112.47
X138.995Y-97.23
X138.995Y-102.31
X138.995Y-107.39
X138.995Y-112.47
X141.535Y-92.15
X141.535Y-97.23
X141.535Y-102.31
X141.535Y-107.39
X141.535Y-112.47
X141.535Y-117.55
X144.075Y-92.15
X144.075Y-97.23
X144.075Y-102.31
X144.075Y-107.39
X144.075Y-112.47
X144.075Y-117.55
X146.615Y-92.15
X146.615Y-97.23
X146.615Y-102.31
X146.615Y-107.39
X146.615Y-112.47
X146.615Y-117.55
X149.155Y-92.15
X149.155Y-97.23
X149.155Y-102.31
X149.155Y-107.39
X149.155Y-112.47
X149.155Y-117.55
X151.695Y-92.15
X151.695Y-97.23
X151.695Y-102.31
X151.695Y-107.39
X151.695Y-112.47
X151.695Y-117.55
X154.235Y-92.15
X154.235Y-97.23
X154.235Y-102.31
X154.235Y-107.39
X154.235Y-112.47
X154.235Y-117.55
X156.775Y-92.15
X156.775Y-97.23
X156.775Y-102.31
X156.775Y-107.39
X156.775Y-112.47
X156.775Y-117.55
X159.315Y-92.15
X159.315Y-97.23
X159.315Y-102.31
X159.315Y-107.39
X159.315Y-112.47
X159.315Y-117.55
X161.855Y-97.23
X161.855Y-102.31
X161.855Y-107.39
X161.855Y-112.47
X164.395Y-97.23
X164.395Y-102.31
X164.395Y-107.39
X164.395Y-112.47
X176.531Y-78.744
X176.531Y-130.956
X178.327Y-76.948
X178.327Y-132.752
T4
X137.535Y-132.85
X140.075Y-132.85
X142.615Y-132.85
X145.155Y-132.85
X147.695Y-132.85
X150.235Y-132.85
X152.775Y-132.85
X155.315Y-132.85
X160.925Y-130.85
X163.425Y-130.85
T5
X131.425Y-85.85
X131.425Y-123.85
X169.425Y-85.85
X169.425Y-123.85
T2
G00X123.4Y-88.63
M15
G01X122.8Y-88.63
M16
G05
G00X123.4Y-97.27
M15
G01X122.8Y-97.27
M16
G05
G00X127.2Y-88.63
M15
G01X126.6Y-88.63
M16
G05
G00X127.2Y-97.27
M15
G01X126.6Y-97.27
M16
G05
M30
